STARTFONT 2.1
COMMENT
COMMENT Converted from OpenType font "SF-Compact-Display-Regular.otf" by "otf2bdf 3.0".
COMMENT
FONT -FreeType-SF Compact Display-Medium-R-Normal--22-160-100-100-P-114-ISO10646-1
SIZE 16 100 100
FONTBOUNDINGBOX 29 26 -4 -5
STARTPROPERTIES 19
FOUNDRY "FreeType"
FAMILY_NAME "SF Compact Display"
WEIGHT_NAME "Medium"
SLANT "R"
SETWIDTH_NAME "Normal"
ADD_STYLE_NAME ""
PIXEL_SIZE 22
POINT_SIZE 160
RESOLUTION_X 100
RESOLUTION_Y 100
SPACING "P"
AVERAGE_WIDTH 114
CHARSET_REGISTRY "ISO10646"
CHARSET_ENCODING "1"
FONT_ASCENT 20
FONT_DESCENT 5
COPYRIGHT "© 2015-2023 Apple Inc. All rights reserved."
_OTF_FONTFILE "SF-Compact-Display-Regular.otf"
_OTF_PSNAME "SFCompactDisplay-Regular"
ENDPROPERTIES
CHARS 1368
STARTCHAR 0020
ENCODING 32
SWIDTH 180 0
DWIDTH 4 0
BBX 0 0 0 0
BITMAP
ENDCHAR
STARTCHAR 0021
ENCODING 33
SWIDTH 270 0
DWIDTH 6 0
BBX 2 15 2 0
BITMAP
C0
C0
C0
C0
C0
C0
C0
C0
C0
C0
C0
00
00
C0
C0
ENDCHAR
STARTCHAR 0022
ENCODING 34
SWIDTH 360 0
DWIDTH 8 0
BBX 6 5 1 10
BITMAP
CC
CC
CC
CC
C8
ENDCHAR
STARTCHAR 0023
ENCODING 35
SWIDTH 585 0
DWIDTH 13 0
BBX 13 15 0 0
BITMAP
0420
0C60
0C60
0840
7FF8
7FF8
18C0
18C0
1080
FFF0
FFE0
3180
3180
2100
2100
ENDCHAR
STARTCHAR 0024
ENCODING 36
SWIDTH 540 0
DWIDTH 12 0
BBX 11 18 1 -2
BITMAP
0400
1F00
3F80
64C0
64C0
4400
6400
7C00
1F80
07C0
04C0
0460
C460
64C0
7F80
1F00
0400
0400
ENDCHAR
STARTCHAR 0025
ENCODING 37
SWIDTH 675 0
DWIDTH 15 0
BBX 15 15 0 0
BITMAP
780C
4C18
CC10
CC30
CC60
6CC0
3880
0180
033C
0666
0C66
0C66
1866
3064
603C
ENDCHAR
STARTCHAR 0026
ENCODING 38
SWIDTH 630 0
DWIDTH 14 0
BBX 13 15 1 0
BITMAP
1E00
3F00
3180
2180
3180
3300
1E00
3C30
6630
C330
C1A0
C0E0
C0E0
71F0
3F38
ENDCHAR
STARTCHAR 0027
ENCODING 39
SWIDTH 180 0
DWIDTH 4 0
BBX 2 5 1 10
BITMAP
C0
C0
C0
C0
C0
ENDCHAR
STARTCHAR 0028
ENCODING 40
SWIDTH 315 0
DWIDTH 7 0
BBX 5 19 2 -3
BITMAP
18
30
30
60
60
60
C0
C0
C0
C0
C0
C0
C0
40
60
60
20
30
10
ENDCHAR
STARTCHAR 0029
ENCODING 41
SWIDTH 315 0
DWIDTH 7 0
BBX 5 19 0 -3
BITMAP
C0
60
20
30
30
18
18
18
18
18
18
18
18
18
10
30
30
60
60
ENDCHAR
STARTCHAR 002A
ENCODING 42
SWIDTH 450 0
DWIDTH 10 0
BBX 6 7 2 8
BITMAP
30
B4
DC
30
DC
B4
30
ENDCHAR
STARTCHAR 002B
ENCODING 43
SWIDTH 540 0
DWIDTH 12 0
BBX 10 11 1 0
BITMAP
0C00
0C00
0C00
0C00
FFC0
FFC0
0C00
0C00
0C00
0C00
0C00
ENDCHAR
STARTCHAR 002C
ENCODING 44
SWIDTH 225 0
DWIDTH 5 0
BBX 2 5 1 -3
BITMAP
C0
C0
C0
80
80
ENDCHAR
STARTCHAR 002D
ENCODING 45
SWIDTH 405 0
DWIDTH 9 0
BBX 7 2 1 5
BITMAP
FE
FE
ENDCHAR
STARTCHAR 002E
ENCODING 46
SWIDTH 225 0
DWIDTH 5 0
BBX 3 2 1 0
BITMAP
E0
E0
ENDCHAR
STARTCHAR 002F
ENCODING 47
SWIDTH 315 0
DWIDTH 7 0
BBX 7 19 0 -3
BITMAP
06
06
06
04
0C
0C
08
18
18
18
10
30
30
20
60
60
60
40
C0
ENDCHAR
STARTCHAR 0030
ENCODING 48
SWIDTH 585 0
DWIDTH 13 0
BBX 10 15 1 0
BITMAP
1F00
3F80
61C0
60C0
C0C0
C0C0
C040
C040
C040
C040
C0C0
C0C0
60C0
7380
3F00
ENDCHAR
STARTCHAR 0031
ENCODING 49
SWIDTH 405 0
DWIDTH 9 0
BBX 6 15 1 0
BITMAP
1C
3C
EC
CC
0C
0C
0C
0C
0C
0C
0C
0C
0C
0C
0C
ENDCHAR
STARTCHAR 0032
ENCODING 50
SWIDTH 540 0
DWIDTH 12 0
BBX 10 15 1 0
BITMAP
3E00
7F80
6180
C080
0080
0180
0180
0300
0600
0C00
1800
3800
7000
7FC0
FFC0
ENDCHAR
STARTCHAR 0033
ENCODING 51
SWIDTH 540 0
DWIDTH 12 0
BBX 10 15 1 0
BITMAP
3F00
7F80
6180
C0C0
00C0
0180
0700
1F00
0180
00C0
00C0
C0C0
C0C0
7380
3F00
ENDCHAR
STARTCHAR 0034
ENCODING 52
SWIDTH 585 0
DWIDTH 13 0
BBX 11 15 1 0
BITMAP
0380
0780
0780
0D80
1980
1980
3180
3180
6180
C180
FFE0
FFE0
0180
0180
0180
ENDCHAR
STARTCHAR 0035
ENCODING 53
SWIDTH 585 0
DWIDTH 13 0
BBX 10 15 2 0
BITMAP
FF80
FF80
C000
C000
C000
DC00
FF00
C180
8180
00C0
00C0
80C0
C180
E380
7E00
ENDCHAR
STARTCHAR 0036
ENCODING 54
SWIDTH 540 0
DWIDTH 12 0
BBX 10 15 1 0
BITMAP
1F00
3F80
60C0
60C0
C000
CE00
DF80
F1C0
E0C0
C0C0
C040
C0C0
60C0
7380
3F00
ENDCHAR
STARTCHAR 0037
ENCODING 55
SWIDTH 540 0
DWIDTH 12 0
BBX 9 15 1 0
BITMAP
FF80
FF80
0180
0180
0300
0300
0600
0600
0C00
0C00
0800
1800
1800
3000
3000
ENDCHAR
STARTCHAR 0038
ENCODING 56
SWIDTH 585 0
DWIDTH 13 0
BBX 11 15 1 0
BITMAP
1F00
3B80
60C0
60C0
60C0
60C0
3F80
3F00
61C0
C0C0
C060
C060
E0C0
71C0
3F80
ENDCHAR
STARTCHAR 0039
ENCODING 57
SWIDTH 540 0
DWIDTH 12 0
BBX 10 15 1 0
BITMAP
1F00
7F80
60C0
C0C0
C0C0
C0C0
C0C0
61C0
7F40
1EC0
00C0
C0C0
C180
7380
3F00
ENDCHAR
STARTCHAR 003A
ENCODING 58
SWIDTH 270 0
DWIDTH 6 0
BBX 2 10 2 0
BITMAP
C0
C0
00
00
00
00
00
00
C0
C0
ENDCHAR
STARTCHAR 003B
ENCODING 59
SWIDTH 270 0
DWIDTH 6 0
BBX 3 13 1 -3
BITMAP
60
60
00
00
00
00
00
00
40
C0
C0
C0
80
ENDCHAR
STARTCHAR 003C
ENCODING 60
SWIDTH 540 0
DWIDTH 12 0
BBX 9 12 2 0
BITMAP
0080
0180
0700
1C00
3800
E000
C000
E000
3800
0E00
0780
0180
ENDCHAR
STARTCHAR 003D
ENCODING 61
SWIDTH 540 0
DWIDTH 12 0
BBX 9 6 2 3
BITMAP
FF80
FF80
0000
0000
FF80
FF80
ENDCHAR
STARTCHAR 003E
ENCODING 62
SWIDTH 540 0
DWIDTH 12 0
BBX 9 11 2 1
BITMAP
C000
E000
3800
0E00
0700
0180
0700
1E00
7800
E000
8000
ENDCHAR
STARTCHAR 003F
ENCODING 63
SWIDTH 450 0
DWIDTH 10 0
BBX 9 15 1 0
BITMAP
3E00
F700
C300
C180
0300
0300
0600
0C00
1800
1800
0000
0000
0000
1800
1800
ENDCHAR
STARTCHAR 0040
ENCODING 64
SWIDTH 810 0
DWIDTH 18 0
BBX 16 17 1 -3
BITMAP
07F0
1C1C
3006
6002
4003
C7E1
C661
C421
C421
C421
C663
C7FE
4108
6000
3000
1E30
07F0
ENDCHAR
STARTCHAR 0041
ENCODING 65
SWIDTH 585 0
DWIDTH 13 0
BBX 13 15 0 0
BITMAP
0700
0700
0500
0D80
0D80
0880
18C0
18C0
1040
3FE0
3FE0
2020
6030
6030
C018
ENDCHAR
STARTCHAR 0042
ENCODING 66
SWIDTH 585 0
DWIDTH 13 0
BBX 10 15 2 0
BITMAP
FE00
FF80
C180
C180
C080
C180
C700
FF00
C1C0
C0C0
C0C0
C0C0
C0C0
FF80
FF00
ENDCHAR
STARTCHAR 0043
ENCODING 67
SWIDTH 630 0
DWIDTH 14 0
BBX 11 15 1 0
BITMAP
1F80
3FC0
6060
6060
C020
C000
C000
C000
C000
C000
C000
6060
6060
39C0
1F80
ENDCHAR
STARTCHAR 0044
ENCODING 68
SWIDTH 630 0
DWIDTH 14 0
BBX 11 15 2 0
BITMAP
FE00
FF80
C1C0
C0C0
C060
C060
C060
C060
C060
C060
C060
C0C0
C1C0
FF80
FE00
ENDCHAR
STARTCHAR 0045
ENCODING 69
SWIDTH 540 0
DWIDTH 12 0
BBX 9 15 2 0
BITMAP
FF80
FF80
C000
C000
C000
C000
C000
FF00
C000
C000
C000
C000
C000
FF80
FF80
ENDCHAR
STARTCHAR 0046
ENCODING 70
SWIDTH 495 0
DWIDTH 11 0
BBX 9 15 2 0
BITMAP
FF80
FF80
C000
C000
C000
C000
C000
FF00
FF00
C000
C000
C000
C000
C000
C000
ENDCHAR
STARTCHAR 0047
ENCODING 71
SWIDTH 630 0
DWIDTH 14 0
BBX 12 15 1 0
BITMAP
1F80
3FC0
6060
6060
C030
C000
C000
C3F0
C3F0
C030
C030
6020
6060
39C0
1F80
ENDCHAR
STARTCHAR 0048
ENCODING 72
SWIDTH 675 0
DWIDTH 15 0
BBX 11 15 2 0
BITMAP
C060
C060
C060
C060
C060
C060
FFE0
FFE0
C060
C060
C060
C060
C060
C060
C060
ENDCHAR
STARTCHAR 0049
ENCODING 73
SWIDTH 225 0
DWIDTH 5 0
BBX 2 15 2 0
BITMAP
C0
C0
C0
C0
C0
C0
C0
C0
C0
C0
C0
C0
C0
C0
C0
ENDCHAR
STARTCHAR 004A
ENCODING 74
SWIDTH 450 0
DWIDTH 10 0
BBX 9 15 0 0
BITMAP
0180
0180
0180
0180
0180
0180
0180
0180
0180
0180
0180
0180
C300
7700
3E00
ENDCHAR
STARTCHAR 004B
ENCODING 75
SWIDTH 585 0
DWIDTH 13 0
BBX 10 15 2 0
BITMAP
C0C0
C180
C300
C700
CE00
DC00
D800
FC00
EC00
C600
C700
C300
C180
C1C0
C0C0
ENDCHAR
STARTCHAR 004C
ENCODING 76
SWIDTH 495 0
DWIDTH 11 0
BBX 8 15 2 0
BITMAP
C0
C0
C0
C0
C0
C0
C0
C0
C0
C0
C0
C0
C0
FF
FF
ENDCHAR
STARTCHAR 004D
ENCODING 77
SWIDTH 765 0
DWIDTH 17 0
BBX 13 15 2 0
BITMAP
C018
C018
E018
E038
F028
F068
D068
D8C8
D8C8
CC88
CD88
C708
C708
C308
C008
ENDCHAR
STARTCHAR 004E
ENCODING 78
SWIDTH 675 0
DWIDTH 15 0
BBX 11 15 2 0
BITMAP
C060
C060
E060
F060
F060
D860
CC60
CC60
C660
C360
C360
C1E0
C0E0
C0E0
C060
ENDCHAR
STARTCHAR 004F
ENCODING 79
SWIDTH 630 0
DWIDTH 14 0
BBX 12 15 1 0
BITMAP
1F80
3FC0
7060
6070
C030
C030
C030
C030
C030
C030
C030
6030
6060
39E0
1F80
ENDCHAR
STARTCHAR 0050
ENCODING 80
SWIDTH 540 0
DWIDTH 12 0
BBX 10 15 2 0
BITMAP
FE00
FF80
C180
C0C0
C0C0
C0C0
C0C0
C380
FF00
C000
C000
C000
C000
C000
C000
ENDCHAR
STARTCHAR 0051
ENCODING 81
SWIDTH 630 0
DWIDTH 14 0
BBX 12 17 1 -2
BITMAP
1F80
3FC0
7060
6070
C030
C030
C030
C030
C030
C030
C030
6330
61E0
39C0
1FE0
0060
0030
ENDCHAR
STARTCHAR 0052
ENCODING 82
SWIDTH 585 0
DWIDTH 13 0
BBX 10 15 2 0
BITMAP
FE00
FF80
C180
C0C0
C0C0
C0C0
C1C0
FF80
FF00
C600
C300
C300
C180
C180
C0C0
ENDCHAR
STARTCHAR 0053
ENCODING 83
SWIDTH 585 0
DWIDTH 13 0
BBX 11 15 1 0
BITMAP
3F00
7F80
E0C0
C0C0
C000
E000
7800
3F00
07C0
00C0
0060
C040
C0C0
73C0
3F00
ENDCHAR
STARTCHAR 0054
ENCODING 84
SWIDTH 495 0
DWIDTH 11 0
BBX 11 15 0 0
BITMAP
FFE0
FFE0
0600
0600
0600
0600
0600
0600
0600
0600
0600
0600
0600
0600
0600
ENDCHAR
STARTCHAR 0055
ENCODING 85
SWIDTH 630 0
DWIDTH 14 0
BBX 11 15 2 0
BITMAP
8060
8060
8060
8060
8060
8060
8060
8060
8060
8060
C060
C060
C0C0
73C0
3F00
ENDCHAR
STARTCHAR 0056
ENCODING 86
SWIDTH 585 0
DWIDTH 13 0
BBX 13 15 0 0
BITMAP
C018
6030
6030
6030
3060
3060
3060
18C0
18C0
0880
0D80
0D80
0500
0700
0700
ENDCHAR
STARTCHAR 0057
ENCODING 87
SWIDTH 810 0
DWIDTH 18 0
BBX 18 15 0 0
BITMAP
C0C0C0
E0C0C0
60E180
61E180
61E180
312180
333300
333300
333300
1A1200
1E1E00
1E1E00
0E0E00
0C0C00
0C0C00
ENDCHAR
STARTCHAR 0058
ENCODING 88
SWIDTH 540 0
DWIDTH 12 0
BBX 12 15 0 0
BITMAP
E030
6060
30E0
38C0
1980
0D80
0F00
0600
0F00
0F00
1980
30C0
30C0
6060
E070
ENDCHAR
STARTCHAR 0059
ENCODING 89
SWIDTH 540 0
DWIDTH 12 0
BBX 12 15 0 0
BITMAP
C070
6060
60C0
30C0
1980
1980
0F00
0E00
0600
0600
0600
0600
0600
0600
0600
ENDCHAR
STARTCHAR 005A
ENCODING 90
SWIDTH 540 0
DWIDTH 12 0
BBX 10 15 1 0
BITMAP
FFC0
FFC0
01C0
0180
0300
0700
0600
0C00
1800
1800
3000
6000
6000
FFC0
FFC0
ENDCHAR
STARTCHAR 005B
ENCODING 91
SWIDTH 315 0
DWIDTH 7 0
BBX 5 19 2 -3
BITMAP
F8
F8
C0
C0
C0
C0
C0
C0
C0
C0
C0
C0
C0
C0
C0
C0
C0
C0
F8
ENDCHAR
STARTCHAR 005C
ENCODING 92
SWIDTH 315 0
DWIDTH 7 0
BBX 7 19 0 -3
BITMAP
C0
C0
40
60
60
20
30
30
30
10
18
18
18
0C
0C
0C
04
06
06
ENDCHAR
STARTCHAR 005D
ENCODING 93
SWIDTH 315 0
DWIDTH 7 0
BBX 5 19 0 -3
BITMAP
F8
F8
18
18
18
18
18
18
18
18
18
18
18
18
18
18
18
18
F8
ENDCHAR
STARTCHAR 005E
ENCODING 94
SWIDTH 360 0
DWIDTH 8 0
BBX 6 6 1 9
BITMAP
30
38
78
48
CC
84
ENDCHAR
STARTCHAR 005F
ENCODING 95
SWIDTH 405 0
DWIDTH 9 0
BBX 9 2 0 -3
BITMAP
FF80
FF80
ENDCHAR
STARTCHAR 0060
ENCODING 96
SWIDTH 450 0
DWIDTH 10 0
BBX 3 3 3 13
BITMAP
C0
60
20
ENDCHAR
STARTCHAR 0061
ENCODING 97
SWIDTH 495 0
DWIDTH 11 0
BBX 9 12 1 0
BITMAP
0C00
7F00
6380
C180
0180
1F80
7F80
C180
C180
C180
E780
7D80
ENDCHAR
STARTCHAR 0062
ENCODING 98
SWIDTH 585 0
DWIDTH 13 0
BBX 9 16 2 0
BITMAP
C000
C000
C000
C000
CC00
FF00
E380
C180
C180
C080
C080
C080
C180
C180
B700
9E00
ENDCHAR
STARTCHAR 0063
ENCODING 99
SWIDTH 495 0
DWIDTH 11 0
BBX 9 12 1 0
BITMAP
0C00
3F00
6380
6180
C000
C000
C000
C000
C000
6180
7B80
3F00
ENDCHAR
STARTCHAR 0064
ENCODING 100
SWIDTH 585 0
DWIDTH 13 0
BBX 10 16 1 0
BITMAP
00C0
00C0
00C0
00C0
08C0
3EC0
61C0
60C0
C0C0
C0C0
C0C0
C0C0
C0C0
61C0
73C0
3EC0
ENDCHAR
STARTCHAR 0065
ENCODING 101
SWIDTH 540 0
DWIDTH 12 0
BBX 10 12 1 0
BITMAP
0C00
3F00
6380
4180
C0C0
FFC0
FFC0
C000
C000
6180
7380
3F00
ENDCHAR
STARTCHAR 0066
ENCODING 102
SWIDTH 315 0
DWIDTH 7 0
BBX 6 16 1 0
BITMAP
1C
3C
60
60
60
F8
60
60
60
60
60
60
60
60
60
60
ENDCHAR
STARTCHAR 0067
ENCODING 103
SWIDTH 585 0
DWIDTH 13 0
BBX 10 16 1 -4
BITMAP
0800
3FC0
61C0
60C0
C0C0
C0C0
C0C0
C0C0
C0C0
61C0
7FC0
1EC0
00C0
60C0
7380
3F00
ENDCHAR
STARTCHAR 0068
ENCODING 104
SWIDTH 585 0
DWIDTH 13 0
BBX 9 16 2 0
BITMAP
C000
C000
C000
C000
CC00
FF00
E380
C180
C180
C180
C180
C180
C180
C180
C180
C180
ENDCHAR
STARTCHAR 0069
ENCODING 105
SWIDTH 225 0
DWIDTH 5 0
BBX 2 15 2 0
BITMAP
C0
C0
00
00
C0
C0
C0
C0
C0
C0
C0
C0
C0
C0
C0
ENDCHAR
STARTCHAR 006A
ENCODING 106
SWIDTH 225 0
DWIDTH 5 0
BBX 5 19 -1 -4
BITMAP
18
18
00
00
18
18
18
18
18
18
18
18
18
18
18
18
18
F0
E0
ENDCHAR
STARTCHAR 006B
ENCODING 107
SWIDTH 495 0
DWIDTH 11 0
BBX 8 16 2 0
BITMAP
C0
C0
C0
C0
C0
C7
CE
CC
D8
F0
F8
D8
CC
C6
C7
C3
ENDCHAR
STARTCHAR 006C
ENCODING 108
SWIDTH 225 0
DWIDTH 5 0
BBX 2 16 2 0
BITMAP
C0
C0
C0
C0
C0
C0
C0
C0
C0
C0
C0
C0
C0
C0
C0
C0
ENDCHAR
STARTCHAR 006D
ENCODING 109
SWIDTH 855 0
DWIDTH 19 0
BBX 15 12 2 0
BITMAP
0830
FEFC
E78E
C386
C306
C306
C306
C306
C306
C306
C306
C306
ENDCHAR
STARTCHAR 006E
ENCODING 110
SWIDTH 540 0
DWIDTH 12 0
BBX 9 12 2 0
BITMAP
0C00
FF00
E380
C180
C180
C180
C180
C180
C180
C180
C180
C180
ENDCHAR
STARTCHAR 006F
ENCODING 111
SWIDTH 540 0
DWIDTH 12 0
BBX 10 12 1 0
BITMAP
0C00
3F00
6180
60C0
C0C0
C0C0
C0C0
C0C0
C0C0
6180
7380
3F00
ENDCHAR
STARTCHAR 0070
ENCODING 112
SWIDTH 585 0
DWIDTH 13 0
BBX 9 16 2 -4
BITMAP
0C00
BF00
E380
C180
C180
C180
C180
C180
C180
C180
F700
DE00
C000
C000
C000
C000
ENDCHAR
STARTCHAR 0071
ENCODING 113
SWIDTH 585 0
DWIDTH 13 0
BBX 10 16 1 -4
BITMAP
0800
3FC0
61C0
60C0
C0C0
C0C0
C0C0
C0C0
C0C0
61C0
73C0
3EC0
00C0
00C0
00C0
00C0
ENDCHAR
STARTCHAR 0072
ENCODING 114
SWIDTH 360 0
DWIDTH 8 0
BBX 5 12 2 0
BITMAP
08
F8
E0
C0
C0
C0
C0
C0
C0
C0
C0
C0
ENDCHAR
STARTCHAR 0073
ENCODING 115
SWIDTH 495 0
DWIDTH 11 0
BBX 9 12 1 0
BITMAP
1800
7F00
E300
C100
C000
7800
3F00
0380
0180
C180
E300
7E00
ENDCHAR
STARTCHAR 0074
ENCODING 116
SWIDTH 315 0
DWIDTH 7 0
BBX 6 14 1 0
BITMAP
60
60
60
F8
60
60
60
60
60
60
60
60
30
3C
ENDCHAR
STARTCHAR 0075
ENCODING 117
SWIDTH 540 0
DWIDTH 12 0
BBX 10 11 1 0
BITMAP
C0C0
C0C0
C0C0
C0C0
C0C0
C0C0
C0C0
C0C0
61C0
7FC0
3EC0
ENDCHAR
STARTCHAR 0076
ENCODING 118
SWIDTH 450 0
DWIDTH 10 0
BBX 10 11 0 0
BITMAP
C0C0
6080
6180
6180
3100
3300
3300
1E00
1E00
0E00
0C00
ENDCHAR
STARTCHAR 0077
ENCODING 119
SWIDTH 720 0
DWIDTH 16 0
BBX 14 11 1 0
BITMAP
C30C
C30C
C78C
C788
4498
6CD8
6CD8
6850
2850
3870
3870
ENDCHAR
STARTCHAR 0078
ENCODING 120
SWIDTH 495 0
DWIDTH 11 0
BBX 9 11 1 0
BITMAP
C180
6300
6600
3600
1C00
1C00
3C00
3600
6300
C300
C180
ENDCHAR
STARTCHAR 0079
ENCODING 121
SWIDTH 450 0
DWIDTH 10 0
BBX 10 15 0 -4
BITMAP
C0C0
60C0
6180
6180
3180
3300
1300
1B00
1E00
0E00
0C00
0C00
0C00
7800
7000
ENDCHAR
STARTCHAR 007A
ENCODING 122
SWIDTH 450 0
DWIDTH 10 0
BBX 9 11 1 0
BITMAP
FF80
0300
0600
0600
0C00
1800
3000
3000
6000
FF80
FF80
ENDCHAR
STARTCHAR 007B
ENCODING 123
SWIDTH 315 0
DWIDTH 7 0
BBX 7 19 0 -3
BITMAP
06
1E
30
30
30
30
30
30
30
C0
F0
30
30
30
30
30
30
18
1E
ENDCHAR
STARTCHAR 007C
ENCODING 124
SWIDTH 315 0
DWIDTH 7 0
BBX 1 19 3 -3
BITMAP
80
80
80
80
80
80
80
80
80
80
80
80
80
80
80
80
80
80
80
ENDCHAR
STARTCHAR 007D
ENCODING 125
SWIDTH 315 0
DWIDTH 7 0
BBX 7 19 0 -3
BITMAP
C0
F0
18
18
18
18
18
18
1C
06
0E
18
18
18
18
18
18
18
F0
ENDCHAR
STARTCHAR 007E
ENCODING 126
SWIDTH 540 0
DWIDTH 12 0
BBX 10 4 1 5
BITMAP
7840
CCC0
C7C0
0300
ENDCHAR
STARTCHAR 00A0
ENCODING 160
SWIDTH 180 0
DWIDTH 4 0
BBX 0 0 0 0
BITMAP
ENDCHAR
STARTCHAR 00A1
ENCODING 161
SWIDTH 270 0
DWIDTH 6 0
BBX 2 15 2 -3
BITMAP
C0
C0
00
00
00
C0
C0
C0
C0
C0
C0
C0
C0
C0
C0
ENDCHAR
STARTCHAR 00A2
ENCODING 162
SWIDTH 540 0
DWIDTH 12 0
BBX 9 15 2 0
BITMAP
0800
0800
3E00
7F00
CB80
C800
8800
8800
8800
C800
C980
7F00
3E00
0800
0800
ENDCHAR
STARTCHAR 00A3
ENCODING 163
SWIDTH 540 0
DWIDTH 12 0
BBX 10 15 1 0
BITMAP
0FC0
1FC0
3000
3000
3000
3000
3000
FF80
1800
1800
1800
1800
3000
FFC0
FFC0
ENDCHAR
STARTCHAR 00A4
ENCODING 164
SWIDTH 540 0
DWIDTH 12 0
BBX 10 10 1 2
BITMAP
C040
7EC0
3380
6180
6080
6080
2180
3B80
7EC0
C040
ENDCHAR
STARTCHAR 00A5
ENCODING 165
SWIDTH 540 0
DWIDTH 12 0
BBX 11 15 1 0
BITMAP
C060
C0C0
61C0
6180
3300
3300
1E00
0E00
7F80
0C00
0C00
7F80
0C00
0C00
0C00
ENDCHAR
STARTCHAR 00A6
ENCODING 166
SWIDTH 315 0
DWIDTH 7 0
BBX 1 19 3 -3
BITMAP
80
80
80
80
80
80
80
80
00
00
00
00
80
80
80
80
80
80
80
ENDCHAR
STARTCHAR 00A7
ENCODING 167
SWIDTH 450 0
DWIDTH 10 0
BBX 8 18 1 -3
BITMAP
3E
67
C3
C0
C0
78
7E
C3
C3
C3
E3
3E
07
03
C3
C3
7E
3C
ENDCHAR
STARTCHAR 00A8
ENCODING 168
SWIDTH 450 0
DWIDTH 10 0
BBX 6 2 2 13
BITMAP
CC
CC
ENDCHAR
STARTCHAR 00A9
ENCODING 169
SWIDTH 810 0
DWIDTH 18 0
BBX 16 17 1 -1
BITMAP
0180
0FF0
3818
2004
4186
47E2
C423
8403
8C03
8C03
C423
C7E2
43C2
6004
300C
0FF0
03C0
ENDCHAR
STARTCHAR 00AA
ENCODING 170
SWIDTH 315 0
DWIDTH 7 0
BBX 6 7 0 8
BITMAP
38
6C
04
7C
44
C4
7C
ENDCHAR
STARTCHAR 00AB
ENCODING 171
SWIDTH 630 0
DWIDTH 14 0
BBX 10 8 2 2
BITMAP
31C0
6180
4300
C600
C600
6300
2180
30C0
ENDCHAR
STARTCHAR 00AC
ENCODING 172
SWIDTH 540 0
DWIDTH 12 0
BBX 10 6 1 1
BITMAP
FFC0
FFC0
0040
0040
0040
0040
ENDCHAR
STARTCHAR 00AE
ENCODING 174
SWIDTH 495 0
DWIDTH 11 0
BBX 9 9 1 6
BITMAP
3E00
4100
9C80
9480
9C80
9480
C100
6300
1C00
ENDCHAR
STARTCHAR 00AF
ENCODING 175
SWIDTH 450 0
DWIDTH 10 0
BBX 6 2 2 13
BITMAP
FC
FC
ENDCHAR
STARTCHAR 00B0
ENCODING 176
SWIDTH 270 0
DWIDTH 6 0
BBX 4 5 1 10
BITMAP
E0
90
90
90
60
ENDCHAR
STARTCHAR 00B1
ENCODING 177
SWIDTH 540 0
DWIDTH 12 0
BBX 10 11 1 1
BITMAP
0C00
0C00
0C00
FFC0
FFC0
0C00
0C00
0C00
0000
FFC0
FFC0
ENDCHAR
STARTCHAR 00B2
ENCODING 178
SWIDTH 270 0
DWIDTH 6 0
BBX 6 8 0 11
BITMAP
30
78
CC
18
30
60
7C
7C
ENDCHAR
STARTCHAR 00B3
ENCODING 179
SWIDTH 270 0
DWIDTH 6 0
BBX 6 8 0 11
BITMAP
30
7C
CC
38
3C
CC
7C
30
ENDCHAR
STARTCHAR 00B4
ENCODING 180
SWIDTH 450 0
DWIDTH 10 0
BBX 3 3 4 13
BITMAP
60
C0
80
ENDCHAR
STARTCHAR 00B5
ENCODING 181
SWIDTH 585 0
DWIDTH 13 0
BBX 10 15 2 -4
BITMAP
C180
C180
C180
C180
C180
C180
C180
C180
C380
FF80
FCC0
C000
C000
C000
C000
ENDCHAR
STARTCHAR 00B6
ENCODING 182
SWIDTH 585 0
DWIDTH 13 0
BBX 10 17 1 -2
BITMAP
1E40
7E40
7E40
FE40
FE40
FE40
FE40
7E40
3E40
0640
0640
0640
0640
0640
0640
0640
0640
ENDCHAR
STARTCHAR 00B7
ENCODING 183
SWIDTH 315 0
DWIDTH 7 0
BBX 3 2 2 5
BITMAP
C0
E0
ENDCHAR
STARTCHAR 00B8
ENCODING 184
SWIDTH 450 0
DWIDTH 10 0
BBX 4 5 3 -5
BITMAP
60
40
70
10
F0
ENDCHAR
STARTCHAR 00B9
ENCODING 185
SWIDTH 225 0
DWIDTH 5 0
BBX 4 8 0 11
BITMAP
30
F0
B0
30
30
30
30
30
ENDCHAR
STARTCHAR 00BA
ENCODING 186
SWIDTH 360 0
DWIDTH 8 0
BBX 6 7 1 8
BITMAP
78
DC
8C
8C
8C
CC
F8
ENDCHAR
STARTCHAR 00BB
ENCODING 187
SWIDTH 630 0
DWIDTH 14 0
BBX 10 8 2 2
BITMAP
C600
6300
3180
18C0
18C0
3180
6300
C600
ENDCHAR
STARTCHAR 00BC
ENCODING 188
SWIDTH 675 0
DWIDTH 15 0
BBX 15 15 0 0
BITMAP
300C
F018
B010
3030
3060
30C0
3080
0180
031C
061C
0C3C
086C
187E
307E
600C
ENDCHAR
STARTCHAR 00BD
ENCODING 189
SWIDTH 675 0
DWIDTH 15 0
BBX 15 15 0 0
BITMAP
300C
F018
B030
3020
3060
30C0
3180
0100
033C
0636
0C06
180C
1818
3030
603E
ENDCHAR
STARTCHAR 00BE
ENCODING 190
SWIDTH 675 0
DWIDTH 15 0
BBX 15 15 0 0
BITMAP
780C
4C18
0C10
3030
0C60
CCC0
7880
0180
031C
0614
0434
0C24
187E
307E
2004
ENDCHAR
STARTCHAR 00BF
ENCODING 191
SWIDTH 450 0
DWIDTH 10 0
BBX 9 15 1 -3
BITMAP
1800
1C00
0000
0000
0000
0800
1800
1800
7000
E000
C000
C180
C300
E700
7E00
ENDCHAR
STARTCHAR 00C0
ENCODING 192
SWIDTH 585 0
DWIDTH 13 0
BBX 13 19 0 0
BITMAP
0C00
0600
0200
0000
0700
0700
0500
0D80
0D80
0880
18C0
18C0
1040
3FE0
3FE0
2020
6030
6030
C018
ENDCHAR
STARTCHAR 00C1
ENCODING 193
SWIDTH 585 0
DWIDTH 13 0
BBX 13 19 0 0
BITMAP
0180
0300
0200
0000
0700
0700
0500
0D80
0D80
0880
18C0
18C0
1040
3FE0
3FE0
2020
6030
6030
C018
ENDCHAR
STARTCHAR 00C2
ENCODING 194
SWIDTH 585 0
DWIDTH 13 0
BBX 13 20 0 0
BITMAP
0200
0700
0D80
0880
0000
0700
0700
0500
0D80
0D80
0880
18C0
18C0
1040
3FE0
3FE0
2020
6030
6030
C018
ENDCHAR
STARTCHAR 00C3
ENCODING 195
SWIDTH 585 0
DWIDTH 13 0
BBX 13 18 0 0
BITMAP
0E80
0B80
0000
0700
0700
0500
0D80
0D80
0880
18C0
18C0
1040
3FE0
3FE0
2020
6030
6030
C018
ENDCHAR
STARTCHAR 00C4
ENCODING 196
SWIDTH 585 0
DWIDTH 13 0
BBX 13 18 0 0
BITMAP
0D80
0D80
0000
0700
0700
0500
0D80
0D80
0880
18C0
18C0
1040
3FE0
3FE0
2020
6030
6030
C018
ENDCHAR
STARTCHAR 00C5
ENCODING 197
SWIDTH 585 0
DWIDTH 13 0
BBX 13 20 0 0
BITMAP
0700
0880
0500
0700
0000
0700
0700
0500
0D80
0D80
0880
18C0
18C0
1040
3FE0
3FE0
2020
6030
6030
C018
ENDCHAR
STARTCHAR 00C6
ENCODING 198
SWIDTH 900 0
DWIDTH 20 0
BBX 19 15 0 0
BITMAP
00FFE0
01FFE0
01B000
033000
033000
063000
063000
0C3FC0
0C3000
1FF000
183000
303000
303000
603FE0
E03FE0
ENDCHAR
STARTCHAR 00C7
ENCODING 199
SWIDTH 630 0
DWIDTH 14 0
BBX 11 20 1 -5
BITMAP
1F80
3FC0
6060
6060
C020
C000
C000
C000
C000
C000
C000
6060
6060
39C0
1F80
0400
0400
0700
0100
0F00
ENDCHAR
STARTCHAR 00C8
ENCODING 200
SWIDTH 540 0
DWIDTH 12 0
BBX 9 19 2 0
BITMAP
3000
1000
1800
0000
FF80
FF80
C000
C000
C000
C000
C000
FF00
C000
C000
C000
C000
C000
FF80
FF80
ENDCHAR
STARTCHAR 00C9
ENCODING 201
SWIDTH 540 0
DWIDTH 12 0
BBX 9 19 2 0
BITMAP
0600
0C00
1800
0000
FF80
FF80
C000
C000
C000
C000
C000
FF00
C000
C000
C000
C000
C000
FF80
FF80
ENDCHAR
STARTCHAR 00CA
ENCODING 202
SWIDTH 540 0
DWIDTH 12 0
BBX 9 20 2 0
BITMAP
0800
1C00
3400
6600
0000
FF80
FF80
C000
C000
C000
C000
C000
FF00
C000
C000
C000
C000
C000
FF80
FF80
ENDCHAR
STARTCHAR 00CB
ENCODING 203
SWIDTH 540 0
DWIDTH 12 0
BBX 9 18 2 0
BITMAP
2600
2600
0000
FF80
FF80
C000
C000
C000
C000
C000
FF00
C000
C000
C000
C000
C000
FF80
FF80
ENDCHAR
STARTCHAR 00CC
ENCODING 204
SWIDTH 225 0
DWIDTH 5 0
BBX 4 19 0 0
BITMAP
C0
60
20
00
30
30
30
30
30
30
30
30
30
30
30
30
30
30
30
ENDCHAR
STARTCHAR 00CD
ENCODING 205
SWIDTH 225 0
DWIDTH 5 0
BBX 3 19 2 0
BITMAP
60
40
80
00
C0
C0
C0
C0
C0
C0
C0
C0
C0
C0
C0
C0
C0
C0
C0
ENDCHAR
STARTCHAR 00CE
ENCODING 206
SWIDTH 225 0
DWIDTH 5 0
BBX 5 20 0 0
BITMAP
20
70
58
88
00
30
30
30
30
30
30
30
30
30
30
30
30
30
30
30
ENDCHAR
STARTCHAR 00CF
ENCODING 207
SWIDTH 225 0
DWIDTH 5 0
BBX 5 18 0 0
BITMAP
D8
C8
00
30
30
30
30
30
30
30
30
30
30
30
30
30
30
30
ENDCHAR
STARTCHAR 00D0
ENCODING 208
SWIDTH 675 0
DWIDTH 15 0
BBX 12 15 1 0
BITMAP
7F00
7FC0
60E0
6060
6030
6030
6030
FE30
6030
6030
6030
6060
60E0
7FC0
7F00
ENDCHAR
STARTCHAR 00D1
ENCODING 209
SWIDTH 675 0
DWIDTH 15 0
BBX 11 18 2 0
BITMAP
1D00
3700
0000
C060
C060
E060
F060
F060
D860
CC60
CC60
C660
C360
C360
C1E0
C0E0
C0E0
C060
ENDCHAR
STARTCHAR 00D2
ENCODING 210
SWIDTH 630 0
DWIDTH 14 0
BBX 12 19 1 0
BITMAP
0C00
0400
0600
0000
1F80
3FC0
7060
6070
C030
C030
C030
C030
C030
C030
C030
6030
6060
39E0
1F80
ENDCHAR
STARTCHAR 00D3
ENCODING 211
SWIDTH 630 0
DWIDTH 14 0
BBX 12 19 1 0
BITMAP
0180
0300
0600
0000
1F80
3FC0
7060
6070
C030
C030
C030
C030
C030
C030
C030
6030
6060
39E0
1F80
ENDCHAR
STARTCHAR 00D4
ENCODING 212
SWIDTH 630 0
DWIDTH 14 0
BBX 12 20 1 0
BITMAP
0600
0600
0D00
1980
0000
1F80
3FC0
7060
6070
C030
C030
C030
C030
C030
C030
C030
6030
6060
39E0
1F80
ENDCHAR
STARTCHAR 00D5
ENCODING 213
SWIDTH 630 0
DWIDTH 14 0
BBX 12 18 1 0
BITMAP
1E80
1300
0000
1F80
3FC0
7060
6070
C030
C030
C030
C030
C030
C030
C030
6030
6060
39E0
1F80
ENDCHAR
STARTCHAR 00D6
ENCODING 214
SWIDTH 630 0
DWIDTH 14 0
BBX 12 18 1 0
BITMAP
0980
0900
0000
1F80
3FC0
7060
6070
C030
C030
C030
C030
C030
C030
C030
6030
6060
39E0
1F80
ENDCHAR
STARTCHAR 00D7
ENCODING 215
SWIDTH 540 0
DWIDTH 12 0
BBX 10 10 1 0
BITMAP
40C0
61C0
3380
1F00
0E00
1E00
3B00
7180
E0C0
4000
ENDCHAR
STARTCHAR 00D8
ENCODING 216
SWIDTH 630 0
DWIDTH 14 0
BBX 12 15 1 0
BITMAP
1F90
3FF0
7060
60F0
C0B0
C1B0
C330
C630
CC30
C830
D830
7030
6060
F9E0
9F80
ENDCHAR
STARTCHAR 00D9
ENCODING 217
SWIDTH 630 0
DWIDTH 14 0
BBX 11 19 2 0
BITMAP
1800
0800
0400
0000
8060
8060
8060
8060
8060
8060
8060
8060
8060
8060
C060
C060
C0C0
73C0
3F00
ENDCHAR
STARTCHAR 00DA
ENCODING 218
SWIDTH 630 0
DWIDTH 14 0
BBX 11 19 2 0
BITMAP
0300
0600
0C00
0000
8060
8060
8060
8060
8060
8060
8060
8060
8060
8060
C060
C060
C0C0
73C0
3F00
ENDCHAR
STARTCHAR 00DB
ENCODING 219
SWIDTH 630 0
DWIDTH 14 0
BBX 11 20 2 0
BITMAP
0400
0E00
1A00
3300
0000
8060
8060
8060
8060
8060
8060
8060
8060
8060
8060
C060
C060
C0C0
73C0
3F00
ENDCHAR
STARTCHAR 00DC
ENCODING 220
SWIDTH 630 0
DWIDTH 14 0
BBX 11 18 2 0
BITMAP
1300
1300
0000
8060
8060
8060
8060
8060
8060
8060
8060
8060
8060
C060
C060
C0C0
73C0
3F00
ENDCHAR
STARTCHAR 00DD
ENCODING 221
SWIDTH 540 0
DWIDTH 12 0
BBX 12 19 0 0
BITMAP
0300
0200
0600
0000
C070
6060
60C0
30C0
1980
1980
0F00
0E00
0600
0600
0600
0600
0600
0600
0600
ENDCHAR
STARTCHAR 00DE
ENCODING 222
SWIDTH 540 0
DWIDTH 12 0
BBX 10 15 2 0
BITMAP
C000
C000
C000
FE00
FF80
C180
C0C0
C0C0
C0C0
C380
FF00
C000
C000
C000
C000
ENDCHAR
STARTCHAR 00DF
ENCODING 223
SWIDTH 585 0
DWIDTH 13 0
BBX 10 16 2 0
BITMAP
1800
7F00
E300
C180
C180
C180
C300
CE00
CF00
C1C0
C0C0
C0C0
C0C0
C0C0
C380
CF00
ENDCHAR
STARTCHAR 00E0
ENCODING 224
SWIDTH 495 0
DWIDTH 11 0
BBX 9 16 1 0
BITMAP
3000
1000
0800
0000
0C00
7F00
6380
C180
0180
1F80
7F80
C180
C180
C180
E780
7D80
ENDCHAR
STARTCHAR 00E1
ENCODING 225
SWIDTH 495 0
DWIDTH 11 0
BBX 9 16 1 0
BITMAP
0300
0600
0C00
0000
0C00
7F00
6380
C180
0180
1F80
7F80
C180
C180
C180
E780
7D80
ENDCHAR
STARTCHAR 00E2
ENCODING 226
SWIDTH 495 0
DWIDTH 11 0
BBX 9 16 1 0
BITMAP
0C00
1400
3200
0000
0C00
7F00
6380
C180
0180
1F80
7F80
C180
C180
C180
E780
7D80
ENDCHAR
STARTCHAR 00E3
ENCODING 227
SWIDTH 495 0
DWIDTH 11 0
BBX 9 15 1 0
BITMAP
3B00
6E00
0000
0C00
7F00
6380
C180
0180
1F80
7F80
C180
C180
C180
E780
7D80
ENDCHAR
STARTCHAR 00E4
ENCODING 228
SWIDTH 495 0
DWIDTH 11 0
BBX 9 15 1 0
BITMAP
3300
3300
0000
0C00
7F00
6380
C180
0180
1F80
7F80
C180
C180
C180
E780
7D80
ENDCHAR
STARTCHAR 00E5
ENCODING 229
SWIDTH 495 0
DWIDTH 11 0
BBX 9 17 1 0
BITMAP
0C00
1200
1200
1C00
0000
0C00
7F00
6380
C180
0180
1F80
7F80
C180
C180
C180
E780
7D80
ENDCHAR
STARTCHAR 00E6
ENCODING 230
SWIDTH 855 0
DWIDTH 19 0
BBX 16 12 1 0
BITMAP
0C18
7F7E
63C7
C183
0181
3FFF
7FFF
C180
C180
C1C3
E7E7
7C7E
ENDCHAR
STARTCHAR 00E7
ENCODING 231
SWIDTH 495 0
DWIDTH 11 0
BBX 9 17 1 -5
BITMAP
0C00
3F00
6380
6180
C000
C000
C000
C000
C000
6180
7B80
3F00
0800
0C00
0200
0200
1E00
ENDCHAR
STARTCHAR 00E8
ENCODING 232
SWIDTH 540 0
DWIDTH 12 0
BBX 10 16 1 0
BITMAP
3000
1800
0800
0000
0C00
3F00
6380
4180
C0C0
FFC0
FFC0
C000
C000
6180
7380
3F00
ENDCHAR
STARTCHAR 00E9
ENCODING 233
SWIDTH 540 0
DWIDTH 12 0
BBX 10 16 1 0
BITMAP
0300
0600
0C00
0000
0C00
3F00
6380
4180
C0C0
FFC0
FFC0
C000
C000
6180
7380
3F00
ENDCHAR
STARTCHAR 00EA
ENCODING 234
SWIDTH 540 0
DWIDTH 12 0
BBX 10 16 1 0
BITMAP
0C00
1E00
3200
0000
0C00
3F00
6380
4180
C0C0
FFC0
FFC0
C000
C000
6180
7380
3F00
ENDCHAR
STARTCHAR 00EB
ENCODING 235
SWIDTH 540 0
DWIDTH 12 0
BBX 10 15 1 0
BITMAP
3300
3300
0000
0C00
3F00
6380
4180
C0C0
FFC0
FFC0
C000
C000
6180
7380
3F00
ENDCHAR
STARTCHAR 00EC
ENCODING 236
SWIDTH 225 0
DWIDTH 5 0
BBX 4 16 0 0
BITMAP
C0
40
20
00
00
30
30
30
30
30
30
30
30
30
30
30
ENDCHAR
STARTCHAR 00ED
ENCODING 237
SWIDTH 225 0
DWIDTH 5 0
BBX 3 16 2 0
BITMAP
20
60
C0
00
00
C0
C0
C0
C0
C0
C0
C0
C0
C0
C0
C0
ENDCHAR
STARTCHAR 00EE
ENCODING 238
SWIDTH 225 0
DWIDTH 5 0
BBX 5 16 0 0
BITMAP
30
50
C8
00
00
30
30
30
30
30
30
30
30
30
30
30
ENDCHAR
STARTCHAR 00EF
ENCODING 239
SWIDTH 225 0
DWIDTH 5 0
BBX 6 15 0 0
BITMAP
CC
CC
00
00
30
30
30
30
30
30
30
30
30
30
30
ENDCHAR
STARTCHAR 00F0
ENCODING 240
SWIDTH 540 0
DWIDTH 12 0
BBX 10 16 1 0
BITMAP
0C00
07C0
0F00
1980
0180
1E80
3FC0
61C0
C0C0
C0C0
C0C0
C0C0
C0C0
6180
7380
3F00
ENDCHAR
STARTCHAR 00F1
ENCODING 241
SWIDTH 540 0
DWIDTH 12 0
BBX 9 15 2 0
BITMAP
7A00
4E00
0000
0C00
FF00
E380
C180
C180
C180
C180
C180
C180
C180
C180
C180
ENDCHAR
STARTCHAR 00F2
ENCODING 242
SWIDTH 540 0
DWIDTH 12 0
BBX 10 16 1 0
BITMAP
3000
1800
0C00
0000
0C00
3F00
6180
60C0
C0C0
C0C0
C0C0
C0C0
C0C0
6180
7380
3F00
ENDCHAR
STARTCHAR 00F3
ENCODING 243
SWIDTH 540 0
DWIDTH 12 0
BBX 10 16 1 0
BITMAP
0300
0600
0400
0000
0C00
3F00
6180
60C0
C0C0
C0C0
C0C0
C0C0
C0C0
6180
7380
3F00
ENDCHAR
STARTCHAR 00F4
ENCODING 244
SWIDTH 540 0
DWIDTH 12 0
BBX 10 16 1 0
BITMAP
0C00
1E00
1300
0000
0C00
3F00
6180
60C0
C0C0
C0C0
C0C0
C0C0
C0C0
6180
7380
3F00
ENDCHAR
STARTCHAR 00F5
ENCODING 245
SWIDTH 540 0
DWIDTH 12 0
BBX 10 15 1 0
BITMAP
3900
2700
0000
0C00
3F00
6180
60C0
C0C0
C0C0
C0C0
C0C0
C0C0
6180
7380
3F00
ENDCHAR
STARTCHAR 00F6
ENCODING 246
SWIDTH 540 0
DWIDTH 12 0
BBX 10 15 1 0
BITMAP
3300
1300
0000
0C00
3F00
6180
60C0
C0C0
C0C0
C0C0
C0C0
C0C0
6180
7380
3F00
ENDCHAR
STARTCHAR 00F7
ENCODING 247
SWIDTH 540 0
DWIDTH 12 0
BBX 10 10 1 1
BITMAP
0C00
0C00
0000
0000
FFC0
FFC0
0000
0000
0C00
0C00
ENDCHAR
STARTCHAR 00F8
ENCODING 248
SWIDTH 540 0
DWIDTH 12 0
BBX 10 12 1 -1
BITMAP
0CC0
3F80
6180
63C0
C2C0
C4C0
CCC0
D8C0
D0C0
6180
7380
FF00
ENDCHAR
STARTCHAR 00F9
ENCODING 249
SWIDTH 540 0
DWIDTH 12 0
BBX 10 16 1 0
BITMAP
3000
1800
0C00
0000
0000
C0C0
C0C0
C0C0
C0C0
C0C0
C0C0
C0C0
C0C0
61C0
7FC0
3EC0
ENDCHAR
STARTCHAR 00FA
ENCODING 250
SWIDTH 540 0
DWIDTH 12 0
BBX 10 16 1 0
BITMAP
0300
0600
0400
0000
0000
C0C0
C0C0
C0C0
C0C0
C0C0
C0C0
C0C0
C0C0
61C0
7FC0
3EC0
ENDCHAR
STARTCHAR 00FB
ENCODING 251
SWIDTH 540 0
DWIDTH 12 0
BBX 10 16 1 0
BITMAP
0C00
1E00
1300
0000
0000
C0C0
C0C0
C0C0
C0C0
C0C0
C0C0
C0C0
C0C0
61C0
7FC0
3EC0
ENDCHAR
STARTCHAR 00FC
ENCODING 252
SWIDTH 540 0
DWIDTH 12 0
BBX 10 15 1 0
BITMAP
1300
1300
0000
0000
C0C0
C0C0
C0C0
C0C0
C0C0
C0C0
C0C0
C0C0
61C0
7FC0
3EC0
ENDCHAR
STARTCHAR 00FD
ENCODING 253
SWIDTH 450 0
DWIDTH 10 0
BBX 10 20 0 -4
BITMAP
0300
0200
0400
0000
0000
C0C0
60C0
6180
6180
3180
3300
1300
1B00
1E00
0E00
0C00
0C00
0C00
7800
7000
ENDCHAR
STARTCHAR 00FE
ENCODING 254
SWIDTH 585 0
DWIDTH 13 0
BBX 9 20 2 -4
BITMAP
C000
C000
C000
C000
CC00
FF00
E380
C180
C180
C180
C180
C180
C180
C180
F700
DE00
C000
C000
C000
C000
ENDCHAR
STARTCHAR 00FF
ENCODING 255
SWIDTH 450 0
DWIDTH 10 0
BBX 10 19 0 -4
BITMAP
1300
1300
0000
0000
C0C0
60C0
6180
6180
3180
3300
1300
1B00
1E00
0E00
0C00
0C00
0C00
7800
7000
ENDCHAR
STARTCHAR 0100
ENCODING 256
SWIDTH 585 0
DWIDTH 13 0
BBX 13 18 0 0
BITMAP
0F80
0F80
0000
0700
0700
0500
0D80
0D80
0880
18C0
18C0
1040
3FE0
3FE0
2020
6030
6030
C018
ENDCHAR
STARTCHAR 0101
ENCODING 257
SWIDTH 495 0
DWIDTH 11 0
BBX 9 15 1 0
BITMAP
3F00
3F00
0000
0C00
7F00
6380
C180
0180
1F80
7F80
C180
C180
C180
E780
7D80
ENDCHAR
STARTCHAR 0102
ENCODING 258
SWIDTH 585 0
DWIDTH 13 0
BBX 13 19 0 0
BITMAP
18C0
0D80
0700
0000
0700
0700
0500
0D80
0D80
0880
18C0
18C0
1040
3FE0
3FE0
2020
6030
6030
C018
ENDCHAR
STARTCHAR 0103
ENCODING 259
SWIDTH 495 0
DWIDTH 11 0
BBX 9 16 1 0
BITMAP
2100
2300
1E00
0000
0C00
7F00
6380
C180
0180
1F80
7F80
C180
C180
C180
E780
7D80
ENDCHAR
STARTCHAR 0104
ENCODING 260
SWIDTH 585 0
DWIDTH 13 0
BBX 13 19 0 -4
BITMAP
0700
0700
0500
0D80
0D80
0880
18C0
18C0
1040
3FE0
3FE0
2020
6030
6030
C018
0060
0060
0060
0038
ENDCHAR
STARTCHAR 0105
ENCODING 261
SWIDTH 495 0
DWIDTH 11 0
BBX 9 16 1 -4
BITMAP
0C00
7F00
6380
C180
0180
1F80
7F80
C180
C180
C180
E780
7D80
0300
0600
0600
0380
ENDCHAR
STARTCHAR 0106
ENCODING 262
SWIDTH 630 0
DWIDTH 14 0
BBX 11 19 1 0
BITMAP
0180
0200
0600
0000
1F80
3FC0
6060
6060
C020
C000
C000
C000
C000
C000
C000
6060
6060
39C0
1F80
ENDCHAR
STARTCHAR 0107
ENCODING 263
SWIDTH 495 0
DWIDTH 11 0
BBX 9 16 1 0
BITMAP
0300
0600
0400
0000
0C00
3F00
6380
6180
C000
C000
C000
C000
C000
6180
7B80
3F00
ENDCHAR
STARTCHAR 0108
ENCODING 264
SWIDTH 630 0
DWIDTH 14 0
BBX 11 20 1 0
BITMAP
0600
0600
0900
1980
0000
1F80
3FC0
6060
6060
C020
C000
C000
C000
C000
C000
C000
6060
6060
39C0
1F80
ENDCHAR
STARTCHAR 0109
ENCODING 265
SWIDTH 495 0
DWIDTH 11 0
BBX 9 16 1 0
BITMAP
0C00
1E00
1200
0000
0C00
3F00
6380
6180
C000
C000
C000
C000
C000
6180
7B80
3F00
ENDCHAR
STARTCHAR 010A
ENCODING 266
SWIDTH 630 0
DWIDTH 14 0
BBX 11 19 1 0
BITMAP
0600
0600
0000
0000
1F80
3FC0
6060
6060
C020
C000
C000
C000
C000
C000
C000
6060
6060
39C0
1F80
ENDCHAR
STARTCHAR 010B
ENCODING 267
SWIDTH 495 0
DWIDTH 11 0
BBX 9 15 1 0
BITMAP
0C00
0C00
0000
0C00
3F00
6380
6180
C000
C000
C000
C000
C000
6180
7B80
3F00
ENDCHAR
STARTCHAR 010C
ENCODING 268
SWIDTH 630 0
DWIDTH 14 0
BBX 11 20 1 0
BITMAP
1980
0900
0600
0600
0000
1F80
3FC0
6060
6060
C020
C000
C000
C000
C000
C000
C000
6060
6060
39C0
1F80
ENDCHAR
STARTCHAR 010D
ENCODING 269
SWIDTH 495 0
DWIDTH 11 0
BBX 9 16 1 0
BITMAP
1200
1E00
0C00
0000
0C00
3F00
6380
6180
C000
C000
C000
C000
C000
6180
7B80
3F00
ENDCHAR
STARTCHAR 010E
ENCODING 270
SWIDTH 630 0
DWIDTH 14 0
BBX 11 20 2 0
BITMAP
2200
3400
1C00
0800
0000
FE00
FF80
C1C0
C0C0
C060
C060
C060
C060
C060
C060
C060
C0C0
C1C0
FF80
FE00
ENDCHAR
STARTCHAR 010F
ENCODING 271
SWIDTH 675 0
DWIDTH 15 0
BBX 14 16 1 0
BITMAP
00CC
00CC
00C8
00C8
08C8
3EC8
61C0
60C0
C0C0
C0C0
C0C0
C0C0
C0C0
61C0
73C0
3EC0
ENDCHAR
STARTCHAR 0110
ENCODING 272
SWIDTH 675 0
DWIDTH 15 0
BBX 12 15 1 0
BITMAP
7F00
7FC0
60E0
6060
6030
6030
6030
FE30
6030
6030
6030
6060
60E0
7FC0
7F00
ENDCHAR
STARTCHAR 0111
ENCODING 273
SWIDTH 585 0
DWIDTH 13 0
BBX 11 16 1 0
BITMAP
00C0
00C0
07E0
00C0
08C0
3EC0
61C0
60C0
C0C0
C0C0
C0C0
C0C0
C0C0
61C0
73C0
3EC0
ENDCHAR
STARTCHAR 0112
ENCODING 274
SWIDTH 540 0
DWIDTH 12 0
BBX 9 18 2 0
BITMAP
7E00
7E00
0000
FF80
FF80
C000
C000
C000
C000
C000
FF00
C000
C000
C000
C000
C000
FF80
FF80
ENDCHAR
STARTCHAR 0113
ENCODING 275
SWIDTH 540 0
DWIDTH 12 0
BBX 10 15 1 0
BITMAP
3F00
3F00
0000
0C00
3F00
6380
4180
C0C0
FFC0
FFC0
C000
C000
6180
7380
3F00
ENDCHAR
STARTCHAR 0114
ENCODING 276
SWIDTH 540 0
DWIDTH 12 0
BBX 9 19 2 0
BITMAP
4200
2600
1C00
0000
FF80
FF80
C000
C000
C000
C000
C000
FF00
C000
C000
C000
C000
C000
FF80
FF80
ENDCHAR
STARTCHAR 0115
ENCODING 277
SWIDTH 540 0
DWIDTH 12 0
BBX 10 16 1 0
BITMAP
2100
3300
1E00
0000
0C00
3F00
6380
4180
C0C0
FFC0
FFC0
C000
C000
6180
7380
3F00
ENDCHAR
STARTCHAR 0116
ENCODING 278
SWIDTH 540 0
DWIDTH 12 0
BBX 9 19 2 0
BITMAP
1800
1800
0000
0000
FF80
FF80
C000
C000
C000
C000
C000
FF00
C000
C000
C000
C000
C000
FF80
FF80
ENDCHAR
STARTCHAR 0117
ENCODING 279
SWIDTH 540 0
DWIDTH 12 0
BBX 10 15 1 0
BITMAP
0C00
0C00
0000
0C00
3F00
6380
4180
C0C0
FFC0
FFC0
C000
C000
6180
7380
3F00
ENDCHAR
STARTCHAR 0118
ENCODING 280
SWIDTH 540 0
DWIDTH 12 0
BBX 9 19 2 -4
BITMAP
FF80
FF80
C000
C000
C000
C000
C000
FF00
C000
C000
C000
C000
C000
FF80
FF80
0200
0600
0600
0780
ENDCHAR
STARTCHAR 0119
ENCODING 281
SWIDTH 540 0
DWIDTH 12 0
BBX 10 16 1 -4
BITMAP
0C00
3F00
6380
4180
C0C0
FFC0
FFC0
C000
C000
6180
7380
3F00
0600
0400
0600
0700
ENDCHAR
STARTCHAR 011A
ENCODING 282
SWIDTH 540 0
DWIDTH 12 0
BBX 9 20 2 0
BITMAP
6600
3400
1800
0800
0000
FF80
FF80
C000
C000
C000
C000
C000
FF00
C000
C000
C000
C000
C000
FF80
FF80
ENDCHAR
STARTCHAR 011B
ENCODING 283
SWIDTH 540 0
DWIDTH 12 0
BBX 10 16 1 0
BITMAP
3200
1E00
0C00
0000
0C00
3F00
6380
4180
C0C0
FFC0
FFC0
C000
C000
6180
7380
3F00
ENDCHAR
STARTCHAR 011C
ENCODING 284
SWIDTH 630 0
DWIDTH 14 0
BBX 12 20 1 0
BITMAP
0600
0600
0D00
1980
0000
1F80
3FC0
6060
6060
C030
C000
C000
C3F0
C3F0
C030
C030
6020
6060
39C0
1F80
ENDCHAR
STARTCHAR 011D
ENCODING 285
SWIDTH 585 0
DWIDTH 13 0
BBX 10 20 1 -4
BITMAP
0C00
0A00
1300
0000
0800
3FC0
61C0
60C0
C0C0
C0C0
C0C0
C0C0
C0C0
61C0
7FC0
1EC0
00C0
60C0
7380
3F00
ENDCHAR
STARTCHAR 011E
ENCODING 286
SWIDTH 630 0
DWIDTH 14 0
BBX 12 19 1 0
BITMAP
1080
1980
0700
0000
1F80
3FC0
6060
6060
C030
C000
C000
C3F0
C3F0
C030
C030
6020
6060
39C0
1F80
ENDCHAR
STARTCHAR 011F
ENCODING 287
SWIDTH 585 0
DWIDTH 13 0
BBX 10 20 1 -4
BITMAP
2100
3100
1E00
0000
0800
3FC0
61C0
60C0
C0C0
C0C0
C0C0
C0C0
C0C0
61C0
7FC0
1EC0
00C0
60C0
7380
3F00
ENDCHAR
STARTCHAR 0120
ENCODING 288
SWIDTH 630 0
DWIDTH 14 0
BBX 12 19 1 0
BITMAP
0600
0600
0000
0000
1F80
3FC0
6060
6060
C030
C000
C000
C3F0
C3F0
C030
C030
6020
6060
39C0
1F80
ENDCHAR
STARTCHAR 0121
ENCODING 289
SWIDTH 585 0
DWIDTH 13 0
BBX 10 19 1 -4
BITMAP
0C00
0C00
0000
0800
3FC0
61C0
60C0
C0C0
C0C0
C0C0
C0C0
C0C0
61C0
7FC0
1EC0
00C0
60C0
7380
3F00
ENDCHAR
STARTCHAR 0122
ENCODING 290
SWIDTH 630 0
DWIDTH 14 0
BBX 12 20 1 -5
BITMAP
1F80
3FC0
6060
6060
C030
C000
C000
C3F0
C3F0
C030
C030
6020
6060
39C0
1F80
0000
0000
0600
0400
0400
ENDCHAR
STARTCHAR 0123
ENCODING 291
SWIDTH 585 0
DWIDTH 13 0
BBX 10 21 1 -4
BITMAP
0400
0C00
0C00
0000
0000
0800
3FC0
61C0
60C0
C0C0
C0C0
C0C0
C0C0
C0C0
61C0
7FC0
1EC0
00C0
60C0
7380
3F00
ENDCHAR
STARTCHAR 0124
ENCODING 292
SWIDTH 675 0
DWIDTH 15 0
BBX 11 20 2 0
BITMAP
0400
0E00
1A00
1100
0000
C060
C060
C060
C060
C060
C060
FFE0
FFE0
C060
C060
C060
C060
C060
C060
C060
ENDCHAR
STARTCHAR 0125
ENCODING 293
SWIDTH 585 0
DWIDTH 13 0
BBX 11 20 0 0
BITMAP
7000
5000
8800
0000
3000
3000
3000
3000
3300
3FC0
38E0
3060
3060
3060
3060
3060
3060
3060
3060
3060
ENDCHAR
STARTCHAR 0126
ENCODING 294
SWIDTH 675 0
DWIDTH 15 0
BBX 13 15 1 0
BITMAP
6030
6030
6030
FFF8
6030
6030
6030
7FF0
6030
6030
6030
6030
6030
6030
6030
ENDCHAR
STARTCHAR 0127
ENCODING 295
SWIDTH 585 0
DWIDTH 13 0
BBX 11 16 0 0
BITMAP
3000
3000
FE00
3000
3300
3FC0
38E0
3060
3060
3060
3060
3060
3060
3060
3060
3060
ENDCHAR
STARTCHAR 0128
ENCODING 296
SWIDTH 225 0
DWIDTH 5 0
BBX 6 18 0 0
BITMAP
EC
98
00
30
30
30
30
30
30
30
30
30
30
30
30
30
30
30
ENDCHAR
STARTCHAR 0129
ENCODING 297
SWIDTH 225 0
DWIDTH 5 0
BBX 7 15 -1 0
BITMAP
76
DC
00
00
18
18
18
18
18
18
18
18
18
18
18
ENDCHAR
STARTCHAR 012A
ENCODING 298
SWIDTH 225 0
DWIDTH 5 0
BBX 6 18 0 0
BITMAP
FC
FC
00
30
30
30
30
30
30
30
30
30
30
30
30
30
30
30
ENDCHAR
STARTCHAR 012B
ENCODING 299
SWIDTH 225 0
DWIDTH 5 0
BBX 6 15 0 0
BITMAP
FC
FC
00
00
30
30
30
30
30
30
30
30
30
30
30
ENDCHAR
STARTCHAR 012C
ENCODING 300
SWIDTH 225 0
DWIDTH 5 0
BBX 6 19 0 0
BITMAP
8C
D8
70
00
30
30
30
30
30
30
30
30
30
30
30
30
30
30
30
ENDCHAR
STARTCHAR 012D
ENCODING 301
SWIDTH 225 0
DWIDTH 5 0
BBX 6 16 0 0
BITMAP
8C
8C
78
00
00
30
30
30
30
30
30
30
30
30
30
30
ENDCHAR
STARTCHAR 012E
ENCODING 302
SWIDTH 225 0
DWIDTH 5 0
BBX 4 19 0 -4
BITMAP
30
30
30
30
30
30
30
30
30
30
30
30
30
30
30
60
C0
C0
70
ENDCHAR
STARTCHAR 012F
ENCODING 303
SWIDTH 225 0
DWIDTH 5 0
BBX 4 19 0 -4
BITMAP
30
30
00
00
30
30
30
30
30
30
30
30
30
30
30
40
C0
C0
70
ENDCHAR
STARTCHAR 0130
ENCODING 304
SWIDTH 225 0
DWIDTH 5 0
BBX 2 19 2 0
BITMAP
C0
C0
00
00
C0
C0
C0
C0
C0
C0
C0
C0
C0
C0
C0
C0
C0
C0
C0
ENDCHAR
STARTCHAR 0131
ENCODING 305
SWIDTH 225 0
DWIDTH 5 0
BBX 2 11 2 0
BITMAP
C0
C0
C0
C0
C0
C0
C0
C0
C0
C0
C0
ENDCHAR
STARTCHAR 0132
ENCODING 306
SWIDTH 720 0
DWIDTH 16 0
BBX 12 15 2 0
BITMAP
C030
C030
C030
C030
C030
C030
C030
C030
C030
C030
C030
C030
CC30
CE70
C7E0
ENDCHAR
STARTCHAR 0133
ENCODING 307
SWIDTH 495 0
DWIDTH 11 0
BBX 7 19 2 -4
BITMAP
C6
C6
00
00
C6
C6
C6
C6
C6
C6
C6
C6
C6
C6
C6
06
06
1C
1C
ENDCHAR
STARTCHAR 0134
ENCODING 308
SWIDTH 450 0
DWIDTH 10 0
BBX 11 20 0 0
BITMAP
0100
0380
02C0
0660
0000
0180
0180
0180
0180
0180
0180
0180
0180
0180
0180
0180
0180
C300
7700
3E00
ENDCHAR
STARTCHAR 0135
ENCODING 309
SWIDTH 225 0
DWIDTH 5 0
BBX 6 20 -1 -4
BITMAP
18
28
64
00
00
18
18
18
18
18
18
18
18
18
18
18
18
18
30
E0
ENDCHAR
STARTCHAR 0136
ENCODING 310
SWIDTH 585 0
DWIDTH 13 0
BBX 10 20 2 -5
BITMAP
C0C0
C180
C300
C700
CE00
DC00
D800
FC00
EC00
C600
C700
C300
C180
C1C0
C0C0
0000
0000
1800
1800
1000
ENDCHAR
STARTCHAR 0137
ENCODING 311
SWIDTH 495 0
DWIDTH 11 0
BBX 8 21 2 -5
BITMAP
C0
C0
C0
C0
C0
C7
CE
CC
D8
F0
F8
D8
CC
C6
C7
C3
00
00
10
10
30
ENDCHAR
STARTCHAR 0139
ENCODING 313
SWIDTH 495 0
DWIDTH 11 0
BBX 8 19 2 0
BITMAP
60
40
80
00
C0
C0
C0
C0
C0
C0
C0
C0
C0
C0
C0
C0
C0
FF
FF
ENDCHAR
STARTCHAR 013A
ENCODING 314
SWIDTH 225 0
DWIDTH 5 0
BBX 3 20 2 0
BITMAP
60
40
C0
00
C0
C0
C0
C0
C0
C0
C0
C0
C0
C0
C0
C0
C0
C0
C0
C0
ENDCHAR
STARTCHAR 013B
ENCODING 315
SWIDTH 495 0
DWIDTH 11 0
BBX 8 20 2 -5
BITMAP
C0
C0
C0
C0
C0
C0
C0
C0
C0
C0
C0
C0
C0
FF
FF
00
00
30
30
20
ENDCHAR
STARTCHAR 013C
ENCODING 316
SWIDTH 225 0
DWIDTH 5 0
BBX 3 21 1 -5
BITMAP
60
60
60
60
60
60
60
60
60
60
60
60
60
60
60
60
00
00
40
C0
C0
ENDCHAR
STARTCHAR 013D
ENCODING 317
SWIDTH 495 0
DWIDTH 11 0
BBX 8 16 2 0
BITMAP
0C
CC
CC
CC
CC
C8
C0
C0
C0
C0
C0
C0
C0
C0
FF
FF
ENDCHAR
STARTCHAR 013E
ENCODING 318
SWIDTH 315 0
DWIDTH 7 0
BBX 5 16 2 0
BITMAP
C8
C8
C8
C8
C8
C8
C0
C0
C0
C0
C0
C0
C0
C0
C0
C0
ENDCHAR
STARTCHAR 0141
ENCODING 321
SWIDTH 495 0
DWIDTH 11 0
BBX 11 15 0 0
BITMAP
3000
3000
3000
3000
3100
3700
3C00
3800
F000
B000
3000
3000
3000
3FE0
3FE0
ENDCHAR
STARTCHAR 0142
ENCODING 322
SWIDTH 315 0
DWIDTH 7 0
BBX 5 16 1 0
BITMAP
60
60
60
60
60
68
78
70
E0
E0
60
60
60
60
60
60
ENDCHAR
STARTCHAR 0143
ENCODING 323
SWIDTH 675 0
DWIDTH 15 0
BBX 11 19 2 0
BITMAP
0300
0600
0400
0000
C060
C060
E060
F060
F060
D860
CC60
CC60
C660
C360
C360
C1E0
C0E0
C0E0
C060
ENDCHAR
STARTCHAR 0144
ENCODING 324
SWIDTH 540 0
DWIDTH 12 0
BBX 9 16 2 0
BITMAP
0600
0400
0800
0000
0C00
FF00
E380
C180
C180
C180
C180
C180
C180
C180
C180
C180
ENDCHAR
STARTCHAR 0145
ENCODING 325
SWIDTH 675 0
DWIDTH 15 0
BBX 11 20 2 -5
BITMAP
C060
C060
E060
F060
F060
D860
CC60
CC60
C660
C360
C360
C1E0
C0E0
C0E0
C060
0000
0000
0C00
0C00
0800
ENDCHAR
STARTCHAR 0146
ENCODING 326
SWIDTH 540 0
DWIDTH 12 0
BBX 9 17 2 -5
BITMAP
0C00
FF00
E380
C180
C180
C180
C180
C180
C180
C180
C180
C180
0000
0000
1800
1800
1000
ENDCHAR
STARTCHAR 0147
ENCODING 327
SWIDTH 675 0
DWIDTH 15 0
BBX 11 20 2 0
BITMAP
1100
1A00
0E00
0400
0000
C060
C060
E060
F060
F060
D860
CC60
CC60
C660
C360
C360
C1E0
C0E0
C0E0
C060
ENDCHAR
STARTCHAR 0148
ENCODING 328
SWIDTH 540 0
DWIDTH 12 0
BBX 9 16 2 0
BITMAP
2600
1400
1800
0000
0C00
FF00
E380
C180
C180
C180
C180
C180
C180
C180
C180
C180
ENDCHAR
STARTCHAR 014C
ENCODING 332
SWIDTH 630 0
DWIDTH 14 0
BBX 12 18 1 0
BITMAP
1F80
1F80
0000
1F80
3FC0
7060
6070
C030
C030
C030
C030
C030
C030
C030
6030
6060
39E0
1F80
ENDCHAR
STARTCHAR 014D
ENCODING 333
SWIDTH 540 0
DWIDTH 12 0
BBX 10 15 1 0
BITMAP
3F00
3F00
0000
0C00
3F00
6180
60C0
C0C0
C0C0
C0C0
C0C0
C0C0
6180
7380
3F00
ENDCHAR
STARTCHAR 014E
ENCODING 334
SWIDTH 630 0
DWIDTH 14 0
BBX 12 19 1 0
BITMAP
1080
1980
0700
0000
1F80
3FC0
7060
6070
C030
C030
C030
C030
C030
C030
C030
6030
6060
39E0
1F80
ENDCHAR
STARTCHAR 014F
ENCODING 335
SWIDTH 540 0
DWIDTH 12 0
BBX 10 16 1 0
BITMAP
2100
3300
1E00
0000
0C00
3F00
6180
60C0
C0C0
C0C0
C0C0
C0C0
C0C0
6180
7380
3F00
ENDCHAR
STARTCHAR 0150
ENCODING 336
SWIDTH 630 0
DWIDTH 14 0
BBX 12 19 1 0
BITMAP
06C0
0D80
0900
0000
1F80
3FC0
7060
6070
C030
C030
C030
C030
C030
C030
C030
6030
6060
39E0
1F80
ENDCHAR
STARTCHAR 0151
ENCODING 337
SWIDTH 540 0
DWIDTH 12 0
BBX 10 16 1 0
BITMAP
0580
0900
1200
0000
0C00
3F00
6180
60C0
C0C0
C0C0
C0C0
C0C0
C0C0
6180
7380
3F00
ENDCHAR
STARTCHAR 0152
ENCODING 338
SWIDTH 945 0
DWIDTH 21 0
BBX 19 15 1 0
BITMAP
1FBFE0
3FFFE0
707000
603000
C03000
C03000
C03000
C03FE0
C03000
C03000
C03000
603000
607000
39FFE0
1FBFE0
ENDCHAR
STARTCHAR 0153
ENCODING 339
SWIDTH 900 0
DWIDTH 20 0
BBX 17 12 1 0
BITMAP
0C0C00
3F3F00
61E380
C0C180
C0C180
C0FF80
C0FF80
C0C000
C0C000
61E180
73F380
3F3E00
ENDCHAR
STARTCHAR 0154
ENCODING 340
SWIDTH 585 0
DWIDTH 13 0
BBX 10 19 2 0
BITMAP
0600
0C00
1800
0000
FE00
FF80
C180
C0C0
C0C0
C0C0
C1C0
FF80
FF00
C600
C300
C300
C180
C180
C0C0
ENDCHAR
STARTCHAR 0155
ENCODING 341
SWIDTH 360 0
DWIDTH 8 0
BBX 5 16 2 0
BITMAP
18
10
20
00
08
F8
E0
C0
C0
C0
C0
C0
C0
C0
C0
C0
ENDCHAR
STARTCHAR 0156
ENCODING 342
SWIDTH 585 0
DWIDTH 13 0
BBX 10 20 2 -5
BITMAP
FE00
FF80
C180
C0C0
C0C0
C0C0
C1C0
FF80
FF00
C600
C300
C300
C180
C180
C0C0
0000
0000
1800
1800
1000
ENDCHAR
STARTCHAR 0157
ENCODING 343
SWIDTH 360 0
DWIDTH 8 0
BBX 6 17 1 -5
BITMAP
04
7C
70
60
60
60
60
60
60
60
60
60
00
00
40
C0
C0
ENDCHAR
STARTCHAR 0158
ENCODING 344
SWIDTH 585 0
DWIDTH 13 0
BBX 10 20 2 0
BITMAP
6600
3400
1800
0800
0000
FE00
FF80
C180
C0C0
C0C0
C0C0
C1C0
FF80
FF00
C600
C300
C300
C180
C180
C0C0
ENDCHAR
STARTCHAR 0159
ENCODING 345
SWIDTH 360 0
DWIDTH 8 0
BBX 5 16 2 0
BITMAP
98
50
60
00
08
F8
E0
C0
C0
C0
C0
C0
C0
C0
C0
C0
ENDCHAR
STARTCHAR 015A
ENCODING 346
SWIDTH 585 0
DWIDTH 13 0
BBX 11 19 1 0
BITMAP
0300
0600
0C00
0000
3F00
7F80
E0C0
C0C0
C000
E000
7800
3F00
07C0
00C0
0060
C040
C0C0
73C0
3F00
ENDCHAR
STARTCHAR 015B
ENCODING 347
SWIDTH 495 0
DWIDTH 11 0
BBX 9 16 1 0
BITMAP
0600
0400
0C00
0000
1800
7F00
E300
C100
C000
7800
3F00
0380
0180
C180
E300
7E00
ENDCHAR
STARTCHAR 015C
ENCODING 348
SWIDTH 585 0
DWIDTH 13 0
BBX 11 20 1 0
BITMAP
0400
0E00
1A00
3300
0000
3F00
7F80
E0C0
C0C0
C000
E000
7800
3F00
07C0
00C0
0060
C040
C0C0
73C0
3F00
ENDCHAR
STARTCHAR 015D
ENCODING 349
SWIDTH 495 0
DWIDTH 11 0
BBX 9 16 1 0
BITMAP
1800
1400
3600
0000
1800
7F00
E300
C100
C000
7800
3F00
0380
0180
C180
E300
7E00
ENDCHAR
STARTCHAR 015E
ENCODING 350
SWIDTH 585 0
DWIDTH 13 0
BBX 11 20 1 -5
BITMAP
3F00
7F80
E0C0
C0C0
C000
E000
7800
3F00
07C0
00C0
0060
C040
C0C0
73C0
3F00
0C00
0E00
0300
0300
0E00
ENDCHAR
STARTCHAR 015F
ENCODING 351
SWIDTH 495 0
DWIDTH 11 0
BBX 9 17 1 -5
BITMAP
1800
7F00
E300
C100
C000
7800
3F00
0380
0180
C180
E300
7E00
1800
1C00
0600
0600
1C00
ENDCHAR
STARTCHAR 0160
ENCODING 352
SWIDTH 585 0
DWIDTH 13 0
BBX 11 20 1 0
BITMAP
3300
1A00
0E00
0400
0000
3F00
7F80
E0C0
C0C0
C000
E000
7800
3F00
07C0
00C0
0060
C040
C0C0
73C0
3F00
ENDCHAR
STARTCHAR 0161
ENCODING 353
SWIDTH 495 0
DWIDTH 11 0
BBX 9 16 1 0
BITMAP
3600
1400
1800
0000
1800
7F00
E300
C100
C000
7800
3F00
0380
0180
C180
E300
7E00
ENDCHAR
STARTCHAR 0162
ENCODING 354
SWIDTH 495 0
DWIDTH 11 0
BBX 11 20 0 -5
BITMAP
FFE0
FFE0
0600
0600
0600
0600
0600
0600
0600
0600
0600
0600
0600
0600
0600
0400
0400
0700
0100
0F00
ENDCHAR
STARTCHAR 0163
ENCODING 355
SWIDTH 315 0
DWIDTH 7 0
BBX 6 19 1 -5
BITMAP
60
60
60
F8
60
60
60
60
60
60
60
60
30
3C
30
38
0C
0C
38
ENDCHAR
STARTCHAR 0164
ENCODING 356
SWIDTH 495 0
DWIDTH 11 0
BBX 11 20 0 0
BITMAP
1100
0B00
0E00
0400
0000
FFE0
FFE0
0600
0600
0600
0600
0600
0600
0600
0600
0600
0600
0600
0600
0600
ENDCHAR
STARTCHAR 0165
ENCODING 357
SWIDTH 360 0
DWIDTH 8 0
BBX 7 18 1 0
BITMAP
06
06
06
06
64
60
60
F8
60
60
60
60
60
60
60
60
30
3C
ENDCHAR
STARTCHAR 0166
ENCODING 358
SWIDTH 495 0
DWIDTH 11 0
BBX 11 15 0 0
BITMAP
FFE0
FFE0
0600
0600
0600
0600
0600
3F80
0600
0600
0600
0600
0600
0600
0600
ENDCHAR
STARTCHAR 0167
ENCODING 359
SWIDTH 315 0
DWIDTH 7 0
BBX 6 14 1 0
BITMAP
60
60
60
F8
60
60
60
F8
60
60
60
60
30
3C
ENDCHAR
STARTCHAR 0168
ENCODING 360
SWIDTH 630 0
DWIDTH 14 0
BBX 11 18 2 0
BITMAP
1D00
2600
0000
8060
8060
8060
8060
8060
8060
8060
8060
8060
8060
C060
C060
C0C0
73C0
3F00
ENDCHAR
STARTCHAR 0169
ENCODING 361
SWIDTH 540 0
DWIDTH 12 0
BBX 10 15 1 0
BITMAP
3900
2700
0000
0000
C0C0
C0C0
C0C0
C0C0
C0C0
C0C0
C0C0
C0C0
61C0
7FC0
3EC0
ENDCHAR
STARTCHAR 016A
ENCODING 362
SWIDTH 630 0
DWIDTH 14 0
BBX 11 18 2 0
BITMAP
3F00
3F00
0000
8060
8060
8060
8060
8060
8060
8060
8060
8060
8060
C060
C060
C0C0
73C0
3F00
ENDCHAR
STARTCHAR 016B
ENCODING 363
SWIDTH 540 0
DWIDTH 12 0
BBX 10 15 1 0
BITMAP
3F00
3F00
0000
0000
C0C0
C0C0
C0C0
C0C0
C0C0
C0C0
C0C0
C0C0
61C0
7FC0
3EC0
ENDCHAR
STARTCHAR 016C
ENCODING 364
SWIDTH 630 0
DWIDTH 14 0
BBX 11 19 2 0
BITMAP
2100
1300
0E00
0000
8060
8060
8060
8060
8060
8060
8060
8060
8060
8060
C060
C060
C0C0
73C0
3F00
ENDCHAR
STARTCHAR 016D
ENCODING 365
SWIDTH 540 0
DWIDTH 12 0
BBX 10 16 1 0
BITMAP
2100
3300
1E00
0000
0000
C0C0
C0C0
C0C0
C0C0
C0C0
C0C0
C0C0
C0C0
61C0
7FC0
3EC0
ENDCHAR
STARTCHAR 016E
ENCODING 366
SWIDTH 630 0
DWIDTH 14 0
BBX 11 20 2 0
BITMAP
0E00
1200
1200
0C00
0000
8060
8060
8060
8060
8060
8060
8060
8060
8060
8060
C060
C060
C0C0
73C0
3F00
ENDCHAR
STARTCHAR 016F
ENCODING 367
SWIDTH 540 0
DWIDTH 12 0
BBX 10 17 1 0
BITMAP
0C00
1200
1200
0E00
0000
0000
C0C0
C0C0
C0C0
C0C0
C0C0
C0C0
C0C0
C0C0
61C0
7FC0
3EC0
ENDCHAR
STARTCHAR 0170
ENCODING 368
SWIDTH 630 0
DWIDTH 14 0
BBX 11 19 2 0
BITMAP
0D80
1900
1200
0000
8060
8060
8060
8060
8060
8060
8060
8060
8060
8060
C060
C060
C0C0
73C0
3F00
ENDCHAR
STARTCHAR 0171
ENCODING 369
SWIDTH 540 0
DWIDTH 12 0
BBX 10 16 1 0
BITMAP
0480
0900
1A00
0000
0000
C0C0
C0C0
C0C0
C0C0
C0C0
C0C0
C0C0
C0C0
61C0
7FC0
3EC0
ENDCHAR
STARTCHAR 0172
ENCODING 370
SWIDTH 630 0
DWIDTH 14 0
BBX 11 19 2 -4
BITMAP
C060
C060
C060
C060
C060
C060
C060
C060
C060
C060
C060
C060
C0C0
73C0
3F80
0100
0300
0300
01C0
ENDCHAR
STARTCHAR 0173
ENCODING 371
SWIDTH 540 0
DWIDTH 12 0
BBX 10 15 1 -4
BITMAP
C0C0
C0C0
C0C0
C0C0
C0C0
C0C0
C0C0
C0C0
61C0
7FC0
3EC0
0180
0300
0300
01C0
ENDCHAR
STARTCHAR 0174
ENCODING 372
SWIDTH 810 0
DWIDTH 18 0
BBX 18 20 0 0
BITMAP
00C000
00C000
012000
033000
000000
C0C0C0
E0C0C0
60E180
61E180
61E180
312180
333300
333300
333300
1A1200
1E1E00
1E1E00
0E0E00
0C0C00
0C0C00
ENDCHAR
STARTCHAR 0175
ENCODING 373
SWIDTH 720 0
DWIDTH 16 0
BBX 14 16 1 0
BITMAP
0300
0780
0480
0000
0000
C30C
C30C
C78C
C788
4498
6CD8
6CD8
6850
2850
3870
3870
ENDCHAR
STARTCHAR 0176
ENCODING 374
SWIDTH 540 0
DWIDTH 12 0
BBX 12 20 0 0
BITMAP
0600
0600
0B00
1980
0000
C070
6060
60C0
30C0
1980
1980
0F00
0E00
0600
0600
0600
0600
0600
0600
0600
ENDCHAR
STARTCHAR 0177
ENCODING 375
SWIDTH 450 0
DWIDTH 10 0
BBX 10 20 0 -4
BITMAP
0C00
0A00
1300
0000
0000
C0C0
60C0
6180
6180
3180
3300
1300
1B00
1E00
0E00
0C00
0C00
0C00
7800
7000
ENDCHAR
STARTCHAR 0178
ENCODING 376
SWIDTH 540 0
DWIDTH 12 0
BBX 12 18 0 0
BITMAP
1900
0900
0000
C070
6060
60C0
30C0
1980
1980
0F00
0E00
0600
0600
0600
0600
0600
0600
0600
ENDCHAR
STARTCHAR 0179
ENCODING 377
SWIDTH 540 0
DWIDTH 12 0
BBX 10 19 1 0
BITMAP
0300
0600
0C00
0000
FFC0
FFC0
01C0
0180
0300
0700
0600
0C00
1800
1800
3000
6000
6000
FFC0
FFC0
ENDCHAR
STARTCHAR 017A
ENCODING 378
SWIDTH 450 0
DWIDTH 10 0
BBX 9 16 1 0
BITMAP
0600
0400
0800
0000
0000
FF80
0300
0600
0600
0C00
1800
3000
3000
6000
FF80
FF80
ENDCHAR
STARTCHAR 017B
ENCODING 379
SWIDTH 540 0
DWIDTH 12 0
BBX 10 19 1 0
BITMAP
0C00
0C00
0000
0000
FFC0
FFC0
01C0
0180
0300
0700
0600
0C00
1800
1800
3000
6000
6000
FFC0
FFC0
ENDCHAR
STARTCHAR 017C
ENCODING 380
SWIDTH 450 0
DWIDTH 10 0
BBX 9 15 1 0
BITMAP
1800
1800
0000
0000
FF80
0300
0600
0600
0C00
1800
3000
3000
6000
FF80
FF80
ENDCHAR
STARTCHAR 017D
ENCODING 381
SWIDTH 540 0
DWIDTH 12 0
BBX 10 20 1 0
BITMAP
3300
1A00
0E00
0400
0000
FFC0
FFC0
01C0
0180
0300
0700
0600
0C00
1800
1800
3000
6000
6000
FFC0
FFC0
ENDCHAR
STARTCHAR 017E
ENCODING 382
SWIDTH 450 0
DWIDTH 10 0
BBX 9 16 1 0
BITMAP
2600
1400
1800
0000
0000
FF80
0300
0600
0600
0C00
1800
3000
3000
6000
FF80
FF80
ENDCHAR
STARTCHAR 018F
ENCODING 399
SWIDTH 630 0
DWIDTH 14 0
BBX 12 15 1 0
BITMAP
1F80
3FC0
6060
6070
C030
0030
0030
FFF0
FFF0
C030
C030
6030
6060
39E0
1F80
ENDCHAR
STARTCHAR 0192
ENCODING 402
SWIDTH 540 0
DWIDTH 12 0
BBX 10 15 1 0
BITMAP
03C0
0700
0600
0600
0400
0400
7F80
0C00
0C00
0C00
0C00
0C00
0800
1800
F000
ENDCHAR
STARTCHAR 01A0
ENCODING 416
SWIDTH 630 0
DWIDTH 14 0
BBX 14 17 1 0
BITMAP
000C
000C
1F88
3FF8
7060
6060
C030
C030
C030
C030
C030
C030
C030
6030
6060
39E0
1F80
ENDCHAR
STARTCHAR 01A1
ENCODING 417
SWIDTH 585 0
DWIDTH 13 0
BBX 11 14 1 0
BITMAP
0020
0020
0C60
3FE0
6180
60C0
C0C0
C0C0
C0C0
C0C0
C0C0
6180
7380
3F00
ENDCHAR
STARTCHAR 01AF
ENCODING 431
SWIDTH 675 0
DWIDTH 15 0
BBX 14 18 2 0
BITMAP
000C
000C
000C
C078
C070
C060
C060
C060
C060
C060
C060
C060
C060
C060
C060
C0C0
73C0
3F00
ENDCHAR
STARTCHAR 01B0
ENCODING 432
SWIDTH 585 0
DWIDTH 13 0
BBX 13 14 1 0
BITMAP
0018
0018
0030
C0F0
C0C0
C0C0
C0C0
C0C0
C0C0
C0C0
C0C0
61C0
7FC0
3EC0
ENDCHAR
STARTCHAR 01C4
ENCODING 452
SWIDTH 1260 0
DWIDTH 28 0
BBX 23 20 2 0
BITMAP
000198
0000D0
000070
000020
000000
FE07FE
FF87FE
C1C00E
C0C00C
C06018
C06038
C06030
C06060
C060C0
C060C0
C06180
C0C300
C1C300
FF87FE
FE07FE
ENDCHAR
STARTCHAR 01C5
ENCODING 453
SWIDTH 1170 0
DWIDTH 26 0
BBX 22 16 2 0
BITMAP
000130
FE00A0
FF80C0
C1C000
C0C000
C067FC
C06018
C06030
C06030
C06060
C060C0
C061C0
C0C180
C1C300
FF87FC
FE07FC
ENDCHAR
STARTCHAR 01C6
ENCODING 454
SWIDTH 1080 0
DWIDTH 24 0
BBX 21 16 1 0
BITMAP
00C120
00C1E0
00C0C0
00C000
08C000
3EC7F8
61C018
60C030
C0C060
C0C0E0
C0C0C0
C0C180
C0C300
61C300
73C7F8
3EC7F8
ENDCHAR
STARTCHAR 01C7
ENCODING 455
SWIDTH 990 0
DWIDTH 22 0
BBX 18 15 2 0
BITMAP
C000C0
C000C0
C000C0
C000C0
C000C0
C000C0
C000C0
C000C0
C000C0
C000C0
C000C0
C000C0
C030C0
FF39C0
FF1F80
ENDCHAR
STARTCHAR 01C8
ENCODING 456
SWIDTH 765 0
DWIDTH 17 0
BBX 13 19 2 -4
BITMAP
C018
C018
C000
C000
C018
C018
C018
C018
C018
C018
C018
C018
C018
FF18
FF18
0018
0018
0078
0070
ENDCHAR
STARTCHAR 01C9
ENCODING 457
SWIDTH 495 0
DWIDTH 11 0
BBX 7 20 2 -4
BITMAP
C0
C6
C6
C0
C0
C6
C6
C6
C6
C6
C6
C6
C6
C6
C6
C6
06
06
1E
1C
ENDCHAR
STARTCHAR 01CA
ENCODING 458
SWIDTH 1125 0
DWIDTH 25 0
BBX 22 15 2 0
BITMAP
C0600C
C0600C
E0600C
F0600C
F0600C
D8600C
CC600C
CC600C
C6600C
C3600C
C3600C
C1E008
C0E618
C0E338
C063F0
ENDCHAR
STARTCHAR 01CB
ENCODING 459
SWIDTH 900 0
DWIDTH 20 0
BBX 17 19 2 -4
BITMAP
C06380
C06300
E06000
F06000
F06100
D86100
CC6100
CC6100
C66100
C36100
C36100
C1E100
C0E100
C0E100
C06100
000100
000300
000F00
000E00
ENDCHAR
STARTCHAR 01CC
ENCODING 460
SWIDTH 810 0
DWIDTH 18 0
BBX 14 19 2 -4
BITMAP
000C
000C
0000
0C00
FF0C
E38C
C18C
C18C
C18C
C18C
C18C
C18C
C18C
C18C
C18C
000C
000C
003C
0038
ENDCHAR
STARTCHAR 01CD
ENCODING 461
SWIDTH 585 0
DWIDTH 13 0
BBX 13 20 0 0
BITMAP
0880
0D80
0700
0200
0000
0700
0700
0500
0D80
0D80
0880
18C0
18C0
1040
3FE0
3FE0
2020
6030
6030
C018
ENDCHAR
STARTCHAR 01CE
ENCODING 462
SWIDTH 495 0
DWIDTH 11 0
BBX 9 16 1 0
BITMAP
3200
1400
0C00
0000
0C00
7F00
6380
C180
0180
1F80
7F80
C180
C180
C180
E780
7D80
ENDCHAR
STARTCHAR 01CF
ENCODING 463
SWIDTH 225 0
DWIDTH 5 0
BBX 5 20 0 0
BITMAP
88
58
70
20
00
30
30
30
30
30
30
30
30
30
30
30
30
30
30
30
ENDCHAR
STARTCHAR 01D0
ENCODING 464
SWIDTH 225 0
DWIDTH 5 0
BBX 5 16 0 0
BITMAP
C8
50
30
00
00
30
30
30
30
30
30
30
30
30
30
30
ENDCHAR
STARTCHAR 01D1
ENCODING 465
SWIDTH 630 0
DWIDTH 14 0
BBX 12 20 1 0
BITMAP
1980
0D00
0600
0600
0000
1F80
3FC0
7060
6070
C030
C030
C030
C030
C030
C030
C030
6030
6060
39E0
1F80
ENDCHAR
STARTCHAR 01D2
ENCODING 466
SWIDTH 540 0
DWIDTH 12 0
BBX 10 16 1 0
BITMAP
1300
1E00
0C00
0000
0C00
3F00
6180
60C0
C0C0
C0C0
C0C0
C0C0
C0C0
6180
7380
3F00
ENDCHAR
STARTCHAR 01D3
ENCODING 467
SWIDTH 630 0
DWIDTH 14 0
BBX 11 20 2 0
BITMAP
3300
1A00
0E00
0400
0000
8060
8060
8060
8060
8060
8060
8060
8060
8060
8060
C060
C060
C0C0
73C0
3F00
ENDCHAR
STARTCHAR 01D4
ENCODING 468
SWIDTH 540 0
DWIDTH 12 0
BBX 10 16 1 0
BITMAP
1300
1E00
0C00
0000
0000
C0C0
C0C0
C0C0
C0C0
C0C0
C0C0
C0C0
C0C0
61C0
7FC0
3EC0
ENDCHAR
STARTCHAR 01D5
ENCODING 469
SWIDTH 630 0
DWIDTH 14 0
BBX 11 21 2 0
BITMAP
3F00
3F00
0000
1300
1300
0000
8060
8060
8060
8060
8060
8060
8060
8060
8060
8060
C060
C060
C0C0
73C0
3F00
ENDCHAR
STARTCHAR 01D6
ENCODING 470
SWIDTH 540 0
DWIDTH 12 0
BBX 10 18 1 0
BITMAP
3F00
0000
0000
1300
1300
0000
0000
C0C0
C0C0
C0C0
C0C0
C0C0
C0C0
C0C0
C0C0
61C0
7FC0
3EC0
ENDCHAR
STARTCHAR 01D7
ENCODING 471
SWIDTH 630 0
DWIDTH 14 0
BBX 11 21 2 0
BITMAP
0300
0600
0000
1300
1300
0000
8060
8060
8060
8060
8060
8060
8060
8060
8060
8060
C060
C060
C0C0
73C0
3F00
ENDCHAR
STARTCHAR 01D8
ENCODING 472
SWIDTH 540 0
DWIDTH 12 0
BBX 10 19 1 0
BITMAP
0300
0600
0C00
0000
1300
1300
0000
0000
C0C0
C0C0
C0C0
C0C0
C0C0
C0C0
C0C0
C0C0
61C0
7FC0
3EC0
ENDCHAR
STARTCHAR 01D9
ENCODING 473
SWIDTH 630 0
DWIDTH 14 0
BBX 11 21 2 0
BITMAP
3300
0E00
0000
1300
1300
0000
8060
8060
8060
8060
8060
8060
8060
8060
8060
8060
C060
C060
C0C0
73C0
3F00
ENDCHAR
STARTCHAR 01DA
ENCODING 474
SWIDTH 540 0
DWIDTH 12 0
BBX 10 19 1 0
BITMAP
1200
0E00
0C00
0000
1300
1300
0000
0000
C0C0
C0C0
C0C0
C0C0
C0C0
C0C0
C0C0
C0C0
61C0
7FC0
3EC0
ENDCHAR
STARTCHAR 01DB
ENCODING 475
SWIDTH 630 0
DWIDTH 14 0
BBX 11 21 2 0
BITMAP
3000
1800
0400
1300
1300
0000
8060
8060
8060
8060
8060
8060
8060
8060
8060
8060
C060
C060
C0C0
73C0
3F00
ENDCHAR
STARTCHAR 01DC
ENCODING 476
SWIDTH 540 0
DWIDTH 12 0
BBX 10 19 1 0
BITMAP
1000
0800
0C00
0000
1300
1300
0000
0000
C0C0
C0C0
C0C0
C0C0
C0C0
C0C0
C0C0
C0C0
61C0
7FC0
3EC0
ENDCHAR
STARTCHAR 01DD
ENCODING 477
SWIDTH 540 0
DWIDTH 12 0
BBX 10 12 1 0
BITMAP
0C00
3F00
6180
0180
00C0
00C0
FFC0
C0C0
C0C0
6180
7380
3F00
ENDCHAR
STARTCHAR 01DE
ENCODING 478
SWIDTH 585 0
DWIDTH 13 0
BBX 13 21 0 0
BITMAP
0F80
0F80
0000
0D80
0D80
0000
0700
0700
0500
0D80
0D80
0880
18C0
18C0
1040
3FE0
3FE0
2020
6030
6030
C018
ENDCHAR
STARTCHAR 01DF
ENCODING 479
SWIDTH 495 0
DWIDTH 11 0
BBX 9 18 1 0
BITMAP
3F00
0000
0000
3300
3300
0000
0C00
7F00
6380
C180
0180
1F80
7F80
C180
C180
C180
E780
7D80
ENDCHAR
STARTCHAR 01E0
ENCODING 480
SWIDTH 585 0
DWIDTH 13 0
BBX 13 21 0 0
BITMAP
0F80
0F80
0000
0700
0200
0000
0700
0700
0500
0D80
0D80
0880
18C0
18C0
1040
3FE0
3FE0
2020
6030
6030
C018
ENDCHAR
STARTCHAR 01E1
ENCODING 481
SWIDTH 495 0
DWIDTH 11 0
BBX 9 18 1 0
BITMAP
3F00
0000
0000
0C00
0C00
0000
0C00
7F00
6380
C180
0180
1F80
7F80
C180
C180
C180
E780
7D80
ENDCHAR
STARTCHAR 01E2
ENCODING 482
SWIDTH 900 0
DWIDTH 20 0
BBX 19 18 0 0
BITMAP
000F80
000F80
000000
00FFE0
01FFE0
01B000
033000
033000
063000
063000
0C3FC0
0C3000
1FF000
183000
303000
303000
603FE0
E03FE0
ENDCHAR
STARTCHAR 01E3
ENCODING 483
SWIDTH 855 0
DWIDTH 19 0
BBX 16 15 1 0
BITMAP
07E0
07E0
0000
0C18
7F7E
63C7
C183
0181
3FFF
7FFF
C180
C180
C1C3
E7E7
7C7E
ENDCHAR
STARTCHAR 01E6
ENCODING 486
SWIDTH 630 0
DWIDTH 14 0
BBX 12 20 1 0
BITMAP
1980
0D00
0600
0600
0000
1F80
3FC0
6060
6060
C030
C000
C000
C3F0
C3F0
C030
C030
6020
6060
39C0
1F80
ENDCHAR
STARTCHAR 01E7
ENCODING 487
SWIDTH 585 0
DWIDTH 13 0
BBX 10 20 1 -4
BITMAP
1300
0A00
0C00
0000
0800
3FC0
61C0
60C0
C0C0
C0C0
C0C0
C0C0
C0C0
61C0
7FC0
1EC0
00C0
60C0
7380
3F00
ENDCHAR
STARTCHAR 01E8
ENCODING 488
SWIDTH 585 0
DWIDTH 13 0
BBX 10 20 2 0
BITMAP
6600
3400
1800
0800
0000
C0C0
C180
C300
C700
CE00
DC00
D800
FC00
EC00
C600
C700
C300
C180
C1C0
C0C0
ENDCHAR
STARTCHAR 01E9
ENCODING 489
SWIDTH 495 0
DWIDTH 11 0
BBX 10 20 0 0
BITMAP
D800
7000
2000
0000
3000
3000
3000
3000
3000
31C0
3380
3300
3600
3C00
3E00
3600
3300
3180
31C0
30C0
ENDCHAR
STARTCHAR 01EA
ENCODING 490
SWIDTH 630 0
DWIDTH 14 0
BBX 12 19 1 -4
BITMAP
1F80
3FC0
7060
6070
C030
C030
C030
C030
C030
C030
C030
6030
6060
39E0
1FC0
0180
0100
0180
01E0
ENDCHAR
STARTCHAR 01EB
ENCODING 491
SWIDTH 540 0
DWIDTH 12 0
BBX 10 16 1 -4
BITMAP
0C00
3F00
6180
60C0
C0C0
C0C0
C0C0
C0C0
C0C0
6180
7380
3F00
0200
0600
0600
0380
ENDCHAR
STARTCHAR 01EC
ENCODING 492
SWIDTH 630 0
DWIDTH 14 0
BBX 12 22 1 -4
BITMAP
1F80
1F80
0000
1F80
3FC0
7060
6070
C030
C030
C030
C030
C030
C030
C030
6030
6060
39E0
1FC0
0180
0100
0180
01E0
ENDCHAR
STARTCHAR 01ED
ENCODING 493
SWIDTH 540 0
DWIDTH 12 0
BBX 10 19 1 -4
BITMAP
3F00
3F00
0000
0C00
3F00
6180
60C0
C0C0
C0C0
C0C0
C0C0
C0C0
6180
7380
3F00
0200
0600
0600
0380
ENDCHAR
STARTCHAR 01F1
ENCODING 497
SWIDTH 1170 0
DWIDTH 26 0
BBX 23 15 2 0
BITMAP
FE07FE
FF87FE
C1C00E
C0C00C
C06018
C06038
C06030
C06060
C060C0
C060C0
C06180
C0C300
C1C300
FF87FE
FE07FE
ENDCHAR
STARTCHAR 01F2
ENCODING 498
SWIDTH 1170 0
DWIDTH 26 0
BBX 22 15 2 0
BITMAP
FE0000
FF8000
C1C000
C0C000
C067FC
C06018
C06030
C06030
C06060
C060C0
C061C0
C0C180
C1C300
FF87FC
FE07FC
ENDCHAR
STARTCHAR 01F3
ENCODING 499
SWIDTH 1080 0
DWIDTH 24 0
BBX 21 16 1 0
BITMAP
00C000
00C000
00C000
00C000
08C000
3EC7F8
61C018
60C030
C0C060
C0C0E0
C0C0C0
C0C180
C0C300
61C300
73C7F8
3EC7F8
ENDCHAR
STARTCHAR 01F4
ENCODING 500
SWIDTH 630 0
DWIDTH 14 0
BBX 12 19 1 0
BITMAP
0180
0300
0600
0000
1F80
3FC0
6060
6060
C030
C000
C000
C3F0
C3F0
C030
C030
6020
6060
39C0
1F80
ENDCHAR
STARTCHAR 01F5
ENCODING 501
SWIDTH 585 0
DWIDTH 13 0
BBX 10 20 1 -4
BITMAP
0300
0200
0400
0000
0800
3FC0
61C0
60C0
C0C0
C0C0
C0C0
C0C0
C0C0
61C0
7FC0
1EC0
00C0
60C0
7380
3F00
ENDCHAR
STARTCHAR 01F8
ENCODING 504
SWIDTH 675 0
DWIDTH 15 0
BBX 11 19 2 0
BITMAP
1800
0800
0400
0000
C060
C060
E060
F060
F060
D860
CC60
CC60
C660
C360
C360
C1E0
C0E0
C0E0
C060
ENDCHAR
STARTCHAR 01F9
ENCODING 505
SWIDTH 540 0
DWIDTH 12 0
BBX 9 16 2 0
BITMAP
6000
3000
1800
0000
0C00
FF00
E380
C180
C180
C180
C180
C180
C180
C180
C180
C180
ENDCHAR
STARTCHAR 01FA
ENCODING 506
SWIDTH 585 0
DWIDTH 13 0
BBX 13 21 0 0
BITMAP
0300
0000
0700
0500
0500
0200
0700
0700
0500
0D80
0D80
0880
18C0
18C0
1040
3FE0
3FE0
2020
6030
6030
C018
ENDCHAR
STARTCHAR 01FB
ENCODING 507
SWIDTH 495 0
DWIDTH 11 0
BBX 9 19 1 0
BITMAP
0600
0C00
0C00
1200
1200
1C00
0000
0C00
7F00
6380
C180
0180
1F80
7F80
C180
C180
C180
E780
7D80
ENDCHAR
STARTCHAR 01FC
ENCODING 508
SWIDTH 900 0
DWIDTH 20 0
BBX 19 19 0 0
BITMAP
000180
000300
000200
000000
00FFE0
01FFE0
01B000
033000
033000
063000
063000
0C3FC0
0C3000
1FF000
183000
303000
303000
603FE0
E03FE0
ENDCHAR
STARTCHAR 01FD
ENCODING 509
SWIDTH 855 0
DWIDTH 19 0
BBX 16 16 1 0
BITMAP
0060
00C0
0080
0000
0C18
7F7E
63C7
C183
0181
3FFF
7FFF
C180
C180
C1C3
E7E7
7C7E
ENDCHAR
STARTCHAR 01FE
ENCODING 510
SWIDTH 630 0
DWIDTH 14 0
BBX 12 19 1 0
BITMAP
0180
0300
0600
0000
1F90
3FF0
7060
60F0
C0B0
C1B0
C330
C630
CC30
C830
D830
7030
6060
F9E0
9F80
ENDCHAR
STARTCHAR 01FF
ENCODING 511
SWIDTH 540 0
DWIDTH 12 0
BBX 10 16 1 -1
BITMAP
0300
0600
0400
0000
0CC0
3F80
6180
63C0
C2C0
C4C0
CCC0
D8C0
D0C0
6180
7380
FF00
ENDCHAR
STARTCHAR 0200
ENCODING 512
SWIDTH 585 0
DWIDTH 13 0
BBX 13 19 0 0
BITMAP
3300
0900
0C80
0000
0700
0700
0500
0D80
0D80
0880
18C0
18C0
1040
3FE0
3FE0
2020
6030
6030
C018
ENDCHAR
STARTCHAR 0201
ENCODING 513
SWIDTH 495 0
DWIDTH 11 0
BBX 9 16 1 0
BITMAP
4800
6C00
3400
0000
0C00
7F00
6380
C180
0180
1F80
7F80
C180
C180
C180
E780
7D80
ENDCHAR
STARTCHAR 0202
ENCODING 514
SWIDTH 585 0
DWIDTH 13 0
BBX 13 19 0 0
BITMAP
0F80
0880
18C0
0000
0700
0700
0500
0D80
0D80
0880
18C0
18C0
1040
3FE0
3FE0
2020
6030
6030
C018
ENDCHAR
STARTCHAR 0203
ENCODING 515
SWIDTH 495 0
DWIDTH 11 0
BBX 9 16 1 0
BITMAP
1E00
3300
2100
0000
0C00
7F00
6380
C180
0180
1F80
7F80
C180
C180
C180
E780
7D80
ENDCHAR
STARTCHAR 0204
ENCODING 516
SWIDTH 540 0
DWIDTH 12 0
BBX 9 19 2 0
BITMAP
D800
6C00
2600
0000
FF80
FF80
C000
C000
C000
C000
C000
FF00
C000
C000
C000
C000
C000
FF80
FF80
ENDCHAR
STARTCHAR 0205
ENCODING 517
SWIDTH 540 0
DWIDTH 12 0
BBX 10 16 1 0
BITMAP
4800
2400
3600
0000
0C00
3F00
6380
4180
C0C0
FFC0
FFC0
C000
C000
6180
7380
3F00
ENDCHAR
STARTCHAR 0206
ENCODING 518
SWIDTH 540 0
DWIDTH 12 0
BBX 9 19 2 0
BITMAP
3C00
6200
4200
0000
FF80
FF80
C000
C000
C000
C000
C000
FF00
C000
C000
C000
C000
C000
FF80
FF80
ENDCHAR
STARTCHAR 0207
ENCODING 519
SWIDTH 540 0
DWIDTH 12 0
BBX 10 16 1 0
BITMAP
1E00
3300
2100
0000
0C00
3F00
6380
4180
C0C0
FFC0
FFC0
C000
C000
6180
7380
3F00
ENDCHAR
STARTCHAR 0208
ENCODING 520
SWIDTH 225 0
DWIDTH 5 0
BBX 6 19 -1 0
BITMAP
D8
48
24
00
18
18
18
18
18
18
18
18
18
18
18
18
18
18
18
ENDCHAR
STARTCHAR 0209
ENCODING 521
SWIDTH 225 0
DWIDTH 5 0
BBX 5 16 -1 0
BITMAP
B0
D8
48
00
00
18
18
18
18
18
18
18
18
18
18
18
ENDCHAR
STARTCHAR 020A
ENCODING 522
SWIDTH 225 0
DWIDTH 5 0
BBX 6 19 0 0
BITMAP
F8
8C
84
00
30
30
30
30
30
30
30
30
30
30
30
30
30
30
30
ENDCHAR
STARTCHAR 020B
ENCODING 523
SWIDTH 225 0
DWIDTH 5 0
BBX 6 16 0 0
BITMAP
78
88
8C
00
00
30
30
30
30
30
30
30
30
30
30
30
ENDCHAR
STARTCHAR 020C
ENCODING 524
SWIDTH 630 0
DWIDTH 14 0
BBX 12 19 1 0
BITMAP
3600
1B00
0980
0000
1F80
3FC0
7060
6070
C030
C030
C030
C030
C030
C030
C030
6030
6060
39E0
1F80
ENDCHAR
STARTCHAR 020D
ENCODING 525
SWIDTH 540 0
DWIDTH 12 0
BBX 10 16 1 0
BITMAP
6C00
2400
1200
0000
0C00
3F00
6180
60C0
C0C0
C0C0
C0C0
C0C0
C0C0
6180
7380
3F00
ENDCHAR
STARTCHAR 020E
ENCODING 526
SWIDTH 630 0
DWIDTH 14 0
BBX 12 19 1 0
BITMAP
0F00
1880
1080
0000
1F80
3FC0
7060
6070
C030
C030
C030
C030
C030
C030
C030
6030
6060
39E0
1F80
ENDCHAR
STARTCHAR 020F
ENCODING 527
SWIDTH 540 0
DWIDTH 12 0
BBX 10 16 1 0
BITMAP
1E00
3300
2100
0000
0C00
3F00
6180
60C0
C0C0
C0C0
C0C0
C0C0
C0C0
6180
7380
3F00
ENDCHAR
STARTCHAR 0210
ENCODING 528
SWIDTH 585 0
DWIDTH 13 0
BBX 10 19 2 0
BITMAP
D800
6C00
2600
0000
FE00
FF80
C180
C0C0
C0C0
C0C0
C1C0
FF80
FF00
C600
C300
C300
C180
C180
C0C0
ENDCHAR
STARTCHAR 0211
ENCODING 529
SWIDTH 360 0
DWIDTH 8 0
BBX 7 16 0 0
BITMAP
D8
48
24
00
02
3E
38
30
30
30
30
30
30
30
30
30
ENDCHAR
STARTCHAR 0212
ENCODING 530
SWIDTH 585 0
DWIDTH 13 0
BBX 10 19 2 0
BITMAP
3C00
6200
4200
0000
FE00
FF80
C180
C0C0
C0C0
C0C0
C1C0
FF80
FF00
C600
C300
C300
C180
C180
C0C0
ENDCHAR
STARTCHAR 0213
ENCODING 531
SWIDTH 360 0
DWIDTH 8 0
BBX 6 16 1 0
BITMAP
78
44
C4
00
04
7C
70
60
60
60
60
60
60
60
60
60
ENDCHAR
STARTCHAR 0214
ENCODING 532
SWIDTH 630 0
DWIDTH 14 0
BBX 11 19 2 0
BITMAP
6C00
3600
1B00
0000
8060
8060
8060
8060
8060
8060
8060
8060
8060
8060
C060
C060
C0C0
73C0
3F00
ENDCHAR
STARTCHAR 0215
ENCODING 533
SWIDTH 540 0
DWIDTH 12 0
BBX 10 16 1 0
BITMAP
6C00
2400
1200
0000
0000
C0C0
C0C0
C0C0
C0C0
C0C0
C0C0
C0C0
C0C0
61C0
7FC0
3EC0
ENDCHAR
STARTCHAR 0216
ENCODING 534
SWIDTH 630 0
DWIDTH 14 0
BBX 11 19 2 0
BITMAP
1E00
3100
2100
0000
8060
8060
8060
8060
8060
8060
8060
8060
8060
8060
C060
C060
C0C0
73C0
3F00
ENDCHAR
STARTCHAR 0217
ENCODING 535
SWIDTH 540 0
DWIDTH 12 0
BBX 10 16 1 0
BITMAP
1E00
3300
2100
0000
0000
C0C0
C0C0
C0C0
C0C0
C0C0
C0C0
C0C0
C0C0
61C0
7FC0
3EC0
ENDCHAR
STARTCHAR 0218
ENCODING 536
SWIDTH 585 0
DWIDTH 13 0
BBX 11 20 1 -5
BITMAP
3F00
7F80
E0C0
C0C0
C000
E000
7800
3F00
07C0
00C0
0060
C040
C0C0
73C0
3F00
0000
0000
0C00
0800
0800
ENDCHAR
STARTCHAR 0219
ENCODING 537
SWIDTH 495 0
DWIDTH 11 0
BBX 9 17 1 -5
BITMAP
1800
7F00
E300
C100
C000
7800
3F00
0380
0180
C180
E300
7E00
0000
0000
1800
1800
1000
ENDCHAR
STARTCHAR 021A
ENCODING 538
SWIDTH 495 0
DWIDTH 11 0
BBX 11 20 0 -5
BITMAP
FFE0
FFE0
0600
0600
0600
0600
0600
0600
0600
0600
0600
0600
0600
0600
0600
0000
0000
0400
0C00
0C00
ENDCHAR
STARTCHAR 021B
ENCODING 539
SWIDTH 315 0
DWIDTH 7 0
BBX 6 19 1 -5
BITMAP
60
60
60
F8
60
60
60
60
60
60
60
60
30
3C
00
00
10
30
30
ENDCHAR
STARTCHAR 021E
ENCODING 542
SWIDTH 675 0
DWIDTH 15 0
BBX 11 20 2 0
BITMAP
1100
1A00
0E00
0400
0000
C060
C060
C060
C060
C060
C060
FFE0
FFE0
C060
C060
C060
C060
C060
C060
C060
ENDCHAR
STARTCHAR 021F
ENCODING 543
SWIDTH 585 0
DWIDTH 13 0
BBX 11 20 0 0
BITMAP
D800
7000
2000
0000
3000
3000
3000
3000
3300
3FC0
38E0
3060
3060
3060
3060
3060
3060
3060
3060
3060
ENDCHAR
STARTCHAR 0226
ENCODING 550
SWIDTH 585 0
DWIDTH 13 0
BBX 13 19 0 0
BITMAP
0200
0700
0000
0000
0700
0700
0500
0D80
0D80
0880
18C0
18C0
1040
3FE0
3FE0
2020
6030
6030
C018
ENDCHAR
STARTCHAR 0227
ENCODING 551
SWIDTH 495 0
DWIDTH 11 0
BBX 9 15 1 0
BITMAP
0C00
0C00
0000
0C00
7F00
6380
C180
0180
1F80
7F80
C180
C180
C180
E780
7D80
ENDCHAR
STARTCHAR 0228
ENCODING 552
SWIDTH 540 0
DWIDTH 12 0
BBX 9 20 2 -5
BITMAP
FF80
FF80
C000
C000
C000
C000
C000
FF00
C000
C000
C000
C000
C000
FF80
FF80
1800
1C00
0600
0600
1C00
ENDCHAR
STARTCHAR 0229
ENCODING 553
SWIDTH 540 0
DWIDTH 12 0
BBX 10 17 1 -5
BITMAP
0C00
3F00
6380
4180
C0C0
FFC0
FFC0
C000
C000
6180
7380
3F00
0C00
0800
0E00
0200
1E00
ENDCHAR
STARTCHAR 022A
ENCODING 554
SWIDTH 630 0
DWIDTH 14 0
BBX 12 21 1 0
BITMAP
1F80
1F80
0000
0980
0900
0000
1F80
3FC0
7060
6070
C030
C030
C030
C030
C030
C030
C030
6030
6060
39E0
1F80
ENDCHAR
STARTCHAR 022B
ENCODING 555
SWIDTH 540 0
DWIDTH 12 0
BBX 10 18 1 0
BITMAP
3F00
0000
0000
3300
1300
0000
0C00
3F00
6180
60C0
C0C0
C0C0
C0C0
C0C0
C0C0
6180
7380
3F00
ENDCHAR
STARTCHAR 022C
ENCODING 556
SWIDTH 630 0
DWIDTH 14 0
BBX 12 21 1 0
BITMAP
1F80
1F80
0000
1E80
1300
0000
1F80
3FC0
7060
6070
C030
C030
C030
C030
C030
C030
C030
6030
6060
39E0
1F80
ENDCHAR
STARTCHAR 022D
ENCODING 557
SWIDTH 540 0
DWIDTH 12 0
BBX 10 18 1 0
BITMAP
3F00
0000
0000
3900
2700
0000
0C00
3F00
6180
60C0
C0C0
C0C0
C0C0
C0C0
C0C0
6180
7380
3F00
ENDCHAR
STARTCHAR 022E
ENCODING 558
SWIDTH 630 0
DWIDTH 14 0
BBX 12 19 1 0
BITMAP
0600
0600
0000
0000
1F80
3FC0
7060
6070
C030
C030
C030
C030
C030
C030
C030
6030
6060
39E0
1F80
ENDCHAR
STARTCHAR 022F
ENCODING 559
SWIDTH 540 0
DWIDTH 12 0
BBX 10 15 1 0
BITMAP
0C00
0C00
0000
0C00
3F00
6180
60C0
C0C0
C0C0
C0C0
C0C0
C0C0
6180
7380
3F00
ENDCHAR
STARTCHAR 0230
ENCODING 560
SWIDTH 630 0
DWIDTH 14 0
BBX 12 21 1 0
BITMAP
1F80
1F80
0000
0600
0600
0000
1F80
3FC0
7060
6070
C030
C030
C030
C030
C030
C030
C030
6030
6060
39E0
1F80
ENDCHAR
STARTCHAR 0231
ENCODING 561
SWIDTH 540 0
DWIDTH 12 0
BBX 10 18 1 0
BITMAP
3F00
0000
0000
0C00
0C00
0000
0C00
3F00
6180
60C0
C0C0
C0C0
C0C0
C0C0
C0C0
6180
7380
3F00
ENDCHAR
STARTCHAR 0232
ENCODING 562
SWIDTH 540 0
DWIDTH 12 0
BBX 12 18 0 0
BITMAP
1F80
1F80
0000
C070
6060
60C0
30C0
1980
1980
0F00
0E00
0600
0600
0600
0600
0600
0600
0600
ENDCHAR
STARTCHAR 0233
ENCODING 563
SWIDTH 450 0
DWIDTH 10 0
BBX 10 19 0 -4
BITMAP
3F00
3F00
0000
0000
C0C0
60C0
6180
6180
3180
3300
1300
1B00
1E00
0E00
0C00
0C00
0C00
7800
7000
ENDCHAR
STARTCHAR 0237
ENCODING 567
SWIDTH 225 0
DWIDTH 5 0
BBX 5 15 -1 -4
BITMAP
18
18
18
18
18
18
18
18
18
18
18
18
18
F0
E0
ENDCHAR
STARTCHAR 0259
ENCODING 601
SWIDTH 540 0
DWIDTH 12 0
BBX 10 12 1 0
BITMAP
0C00
3F00
6180
0180
00C0
00C0
FFC0
C0C0
C0C0
6180
7380
3F00
ENDCHAR
STARTCHAR 02BC
ENCODING 700
SWIDTH 225 0
DWIDTH 5 0
BBX 3 5 1 10
BITMAP
60
60
40
C0
C0
ENDCHAR
STARTCHAR 02C6
ENCODING 710
SWIDTH 450 0
DWIDTH 10 0
BBX 5 3 3 13
BITMAP
60
F0
98
ENDCHAR
STARTCHAR 02C7
ENCODING 711
SWIDTH 450 0
DWIDTH 10 0
BBX 4 3 3 13
BITMAP
90
F0
60
ENDCHAR
STARTCHAR 02D8
ENCODING 728
SWIDTH 450 0
DWIDTH 10 0
BBX 6 3 2 13
BITMAP
84
CC
78
ENDCHAR
STARTCHAR 02D9
ENCODING 729
SWIDTH 450 0
DWIDTH 10 0
BBX 2 2 4 13
BITMAP
C0
C0
ENDCHAR
STARTCHAR 02DA
ENCODING 730
SWIDTH 450 0
DWIDTH 10 0
BBX 4 4 3 13
BITMAP
60
90
90
70
ENDCHAR
STARTCHAR 02DB
ENCODING 731
SWIDTH 450 0
DWIDTH 10 0
BBX 4 5 3 -4
BITMAP
20
40
C0
C0
70
ENDCHAR
STARTCHAR 02DC
ENCODING 732
SWIDTH 450 0
DWIDTH 10 0
BBX 6 3 2 13
BITMAP
40
F4
9C
ENDCHAR
STARTCHAR 02DD
ENCODING 733
SWIDTH 450 0
DWIDTH 10 0
BBX 6 3 2 13
BITMAP
6C
48
90
ENDCHAR
STARTCHAR 0300
ENCODING 768
SWIDTH 0 0
DWIDTH 0 0
BBX 3 3 -3 13
BITMAP
C0
60
20
ENDCHAR
STARTCHAR 0301
ENCODING 769
SWIDTH 0 0
DWIDTH 0 0
BBX 3 3 0 13
BITMAP
60
C0
80
ENDCHAR
STARTCHAR 0302
ENCODING 770
SWIDTH 0 0
DWIDTH 0 0
BBX 4 3 -2 13
BITMAP
60
F0
90
ENDCHAR
STARTCHAR 0303
ENCODING 771
SWIDTH 0 0
DWIDTH 0 0
BBX 6 3 -3 13
BITMAP
40
E4
9C
ENDCHAR
STARTCHAR 0304
ENCODING 772
SWIDTH 0 0
DWIDTH 0 0
BBX 6 2 -3 13
BITMAP
FC
FC
ENDCHAR
STARTCHAR 0306
ENCODING 774
SWIDTH 0 0
DWIDTH 0 0
BBX 6 3 -3 13
BITMAP
84
CC
78
ENDCHAR
STARTCHAR 0307
ENCODING 775
SWIDTH 0 0
DWIDTH 0 0
BBX 2 2 -1 13
BITMAP
C0
C0
ENDCHAR
STARTCHAR 0308
ENCODING 776
SWIDTH 0 0
DWIDTH 0 0
BBX 6 2 -3 13
BITMAP
CC
CC
ENDCHAR
STARTCHAR 0309
ENCODING 777
SWIDTH 0 0
DWIDTH 0 0
BBX 4 4 -2 13
BITMAP
E0
B0
10
20
ENDCHAR
STARTCHAR 030A
ENCODING 778
SWIDTH 0 0
DWIDTH 0 0
BBX 4 4 -2 13
BITMAP
60
90
90
F0
ENDCHAR
STARTCHAR 030B
ENCODING 779
SWIDTH 0 0
DWIDTH 0 0
BBX 6 3 -2 13
BITMAP
6C
48
90
ENDCHAR
STARTCHAR 030C
ENCODING 780
SWIDTH 0 0
DWIDTH 0 0
BBX 4 3 -2 13
BITMAP
90
F0
60
ENDCHAR
STARTCHAR 030F
ENCODING 783
SWIDTH 0 0
DWIDTH 0 0
BBX 6 3 -4 13
BITMAP
90
48
6C
ENDCHAR
STARTCHAR 0311
ENCODING 785
SWIDTH 0 0
DWIDTH 0 0
BBX 6 3 -3 13
BITMAP
78
CC
84
ENDCHAR
STARTCHAR 031B
ENCODING 795
SWIDTH 0 0
DWIDTH 0 0
BBX 4 5 0 10
BITMAP
10
10
30
F0
E0
ENDCHAR
STARTCHAR 0323
ENCODING 803
SWIDTH 0 0
DWIDTH 0 0
BBX 2 2 -1 -4
BITMAP
C0
C0
ENDCHAR
STARTCHAR 0324
ENCODING 804
SWIDTH 0 0
DWIDTH 0 0
BBX 6 2 -3 -4
BITMAP
CC
CC
ENDCHAR
STARTCHAR 0325
ENCODING 805
SWIDTH 0 0
DWIDTH 0 0
BBX 4 4 -2 -5
BITMAP
60
90
90
F0
ENDCHAR
STARTCHAR 0326
ENCODING 806
SWIDTH 0 0
DWIDTH 0 0
BBX 2 3 -1 -5
BITMAP
C0
80
80
ENDCHAR
STARTCHAR 0327
ENCODING 807
SWIDTH 0 0
DWIDTH 0 0
BBX 4 5 -2 -5
BITMAP
60
40
70
10
F0
ENDCHAR
STARTCHAR 0328
ENCODING 808
SWIDTH 0 0
DWIDTH 0 0
BBX 4 5 -2 -4
BITMAP
60
40
C0
C0
F0
ENDCHAR
STARTCHAR 032D
ENCODING 813
SWIDTH 0 0
DWIDTH 0 0
BBX 4 3 -2 -4
BITMAP
60
60
90
ENDCHAR
STARTCHAR 032E
ENCODING 814
SWIDTH 0 0
DWIDTH 0 0
BBX 6 2 -3 -5
BITMAP
84
FC
ENDCHAR
STARTCHAR 0330
ENCODING 816
SWIDTH 0 0
DWIDTH 0 0
BBX 6 2 -3 -4
BITMAP
E4
98
ENDCHAR
STARTCHAR 0331
ENCODING 817
SWIDTH 0 0
DWIDTH 0 0
BBX 6 2 -3 -4
BITMAP
FC
FC
ENDCHAR
STARTCHAR 0332
ENCODING 818
SWIDTH 0 0
DWIDTH 0 0
BBX 6 2 -3 -4
BITMAP
FC
FC
ENDCHAR
STARTCHAR 037E
ENCODING 894
SWIDTH 270 0
DWIDTH 6 0
BBX 3 13 1 -3
BITMAP
60
60
00
00
00
00
00
00
40
C0
C0
C0
80
ENDCHAR
STARTCHAR 0384
ENCODING 900
SWIDTH 405 0
DWIDTH 9 0
BBX 2 3 4 13
BITMAP
C0
80
80
ENDCHAR
STARTCHAR 0385
ENCODING 901
SWIDTH 495 0
DWIDTH 11 0
BBX 7 3 2 13
BITMAP
18
DE
D2
ENDCHAR
STARTCHAR 0386
ENCODING 902
SWIDTH 585 0
DWIDTH 13 0
BBX 12 15 1 0
BITMAP
4600
CE00
CE00
0B00
1B00
1980
3180
3180
30C0
7FC0
7FC0
6060
C060
C060
C030
ENDCHAR
STARTCHAR 0387
ENCODING 903
SWIDTH 315 0
DWIDTH 7 0
BBX 3 2 2 9
BITMAP
E0
C0
ENDCHAR
STARTCHAR 0388
ENCODING 904
SWIDTH 675 0
DWIDTH 15 0
BBX 13 15 1 0
BITMAP
CFF8
CFF8
8C00
0C00
0C00
0C00
0C00
0FF0
0C00
0C00
0C00
0C00
0C00
0FF8
0FF8
ENDCHAR
STARTCHAR 0389
ENCODING 905
SWIDTH 810 0
DWIDTH 18 0
BBX 15 15 1 0
BITMAP
CC06
CC06
8C06
0C06
0C06
0C06
0FFE
0FFE
0C06
0C06
0C06
0C06
0C06
0C06
0C06
ENDCHAR
STARTCHAR 038A
ENCODING 906
SWIDTH 405 0
DWIDTH 9 0
BBX 6 15 1 0
BITMAP
CC
CC
8C
0C
0C
0C
0C
0C
0C
0C
0C
0C
0C
0C
0C
ENDCHAR
STARTCHAR 038C
ENCODING 908
SWIDTH 720 0
DWIDTH 16 0
BBX 14 15 1 0
BITMAP
C7E0
CFF0
9C18
1818
300C
300C
300C
300C
300C
300C
300C
180C
1818
0E70
07E0
ENDCHAR
STARTCHAR 038E
ENCODING 910
SWIDTH 720 0
DWIDTH 16 0
BBX 15 15 1 0
BITMAP
DC06
CC0C
860C
0618
0330
0330
01E0
01E0
00C0
00C0
00C0
00C0
00C0
00C0
00C0
ENDCHAR
STARTCHAR 038F
ENCODING 911
SWIDTH 720 0
DWIDTH 16 0
BBX 14 15 1 0
BITMAP
C7E0
CFF0
9818
3818
300C
300C
300C
300C
300C
300C
3018
1818
0C30
3E7C
3E7C
ENDCHAR
STARTCHAR 0390
ENCODING 912
SWIDTH 270 0
DWIDTH 6 0
BBX 7 16 -1 0
BITMAP
18
DA
D2
00
00
18
18
18
18
18
18
18
18
18
1C
1E
ENDCHAR
STARTCHAR 0391
ENCODING 913
SWIDTH 585 0
DWIDTH 13 0
BBX 13 15 0 0
BITMAP
0700
0700
0500
0D80
0D80
0880
18C0
18C0
1040
3FE0
3FE0
2020
6030
6030
C018
ENDCHAR
STARTCHAR 0392
ENCODING 914
SWIDTH 585 0
DWIDTH 13 0
BBX 10 15 2 0
BITMAP
FE00
FF80
C180
C180
C080
C180
C700
FF00
C1C0
C0C0
C0C0
C0C0
C0C0
FF80
FF00
ENDCHAR
STARTCHAR 0393
ENCODING 915
SWIDTH 495 0
DWIDTH 11 0
BBX 8 15 2 0
BITMAP
FF
FF
C0
C0
C0
C0
C0
C0
C0
C0
C0
C0
C0
C0
C0
ENDCHAR
STARTCHAR 0394
ENCODING 916
SWIDTH 585 0
DWIDTH 13 0
BBX 13 15 0 0
BITMAP
0700
0700
0700
0D80
0D80
0880
18C0
18C0
3060
3060
3060
6030
6030
7FF0
FFF8
ENDCHAR
STARTCHAR 0395
ENCODING 917
SWIDTH 540 0
DWIDTH 12 0
BBX 9 15 2 0
BITMAP
FF80
FF80
C000
C000
C000
C000
C000
FF00
C000
C000
C000
C000
C000
FF80
FF80
ENDCHAR
STARTCHAR 0396
ENCODING 918
SWIDTH 540 0
DWIDTH 12 0
BBX 10 15 1 0
BITMAP
FFC0
FFC0
01C0
0180
0300
0700
0600
0C00
1800
1800
3000
6000
6000
FFC0
FFC0
ENDCHAR
STARTCHAR 0397
ENCODING 919
SWIDTH 675 0
DWIDTH 15 0
BBX 11 15 2 0
BITMAP
C060
C060
C060
C060
C060
C060
FFE0
FFE0
C060
C060
C060
C060
C060
C060
C060
ENDCHAR
STARTCHAR 0398
ENCODING 920
SWIDTH 675 0
DWIDTH 15 0
BBX 12 15 1 0
BITMAP
1F80
3FE0
7060
6030
C030
C030
C030
DFB0
C030
C030
C030
6030
6060
39E0
1FC0
ENDCHAR
STARTCHAR 0399
ENCODING 921
SWIDTH 225 0
DWIDTH 5 0
BBX 2 15 2 0
BITMAP
C0
C0
C0
C0
C0
C0
C0
C0
C0
C0
C0
C0
C0
C0
C0
ENDCHAR
STARTCHAR 039A
ENCODING 922
SWIDTH 585 0
DWIDTH 13 0
BBX 10 15 2 0
BITMAP
C0C0
C180
C300
C700
CE00
DC00
D800
FC00
EC00
C600
C700
C300
C180
C1C0
C0C0
ENDCHAR
STARTCHAR 039B
ENCODING 923
SWIDTH 585 0
DWIDTH 13 0
BBX 12 15 0 0
BITMAP
0600
0700
0700
0D00
0D80
0980
1880
18C0
30C0
3040
3060
6060
6020
6030
C030
ENDCHAR
STARTCHAR 039C
ENCODING 924
SWIDTH 765 0
DWIDTH 17 0
BBX 13 15 2 0
BITMAP
C018
C018
E018
E038
F028
F068
D068
D8C8
D8C8
CC88
CD88
C708
C708
C308
C008
ENDCHAR
STARTCHAR 039D
ENCODING 925
SWIDTH 675 0
DWIDTH 15 0
BBX 11 15 2 0
BITMAP
C060
C060
E060
F060
F060
D860
CC60
CC60
C660
C360
C360
C1E0
C0E0
C0E0
C060
ENDCHAR
STARTCHAR 039E
ENCODING 926
SWIDTH 540 0
DWIDTH 12 0
BBX 10 15 1 0
BITMAP
FFC0
FFC0
0000
0000
0000
0000
0000
7F80
0000
0000
0000
0000
0000
FFC0
FFC0
ENDCHAR
STARTCHAR 039F
ENCODING 927
SWIDTH 630 0
DWIDTH 14 0
BBX 12 15 1 0
BITMAP
1F80
3FC0
7060
6070
C030
C030
C030
C030
C030
C030
C030
6030
6060
39E0
1F80
ENDCHAR
STARTCHAR 03A0
ENCODING 928
SWIDTH 675 0
DWIDTH 15 0
BBX 11 15 2 0
BITMAP
FFE0
FFE0
C060
C060
C060
C060
C060
C060
C060
C060
C060
C060
C060
C060
C060
ENDCHAR
STARTCHAR 03A1
ENCODING 929
SWIDTH 540 0
DWIDTH 12 0
BBX 10 15 2 0
BITMAP
FE00
FF80
C180
C0C0
C0C0
C0C0
C0C0
C380
FF00
C000
C000
C000
C000
C000
C000
ENDCHAR
STARTCHAR 03A3
ENCODING 931
SWIDTH 540 0
DWIDTH 12 0
BBX 10 15 1 0
BITMAP
FFC0
FFC0
6000
7000
3000
1800
1C00
0C00
0C00
1800
3000
7000
6000
FFC0
FFC0
ENDCHAR
STARTCHAR 03A4
ENCODING 932
SWIDTH 495 0
DWIDTH 11 0
BBX 11 15 0 0
BITMAP
FFE0
FFE0
0600
0600
0600
0600
0600
0600
0600
0600
0600
0600
0600
0600
0600
ENDCHAR
STARTCHAR 03A5
ENCODING 933
SWIDTH 540 0
DWIDTH 12 0
BBX 12 15 0 0
BITMAP
C070
6060
60C0
30C0
1980
1980
0F00
0E00
0600
0600
0600
0600
0600
0600
0600
ENDCHAR
STARTCHAR 03A6
ENCODING 934
SWIDTH 765 0
DWIDTH 17 0
BBX 14 16 1 -1
BITMAP
0300
0FE0
3FF8
7318
630C
C30C
C304
C304
C304
C30C
630C
631C
3B38
1FF0
0300
0300
ENDCHAR
STARTCHAR 03A7
ENCODING 935
SWIDTH 540 0
DWIDTH 12 0
BBX 12 15 0 0
BITMAP
E030
6060
30E0
38C0
1980
0D80
0F00
0600
0F00
0F00
1980
30C0
30C0
6060
E070
ENDCHAR
STARTCHAR 03A8
ENCODING 936
SWIDTH 720 0
DWIDTH 16 0
BBX 13 15 1 0
BITMAP
C318
C318
C318
C318
C318
C318
4318
4318
6318
7330
3FE0
0780
0300
0300
0300
ENDCHAR
STARTCHAR 03A9
ENCODING 937
SWIDTH 675 0
DWIDTH 15 0
BBX 12 15 1 0
BITMAP
1F80
3FE0
7060
6030
6030
C030
C030
C030
C030
4030
6030
6060
3060
F9F0
F9F0
ENDCHAR
STARTCHAR 03AA
ENCODING 938
SWIDTH 225 0
DWIDTH 5 0
BBX 5 18 0 0
BITMAP
D8
C8
00
30
30
30
30
30
30
30
30
30
30
30
30
30
30
30
ENDCHAR
STARTCHAR 03AB
ENCODING 939
SWIDTH 540 0
DWIDTH 12 0
BBX 12 18 0 0
BITMAP
1900
0900
0000
C070
6060
60C0
30C0
1980
1980
0F00
0E00
0600
0600
0600
0600
0600
0600
0600
ENDCHAR
STARTCHAR 03AC
ENCODING 940
SWIDTH 585 0
DWIDTH 13 0
BBX 11 16 1 0
BITMAP
0600
0C00
0C00
0000
0800
3EC0
63C0
61C0
C0C0
C0C0
C0C0
C0C0
C0C0
61C0
73C0
3E60
ENDCHAR
STARTCHAR 03AD
ENCODING 941
SWIDTH 540 0
DWIDTH 12 0
BBX 10 16 1 0
BITMAP
0600
0600
0400
0000
0C00
7F80
6180
40C0
4000
7E00
3E00
6000
C0C0
C0C0
7380
3F00
ENDCHAR
STARTCHAR 03AE
ENCODING 942
SWIDTH 585 0
DWIDTH 13 0
BBX 11 20 1 -4
BITMAP
0600
0400
0C00
0000
0300
EFC0
78C0
3060
3060
2060
2060
2060
2060
2060
2060
2060
0060
0060
0060
0060
ENDCHAR
STARTCHAR 03AF
ENCODING 943
SWIDTH 270 0
DWIDTH 6 0
BBX 4 16 2 0
BITMAP
40
C0
C0
00
00
C0
C0
C0
C0
C0
C0
C0
C0
C0
E0
F0
ENDCHAR
STARTCHAR 03B0
ENCODING 944
SWIDTH 540 0
DWIDTH 12 0
BBX 10 16 1 0
BITMAP
0C00
6F00
6900
0000
0000
C180
C180
C080
C0C0
C0C0
C0C0
C0C0
4180
6180
7700
3E00
ENDCHAR
STARTCHAR 03B1
ENCODING 945
SWIDTH 585 0
DWIDTH 13 0
BBX 11 12 1 0
BITMAP
0800
3EC0
63C0
61C0
C0C0
C0C0
C0C0
C0C0
C0C0
61C0
73C0
3E60
ENDCHAR
STARTCHAR 03B2
ENCODING 946
SWIDTH 585 0
DWIDTH 13 0
BBX 10 20 2 -4
BITMAP
3C00
7F00
C300
C180
C180
C100
C300
DE00
C700
C180
C080
C0C0
C080
C180
F780
DF00
C000
C000
C000
C000
ENDCHAR
STARTCHAR 03B3
ENCODING 947
SWIDTH 495 0
DWIDTH 11 0
BBX 9 15 1 -4
BITMAP
8180
C180
C180
4180
6180
6100
2300
3300
3600
1C00
1C00
1800
1800
1800
1800
ENDCHAR
STARTCHAR 03B4
ENCODING 948
SWIDTH 540 0
DWIDTH 12 0
BBX 10 16 1 0
BITMAP
0F00
3F80
3000
3000
3800
0E00
3F00
6180
C0C0
C0C0
C0C0
C0C0
C0C0
6180
7380
3F00
ENDCHAR
STARTCHAR 03B5
ENCODING 949
SWIDTH 540 0
DWIDTH 12 0
BBX 10 12 1 0
BITMAP
0C00
7F80
6180
40C0
4000
7E00
3E00
6000
C0C0
C0C0
7380
3F00
ENDCHAR
STARTCHAR 03B6
ENCODING 950
SWIDTH 450 0
DWIDTH 10 0
BBX 8 20 1 -4
BITMAP
7F
7F
07
0C
18
30
60
60
C0
C0
C0
C0
60
70
3C
0F
03
01
03
03
ENDCHAR
STARTCHAR 03B7
ENCODING 951
SWIDTH 585 0
DWIDTH 13 0
BBX 11 16 1 -4
BITMAP
0300
EFC0
78C0
3060
3060
2060
2060
2060
2060
2060
2060
2060
0060
0060
0060
0060
ENDCHAR
STARTCHAR 03B8
ENCODING 952
SWIDTH 585 0
DWIDTH 13 0
BBX 10 16 1 0
BITMAP
1E00
3F80
6180
60C0
C0C0
C0C0
C0C0
FFC0
FFC0
C0C0
C0C0
C0C0
60C0
60C0
3380
1F00
ENDCHAR
STARTCHAR 03B9
ENCODING 953
SWIDTH 270 0
DWIDTH 6 0
BBX 4 11 2 0
BITMAP
C0
C0
C0
C0
C0
C0
C0
C0
C0
E0
F0
ENDCHAR
STARTCHAR 03BA
ENCODING 954
SWIDTH 540 0
DWIDTH 12 0
BBX 9 11 2 1
BITMAP
C380
C600
CC00
D800
D800
FC00
E600
C600
C300
C300
C180
ENDCHAR
STARTCHAR 03BB
ENCODING 955
SWIDTH 540 0
DWIDTH 12 0
BBX 10 16 1 0
BITMAP
6000
7000
1800
1800
0800
0C00
0C00
1C00
1E00
3600
3200
6300
6300
6180
C180
C0C0
ENDCHAR
STARTCHAR 03BC
ENCODING 956
SWIDTH 585 0
DWIDTH 13 0
BBX 10 15 2 -4
BITMAP
C180
C180
C180
C180
C180
C180
C180
C180
C380
FF80
FCC0
C000
C000
C000
C000
ENDCHAR
STARTCHAR 03BD
ENCODING 957
SWIDTH 495 0
DWIDTH 11 0
BBX 9 11 1 0
BITMAP
8180
C180
C180
4180
6180
6100
2300
3300
3600
1C00
1C00
ENDCHAR
STARTCHAR 03BE
ENCODING 958
SWIDTH 450 0
DWIDTH 10 0
BBX 9 20 1 -4
BITMAP
7F00
7F00
3000
6000
6000
6000
7000
3F00
3800
6000
C000
C000
E000
7000
3C00
0F00
0300
0180
0100
0300
ENDCHAR
STARTCHAR 03BF
ENCODING 959
SWIDTH 540 0
DWIDTH 12 0
BBX 10 12 1 0
BITMAP
0C00
3F00
6180
60C0
C0C0
C0C0
C0C0
C0C0
C0C0
6180
7380
3F00
ENDCHAR
STARTCHAR 03C0
ENCODING 960
SWIDTH 675 0
DWIDTH 15 0
BBX 13 11 1 0
BITMAP
FFF8
30C0
30C0
30C0
30C0
30C0
30C0
30C0
30C0
3060
3070
ENDCHAR
STARTCHAR 03C1
ENCODING 961
SWIDTH 540 0
DWIDTH 12 0
BBX 9 16 2 -4
BITMAP
1800
7F00
E300
C180
C180
8180
8180
8180
C180
C180
F700
BE00
8000
8000
8000
8000
ENDCHAR
STARTCHAR 03C2
ENCODING 962
SWIDTH 495 0
DWIDTH 11 0
BBX 9 16 1 -4
BITMAP
0C00
3F00
7180
6180
C000
C000
C000
C000
6000
7000
3C00
0F00
0300
0300
0300
0300
ENDCHAR
STARTCHAR 03C3
ENCODING 963
SWIDTH 585 0
DWIDTH 13 0
BBX 11 11 1 0
BITMAP
3FE0
7380
6080
C0C0
C0C0
C0C0
C0C0
C0C0
6180
7380
3F00
ENDCHAR
STARTCHAR 03C4
ENCODING 964
SWIDTH 495 0
DWIDTH 11 0
BBX 9 11 1 0
BITMAP
FF80
1800
1800
1800
1800
1800
1800
1800
1800
1C00
0F00
ENDCHAR
STARTCHAR 03C5
ENCODING 965
SWIDTH 540 0
DWIDTH 12 0
BBX 10 11 1 0
BITMAP
C180
C180
C080
C0C0
C0C0
C0C0
C0C0
4180
6180
7700
3E00
ENDCHAR
STARTCHAR 03C6
ENCODING 966
SWIDTH 720 0
DWIDTH 16 0
BBX 13 18 1 -4
BITMAP
0300
0300
0780
3FE0
7330
6318
C318
C308
C308
C308
C318
6318
3B70
1FE0
0300
0300
0300
0300
ENDCHAR
STARTCHAR 03C7
ENCODING 967
SWIDTH 540 0
DWIDTH 12 0
BBX 11 15 0 -3
BITMAP
E060
30C0
1080
1980
0900
0F00
0600
0600
0E00
0F00
1900
1980
3080
20E0
6060
ENDCHAR
STARTCHAR 03C8
ENCODING 968
SWIDTH 675 0
DWIDTH 15 0
BBX 13 18 1 -4
BITMAP
0200
0200
0200
C230
C210
C218
C218
C218
C218
C218
4218
6230
7AF0
1FC0
0200
0200
0200
0200
ENDCHAR
STARTCHAR 03C9
ENCODING 969
SWIDTH 720 0
DWIDTH 16 0
BBX 14 11 1 0
BITMAP
3018
6018
600C
430C
C30C
C30C
C30C
C30C
630C
76D8
3CF8
ENDCHAR
STARTCHAR 03CA
ENCODING 970
SWIDTH 270 0
DWIDTH 6 0
BBX 6 15 0 0
BITMAP
CC
C8
00
00
30
30
30
30
30
30
30
30
30
38
3C
ENDCHAR
STARTCHAR 03CB
ENCODING 971
SWIDTH 540 0
DWIDTH 12 0
BBX 10 15 1 0
BITMAP
3300
3300
0000
0000
C180
C180
C080
C0C0
C0C0
C0C0
C0C0
4180
6180
7700
3E00
ENDCHAR
STARTCHAR 03CC
ENCODING 972
SWIDTH 540 0
DWIDTH 12 0
BBX 10 16 1 0
BITMAP
0600
0400
0400
0000
0C00
3F00
6180
60C0
C0C0
C0C0
C0C0
C0C0
C0C0
6180
7380
3F00
ENDCHAR
STARTCHAR 03CD
ENCODING 973
SWIDTH 540 0
DWIDTH 12 0
BBX 10 16 1 0
BITMAP
0C00
0C00
0800
0000
0000
C180
C180
C080
C0C0
C0C0
C0C0
C0C0
4180
6180
7700
3E00
ENDCHAR
STARTCHAR 03CE
ENCODING 974
SWIDTH 720 0
DWIDTH 16 0
BBX 14 16 1 0
BITMAP
0180
0180
0100
0000
0000
3018
6018
600C
430C
C30C
C30C
C30C
C30C
630C
76D8
3CF8
ENDCHAR
STARTCHAR 0400
ENCODING 1024
SWIDTH 540 0
DWIDTH 12 0
BBX 9 19 2 0
BITMAP
3000
1000
0800
0000
FF80
FF80
C000
C000
C000
C000
C000
FF00
C000
C000
C000
C000
C000
FF80
FF80
ENDCHAR
STARTCHAR 0401
ENCODING 1025
SWIDTH 540 0
DWIDTH 12 0
BBX 9 18 2 0
BITMAP
3600
2600
0000
FF80
FF80
C000
C000
C000
C000
C000
FF00
C000
C000
C000
C000
C000
FF80
FF80
ENDCHAR
STARTCHAR 0402
ENCODING 1026
SWIDTH 720 0
DWIDTH 16 0
BBX 15 15 0 0
BITMAP
FFE0
FFE0
0600
0600
0600
0600
06F8
07FC
060E
0606
0606
0606
0606
067C
0678
ENDCHAR
STARTCHAR 0403
ENCODING 1027
SWIDTH 495 0
DWIDTH 11 0
BBX 9 19 2 0
BITMAP
0600
0C00
0800
0000
FF80
FF80
C000
C000
C000
C000
C000
C000
C000
C000
C000
C000
C000
C000
C000
ENDCHAR
STARTCHAR 0404
ENCODING 1028
SWIDTH 630 0
DWIDTH 14 0
BBX 12 15 1 0
BITMAP
1F80
3FC0
7060
6060
4030
C000
C000
FF00
C000
C000
C000
6020
6060
39C0
1F80
ENDCHAR
STARTCHAR 0405
ENCODING 1029
SWIDTH 585 0
DWIDTH 13 0
BBX 11 15 1 0
BITMAP
3F00
7F80
60C0
C0C0
C000
E000
7800
3F80
03C0
00C0
0060
C060
C0C0
71C0
3F80
ENDCHAR
STARTCHAR 0406
ENCODING 1030
SWIDTH 270 0
DWIDTH 6 0
BBX 2 15 2 0
BITMAP
C0
C0
C0
C0
C0
C0
C0
C0
C0
C0
C0
C0
C0
C0
C0
ENDCHAR
STARTCHAR 0407
ENCODING 1031
SWIDTH 270 0
DWIDTH 6 0
BBX 5 18 0 0
BITMAP
C8
C8
00
30
30
30
30
30
30
30
30
30
30
30
30
30
30
30
ENDCHAR
STARTCHAR 0408
ENCODING 1032
SWIDTH 495 0
DWIDTH 11 0
BBX 9 15 0 0
BITMAP
0180
0180
0180
0180
0180
0180
0180
0180
0180
0180
0180
0180
C180
7700
3E00
ENDCHAR
STARTCHAR 0409
ENCODING 1033
SWIDTH 945 0
DWIDTH 21 0
BBX 20 15 0 0
BITMAP
1FF000
1FF000
183000
183000
183000
183000
183FE0
183070
183030
183030
183030
183030
303030
F03FE0
E03FC0
ENDCHAR
STARTCHAR 040A
ENCODING 1034
SWIDTH 990 0
DWIDTH 22 0
BBX 19 15 2 0
BITMAP
C06000
C06000
C06000
C06000
C06000
C06000
FFFF80
FFFFC0
C06060
C06060
C06060
C06060
C06060
C07FC0
C07F80
ENDCHAR
STARTCHAR 040B
ENCODING 1035
SWIDTH 765 0
DWIDTH 17 0
BBX 15 15 0 0
BITMAP
FFE0
FFE0
0600
0600
0600
0600
06F0
07FC
060C
0606
0606
0606
0606
0606
0606
ENDCHAR
STARTCHAR 040C
ENCODING 1036
SWIDTH 585 0
DWIDTH 13 0
BBX 10 19 2 0
BITMAP
0300
0400
0C00
0000
C0C0
C180
C300
C600
CC00
D800
F000
F000
F800
DC00
CC00
C600
C300
C180
C0C0
ENDCHAR
STARTCHAR 040D
ENCODING 1037
SWIDTH 675 0
DWIDTH 15 0
BBX 11 19 2 0
BITMAP
1800
0C00
0400
0000
C060
C060
C0E0
C1E0
C160
C360
C660
C460
CC60
D860
D860
F060
E060
E060
C060
ENDCHAR
STARTCHAR 040E
ENCODING 1038
SWIDTH 540 0
DWIDTH 12 0
BBX 12 19 0 0
BITMAP
1080
1980
0F00
0000
C030
6060
6060
30C0
30C0
10C0
1980
1980
0F00
0F00
0600
0600
0C00
3C00
3800
ENDCHAR
STARTCHAR 040F
ENCODING 1039
SWIDTH 675 0
DWIDTH 15 0
BBX 11 18 2 -3
BITMAP
C060
C060
C060
C060
C060
C060
C060
C060
C060
C060
C060
C060
C060
FFE0
FFE0
0400
0400
0400
ENDCHAR
STARTCHAR 0410
ENCODING 1040
SWIDTH 585 0
DWIDTH 13 0
BBX 12 15 1 0
BITMAP
0600
0E00
0E00
1B00
1B00
1900
3180
3180
30C0
7FC0
7FC0
6060
C060
C060
C030
ENDCHAR
STARTCHAR 0411
ENCODING 1041
SWIDTH 585 0
DWIDTH 13 0
BBX 10 15 2 0
BITMAP
FF80
FF80
C000
C000
C000
C000
FE00
FF80
C180
C0C0
C0C0
C0C0
C180
FF80
FF00
ENDCHAR
STARTCHAR 0412
ENCODING 1042
SWIDTH 585 0
DWIDTH 13 0
BBX 10 15 2 0
BITMAP
FE00
FF80
C180
C0C0
C080
C180
C700
FF00
C1C0
C0C0
C0C0
C0C0
C0C0
FF80
FF00
ENDCHAR
STARTCHAR 0413
ENCODING 1043
SWIDTH 495 0
DWIDTH 11 0
BBX 9 15 2 0
BITMAP
FF80
FF80
C000
C000
C000
C000
C000
C000
C000
C000
C000
C000
C000
C000
C000
ENDCHAR
STARTCHAR 0414
ENCODING 1044
SWIDTH 675 0
DWIDTH 15 0
BBX 15 18 0 -3
BITMAP
1FF8
1FF8
1818
1818
1818
1818
1818
1818
1818
1818
1818
1018
3018
FFFE
FFFE
C006
C006
C006
ENDCHAR
STARTCHAR 0415
ENCODING 1045
SWIDTH 540 0
DWIDTH 12 0
BBX 9 15 2 0
BITMAP
FF80
FF80
C000
C000
C000
C000
C000
FF00
C000
C000
C000
C000
C000
FF80
FF80
ENDCHAR
STARTCHAR 0416
ENCODING 1046
SWIDTH 855 0
DWIDTH 19 0
BBX 18 15 1 0
BITMAP
C0C1C0
60C380
30C700
38C600
1CCC00
0ED800
07F000
03F000
06F000
0ED800
1CCC00
38C600
70C300
60C380
C0C1C0
ENDCHAR
STARTCHAR 0417
ENCODING 1047
SWIDTH 585 0
DWIDTH 13 0
BBX 11 15 1 0
BITMAP
1F00
7F80
60C0
C0C0
00C0
00C0
0380
1F00
01C0
00C0
0060
C060
C0C0
71C0
3F80
ENDCHAR
STARTCHAR 0418
ENCODING 1048
SWIDTH 675 0
DWIDTH 15 0
BBX 11 15 2 0
BITMAP
C060
C060
C0E0
C1E0
C160
C360
C660
C460
CC60
D860
D860
F060
E060
E060
C060
ENDCHAR
STARTCHAR 0419
ENCODING 1049
SWIDTH 675 0
DWIDTH 15 0
BBX 11 19 2 0
BITMAP
3080
1B00
0E00
0000
C060
C060
C0E0
C1E0
C160
C360
C660
C460
CC60
D860
D860
F060
E060
E060
C060
ENDCHAR
STARTCHAR 041A
ENCODING 1050
SWIDTH 585 0
DWIDTH 13 0
BBX 10 15 2 0
BITMAP
C0C0
C180
C300
C600
CC00
D800
F000
F000
F800
DC00
CC00
C600
C300
C180
C0C0
ENDCHAR
STARTCHAR 041B
ENCODING 1051
SWIDTH 630 0
DWIDTH 14 0
BBX 12 15 0 0
BITMAP
1FF0
1FF0
1830
1830
1830
1830
1830
1830
1830
1830
1830
1830
3030
F030
E030
ENDCHAR
STARTCHAR 041C
ENCODING 1052
SWIDTH 765 0
DWIDTH 17 0
BBX 13 15 2 0
BITMAP
C018
C018
E018
E038
F038
F068
D068
D8C8
C8C8
CC88
CD88
C708
C708
C308
C008
ENDCHAR
STARTCHAR 041D
ENCODING 1053
SWIDTH 675 0
DWIDTH 15 0
BBX 11 15 2 0
BITMAP
C060
C060
C060
C060
C060
C060
FFE0
FFE0
C060
C060
C060
C060
C060
C060
C060
ENDCHAR
STARTCHAR 041E
ENCODING 1054
SWIDTH 630 0
DWIDTH 14 0
BBX 12 15 1 0
BITMAP
1F80
3FC0
7060
6030
4030
C030
C030
C030
C030
C030
C030
6030
6060
39E0
1F80
ENDCHAR
STARTCHAR 041F
ENCODING 1055
SWIDTH 675 0
DWIDTH 15 0
BBX 11 15 2 0
BITMAP
FFE0
FFE0
C060
C060
C060
C060
C060
C060
C060
C060
C060
C060
C060
C060
C060
ENDCHAR
STARTCHAR 0420
ENCODING 1056
SWIDTH 585 0
DWIDTH 13 0
BBX 10 15 2 0
BITMAP
FE00
FF80
C180
C0C0
C0C0
C0C0
C0C0
C380
FF00
C000
C000
C000
C000
C000
C000
ENDCHAR
STARTCHAR 0421
ENCODING 1057
SWIDTH 630 0
DWIDTH 14 0
BBX 12 15 1 0
BITMAP
1F80
3FC0
7060
6060
4030
C000
C000
C000
C000
C000
C000
6020
6060
39C0
1F80
ENDCHAR
STARTCHAR 0422
ENCODING 1058
SWIDTH 540 0
DWIDTH 12 0
BBX 11 15 0 0
BITMAP
FFE0
FFE0
0600
0600
0600
0600
0600
0600
0600
0600
0600
0600
0600
0600
0600
ENDCHAR
STARTCHAR 0423
ENCODING 1059
SWIDTH 540 0
DWIDTH 12 0
BBX 12 15 0 0
BITMAP
C030
6060
6060
30C0
30C0
10C0
1980
1980
0F00
0F00
0600
0600
0C00
3C00
3800
ENDCHAR
STARTCHAR 0424
ENCODING 1060
SWIDTH 765 0
DWIDTH 17 0
BBX 15 15 1 0
BITMAP
0180
0180
1FF0
393C
610C
C106
C106
C106
C106
C106
610C
393C
1FF0
0180
0180
ENDCHAR
STARTCHAR 0425
ENCODING 1061
SWIDTH 540 0
DWIDTH 12 0
BBX 12 15 0 0
BITMAP
E030
6060
3060
38C0
1980
0D80
0F00
0600
0F00
0F80
1980
38C0
30C0
6060
E030
ENDCHAR
STARTCHAR 0426
ENCODING 1062
SWIDTH 720 0
DWIDTH 16 0
BBX 13 18 2 -3
BITMAP
C060
C060
C060
C060
C060
C060
C060
C060
C060
C060
C060
C060
C060
FFF8
FFF8
0018
0018
0018
ENDCHAR
STARTCHAR 0427
ENCODING 1063
SWIDTH 630 0
DWIDTH 14 0
BBX 10 15 2 0
BITMAP
80C0
80C0
80C0
80C0
80C0
C0C0
C0C0
F3C0
7FC0
00C0
00C0
00C0
00C0
00C0
00C0
ENDCHAR
STARTCHAR 0428
ENCODING 1064
SWIDTH 900 0
DWIDTH 20 0
BBX 16 15 2 0
BITMAP
C181
C181
C181
C181
C181
C181
C181
C181
C181
C181
C181
C181
C181
FFFF
FFFF
ENDCHAR
STARTCHAR 0429
ENCODING 1065
SWIDTH 945 0
DWIDTH 21 0
BBX 18 18 2 -3
BITMAP
C18100
C18100
C18100
C18100
C18100
C18100
C18100
C18100
C18100
C18100
C18100
C18100
C18100
FFFFC0
FFFFC0
000040
000040
000040
ENDCHAR
STARTCHAR 042A
ENCODING 1066
SWIDTH 675 0
DWIDTH 15 0
BBX 14 15 0 0
BITMAP
FC00
FC00
0C00
0C00
0C00
0C00
0FF0
0C38
0C0C
0C0C
0C0C
0C0C
0C18
0FF8
0FF0
ENDCHAR
STARTCHAR 042B
ENCODING 1067
SWIDTH 765 0
DWIDTH 17 0
BBX 14 15 2 0
BITMAP
C00C
C00C
C00C
C00C
C00C
C00C
FF0C
C38C
C0CC
C0CC
C0CC
C0CC
C1CC
FF8C
FF0C
ENDCHAR
STARTCHAR 042C
ENCODING 1068
SWIDTH 585 0
DWIDTH 13 0
BBX 10 15 2 0
BITMAP
C000
C000
C000
C000
C000
C000
FF00
C380
C0C0
C0C0
C0C0
C0C0
C1C0
FF80
FF00
ENDCHAR
STARTCHAR 042D
ENCODING 1069
SWIDTH 630 0
DWIDTH 14 0
BBX 12 15 1 0
BITMAP
1F00
3FC0
60E0
C060
C060
0020
0030
1FF0
0030
0030
0060
C060
60E0
79C0
3F80
ENDCHAR
STARTCHAR 042E
ENCODING 1070
SWIDTH 855 0
DWIDTH 19 0
BBX 16 15 2 0
BITMAP
C1F8
C3FC
C706
C606
CC03
CC03
FC03
FC03
CC03
CC03
CC03
C606
C606
C39C
C1F8
ENDCHAR
STARTCHAR 042F
ENCODING 1071
SWIDTH 585 0
DWIDTH 13 0
BBX 10 15 1 0
BITMAP
1FC0
3FC0
6040
C040
C040
C040
6040
7FC0
3FC0
1840
1840
3040
7040
6040
C040
ENDCHAR
STARTCHAR 0430
ENCODING 1072
SWIDTH 540 0
DWIDTH 12 0
BBX 9 12 1 0
BITMAP
0C00
3F00
6380
4180
0180
1F80
7F80
C180
C180
C180
6780
7D80
ENDCHAR
STARTCHAR 0431
ENCODING 1073
SWIDTH 540 0
DWIDTH 12 0
BBX 10 16 1 0
BITMAP
00C0
0FC0
3F00
7000
6000
5F00
F380
E0C0
C0C0
C0C0
C0C0
C0C0
40C0
60C0
7380
1F00
ENDCHAR
STARTCHAR 0432
ENCODING 1074
SWIDTH 540 0
DWIDTH 12 0
BBX 9 11 2 0
BITMAP
FE00
C300
C300
C300
FE00
FE00
C300
C180
C180
C700
FE00
ENDCHAR
STARTCHAR 0433
ENCODING 1075
SWIDTH 450 0
DWIDTH 10 0
BBX 7 11 2 0
BITMAP
FE
C0
C0
C0
C0
C0
C0
C0
C0
C0
C0
ENDCHAR
STARTCHAR 0434
ENCODING 1076
SWIDTH 585 0
DWIDTH 13 0
BBX 13 14 0 -3
BITMAP
1FE0
1860
1860
1860
1060
1060
1060
3060
3060
FFF8
FFF8
C018
C018
C018
ENDCHAR
STARTCHAR 0435
ENCODING 1077
SWIDTH 540 0
DWIDTH 12 0
BBX 10 12 1 0
BITMAP
0C00
3F00
6180
6180
C0C0
FFC0
FFC0
C000
C000
6180
7380
3F00
ENDCHAR
STARTCHAR 0436
ENCODING 1078
SWIDTH 720 0
DWIDTH 16 0
BBX 15 11 0 0
BITMAP
618E
319C
19B8
0DB0
07E0
07E0
0DF0
19B8
3198
718C
E186
ENDCHAR
STARTCHAR 0437
ENCODING 1079
SWIDTH 495 0
DWIDTH 11 0
BBX 9 12 1 0
BITMAP
1800
7F00
E300
C100
0300
1F00
1F00
0380
0180
C180
7700
3E00
ENDCHAR
STARTCHAR 0438
ENCODING 1080
SWIDTH 585 0
DWIDTH 13 0
BBX 9 11 2 0
BITMAP
C180
C380
C780
C780
CD80
D980
D980
F180
E180
C180
C180
ENDCHAR
STARTCHAR 0439
ENCODING 1081
SWIDTH 585 0
DWIDTH 13 0
BBX 9 16 2 0
BITMAP
6300
2200
3C00
0000
0000
C180
C380
C780
C780
CD80
D980
D980
F180
E180
C180
C180
ENDCHAR
STARTCHAR 043A
ENCODING 1082
SWIDTH 495 0
DWIDTH 11 0
BBX 8 11 2 0
BITMAP
C7
CE
DC
D8
F0
F0
F8
DC
CE
C7
C3
ENDCHAR
STARTCHAR 043B
ENCODING 1083
SWIDTH 540 0
DWIDTH 12 0
BBX 10 11 1 0
BITMAP
3FC0
30C0
30C0
20C0
20C0
20C0
20C0
20C0
60C0
E0C0
C0C0
ENDCHAR
STARTCHAR 043C
ENCODING 1084
SWIDTH 720 0
DWIDTH 16 0
BBX 12 11 2 0
BITMAP
C070
E070
E0F0
F0F0
F1B0
D9B0
D930
CF30
CE30
C630
C030
ENDCHAR
STARTCHAR 043D
ENCODING 1085
SWIDTH 585 0
DWIDTH 13 0
BBX 9 11 2 0
BITMAP
C180
C180
C180
C180
FF80
FF80
C180
C180
C180
C180
C180
ENDCHAR
STARTCHAR 043E
ENCODING 1086
SWIDTH 540 0
DWIDTH 12 0
BBX 10 12 1 0
BITMAP
0C00
3F00
7180
60C0
C0C0
C0C0
C0C0
C0C0
40C0
61C0
7380
1F00
ENDCHAR
STARTCHAR 043F
ENCODING 1087
SWIDTH 585 0
DWIDTH 13 0
BBX 9 11 2 0
BITMAP
FF80
C180
C180
C180
C180
C180
C180
C180
C180
C180
C180
ENDCHAR
STARTCHAR 0440
ENCODING 1088
SWIDTH 585 0
DWIDTH 13 0
BBX 9 16 2 -4
BITMAP
0C00
FF00
E380
C180
C180
C080
C080
C080
C180
C180
F700
DE00
C000
C000
C000
C000
ENDCHAR
STARTCHAR 0441
ENCODING 1089
SWIDTH 540 0
DWIDTH 12 0
BBX 9 12 1 0
BITMAP
0C00
3F00
7180
6180
C000
C000
C000
C000
4000
6180
7B80
1F00
ENDCHAR
STARTCHAR 0442
ENCODING 1090
SWIDTH 450 0
DWIDTH 10 0
BBX 9 11 1 0
BITMAP
FF80
1800
1800
1800
1800
1800
1800
1800
1800
1800
1800
ENDCHAR
STARTCHAR 0443
ENCODING 1091
SWIDTH 495 0
DWIDTH 11 0
BBX 10 15 0 -4
BITMAP
E0C0
60C0
6080
3180
3180
3100
1B00
1B00
1A00
0E00
0E00
0C00
0C00
7800
7000
ENDCHAR
STARTCHAR 0444
ENCODING 1092
SWIDTH 720 0
DWIDTH 16 0
BBX 13 19 1 -4
BITMAP
0300
0300
0300
0780
3FE0
7330
6318
C318
C318
C318
C318
4318
6338
3B70
1FE0
0300
0300
0300
0300
ENDCHAR
STARTCHAR 0445
ENCODING 1093
SWIDTH 495 0
DWIDTH 11 0
BBX 9 11 1 0
BITMAP
C180
6300
7600
3600
1C00
1C00
3C00
3600
6300
E300
C180
ENDCHAR
STARTCHAR 0446
ENCODING 1094
SWIDTH 585 0
DWIDTH 13 0
BBX 11 14 2 -3
BITMAP
C180
C180
C180
C180
C180
C180
C180
C180
C180
FFE0
FFE0
0060
0060
0060
ENDCHAR
STARTCHAR 0447
ENCODING 1095
SWIDTH 540 0
DWIDTH 12 0
BBX 8 11 2 0
BITMAP
81
81
81
81
C1
FF
7D
01
01
01
01
ENDCHAR
STARTCHAR 0448
ENCODING 1096
SWIDTH 810 0
DWIDTH 18 0
BBX 14 11 2 0
BITMAP
C30C
C30C
C30C
C30C
C30C
C30C
C30C
C30C
C30C
FFFC
FFFC
ENDCHAR
STARTCHAR 0449
ENCODING 1097
SWIDTH 810 0
DWIDTH 18 0
BBX 16 14 2 -3
BITMAP
C30C
C30C
C30C
C30C
C30C
C30C
C30C
C30C
C30C
FFFF
FFFF
0003
0003
0003
ENDCHAR
STARTCHAR 044A
ENCODING 1098
SWIDTH 540 0
DWIDTH 12 0
BBX 10 11 1 0
BITMAP
F000
3000
3000
3C00
3F80
30C0
30C0
30C0
30C0
3FC0
3F00
ENDCHAR
STARTCHAR 044B
ENCODING 1099
SWIDTH 675 0
DWIDTH 15 0
BBX 11 11 2 0
BITMAP
C020
C020
C020
F020
FE20
C620
C320
C320
C320
FE20
FC20
ENDCHAR
STARTCHAR 044C
ENCODING 1100
SWIDTH 495 0
DWIDTH 11 0
BBX 8 11 2 0
BITMAP
C0
C0
C0
F0
FE
C6
C3
C3
C3
FE
FC
ENDCHAR
STARTCHAR 044D
ENCODING 1101
SWIDTH 540 0
DWIDTH 12 0
BBX 9 12 1 0
BITMAP
1800
7F00
E380
C180
0180
1F80
1F80
0180
0180
C180
7700
3E00
ENDCHAR
STARTCHAR 044E
ENCODING 1102
SWIDTH 765 0
DWIDTH 17 0
BBX 13 12 2 0
BITMAP
0080
C7F0
C638
CC18
CC18
FC18
FC18
CC18
CC18
CC18
C770
C3E0
ENDCHAR
STARTCHAR 044F
ENCODING 1103
SWIDTH 540 0
DWIDTH 12 0
BBX 9 11 1 0
BITMAP
3F80
6180
6180
4180
6180
7F80
1F80
1980
3180
6180
E180
ENDCHAR
STARTCHAR 0450
ENCODING 1104
SWIDTH 540 0
DWIDTH 12 0
BBX 10 16 1 0
BITMAP
3000
1800
0800
0000
0C00
3F00
6180
6180
C0C0
FFC0
FFC0
C000
C000
6180
7380
3F00
ENDCHAR
STARTCHAR 0451
ENCODING 1105
SWIDTH 540 0
DWIDTH 12 0
BBX 10 15 1 0
BITMAP
3300
3300
0000
0C00
3F00
6180
6180
C0C0
FFC0
FFC0
C000
C000
6180
7380
3F00
ENDCHAR
STARTCHAR 0452
ENCODING 1106
SWIDTH 585 0
DWIDTH 13 0
BBX 11 20 0 -4
BITMAP
3000
3000
FE00
3000
3300
3FC0
38E0
3060
3060
3060
3060
3060
3060
3060
3060
3060
0060
0060
01E0
01C0
ENDCHAR
STARTCHAR 0453
ENCODING 1107
SWIDTH 450 0
DWIDTH 10 0
BBX 7 16 2 0
BITMAP
0C
08
10
00
00
FE
C0
C0
C0
C0
C0
C0
C0
C0
C0
C0
ENDCHAR
STARTCHAR 0454
ENCODING 1108
SWIDTH 540 0
DWIDTH 12 0
BBX 9 12 1 0
BITMAP
0C00
3F00
6180
6180
C000
FE00
FE00
C000
C000
6180
7380
3F00
ENDCHAR
STARTCHAR 0455
ENCODING 1109
SWIDTH 495 0
DWIDTH 11 0
BBX 9 12 1 0
BITMAP
0C00
7F00
6300
C180
C000
7800
3F00
0380
0180
C180
6300
3E00
ENDCHAR
STARTCHAR 0456
ENCODING 1110
SWIDTH 270 0
DWIDTH 6 0
BBX 2 15 2 0
BITMAP
C0
C0
00
00
C0
C0
C0
C0
C0
C0
C0
C0
C0
C0
C0
ENDCHAR
STARTCHAR 0457
ENCODING 1111
SWIDTH 270 0
DWIDTH 6 0
BBX 6 15 0 0
BITMAP
DC
CC
00
00
30
30
30
30
30
30
30
30
30
30
30
ENDCHAR
STARTCHAR 0458
ENCODING 1112
SWIDTH 270 0
DWIDTH 6 0
BBX 4 19 0 -4
BITMAP
30
30
00
00
30
30
30
30
30
30
30
30
30
30
30
30
30
E0
E0
ENDCHAR
STARTCHAR 0459
ENCODING 1113
SWIDTH 810 0
DWIDTH 18 0
BBX 16 11 1 0
BITMAP
3F80
3080
3080
20F0
20FC
2086
2083
6083
6086
E0FE
C0FC
ENDCHAR
STARTCHAR 045A
ENCODING 1114
SWIDTH 810 0
DWIDTH 18 0
BBX 15 11 2 0
BITMAP
C180
C180
C180
C180
FFF8
FFFC
C186
C186
C186
C1FE
C1F8
ENDCHAR
STARTCHAR 045B
ENCODING 1115
SWIDTH 585 0
DWIDTH 13 0
BBX 11 16 0 0
BITMAP
3000
3000
FE00
3000
3300
3FC0
38E0
3060
3060
3060
3060
3060
3060
3060
3060
3060
ENDCHAR
STARTCHAR 045C
ENCODING 1116
SWIDTH 495 0
DWIDTH 11 0
BBX 8 16 2 0
BITMAP
06
0C
18
00
00
C7
CE
DC
D8
F0
F0
F8
DC
CE
C7
C3
ENDCHAR
STARTCHAR 045D
ENCODING 1117
SWIDTH 585 0
DWIDTH 13 0
BBX 9 16 2 0
BITMAP
2000
3000
1800
0000
0000
C180
C380
C780
C780
CD80
D980
D980
F180
E180
C180
C180
ENDCHAR
STARTCHAR 045E
ENCODING 1118
SWIDTH 495 0
DWIDTH 11 0
BBX 10 20 0 -4
BITMAP
3100
1100
1E00
0000
0000
E0C0
60C0
6080
3180
3180
3100
1B00
1B00
1A00
0E00
0E00
0C00
0C00
7800
7000
ENDCHAR
STARTCHAR 045F
ENCODING 1119
SWIDTH 585 0
DWIDTH 13 0
BBX 9 14 2 -3
BITMAP
C180
C180
C180
C180
C180
C180
C180
C180
C180
FF80
FF80
1800
1800
1800
ENDCHAR
STARTCHAR 0462
ENCODING 1122
SWIDTH 675 0
DWIDTH 15 0
BBX 13 15 1 0
BITMAP
1800
1800
FFC0
FFC0
1800
1800
1FE0
1FF0
1818
1818
1818
1818
1818
1FF0
1FE0
ENDCHAR
STARTCHAR 0463
ENCODING 1123
SWIDTH 585 0
DWIDTH 13 0
BBX 11 16 1 0
BITMAP
1000
1000
1000
1000
1000
FF00
1000
1000
1000
1F80
10C0
1060
1060
10C0
1FC0
1F80
ENDCHAR
STARTCHAR 0472
ENCODING 1138
SWIDTH 630 0
DWIDTH 14 0
BBX 12 15 1 0
BITMAP
1F80
3FC0
7060
6030
4030
C030
DC30
FFF0
C1B0
C030
C030
6030
6060
39E0
1F80
ENDCHAR
STARTCHAR 0473
ENCODING 1139
SWIDTH 540 0
DWIDTH 12 0
BBX 10 12 1 0
BITMAP
0C00
3F00
7180
60C0
C0C0
F8C0
FFC0
C0C0
40C0
61C0
7380
1F00
ENDCHAR
STARTCHAR 0474
ENCODING 1140
SWIDTH 630 0
DWIDTH 14 0
BBX 15 15 0 0
BITMAP
E01E
603C
6030
7030
3060
3060
1060
18C0
18C0
08C0
0D80
0D80
0500
0700
0700
ENDCHAR
STARTCHAR 0475
ENCODING 1141
SWIDTH 540 0
DWIDTH 12 0
BBX 12 12 0 0
BITMAP
0060
C0F0
60C0
6180
2180
3100
3300
1300
1A00
1E00
0E00
0C00
ENDCHAR
STARTCHAR 048A
ENCODING 1162
SWIDTH 720 0
DWIDTH 16 0
BBX 13 22 2 -3
BITMAP
3080
1B00
0E00
0000
C060
C060
C0E0
C1E0
C160
C360
C660
C460
CC60
D860
D860
F060
E060
E078
C078
0018
0018
0010
ENDCHAR
STARTCHAR 048B
ENCODING 1163
SWIDTH 585 0
DWIDTH 13 0
BBX 11 19 2 -3
BITMAP
6300
2200
3C00
0000
0000
C180
C380
C780
C780
CD80
D980
D980
F180
E180
C1E0
C1E0
0040
0040
00C0
ENDCHAR
STARTCHAR 048C
ENCODING 1164
SWIDTH 675 0
DWIDTH 15 0
BBX 13 15 1 0
BITMAP
1800
1800
FFC0
FFC0
1800
1800
1FE0
1FF0
1818
1818
1818
1818
1818
1FF0
1FE0
ENDCHAR
STARTCHAR 048D
ENCODING 1165
SWIDTH 585 0
DWIDTH 13 0
BBX 11 16 1 0
BITMAP
1000
1000
1000
1000
1000
FF00
1000
1000
1000
1F80
10C0
1060
1060
10C0
1FC0
1F80
ENDCHAR
STARTCHAR 048E
ENCODING 1166
SWIDTH 585 0
DWIDTH 13 0
BBX 10 15 2 0
BITMAP
FE00
FF80
C180
C0C0
C0C0
C4C0
C6C0
C380
FF00
C180
C0C0
C000
C000
C000
C000
ENDCHAR
STARTCHAR 048F
ENCODING 1167
SWIDTH 585 0
DWIDTH 13 0
BBX 9 16 2 -4
BITMAP
0C00
FF00
E380
C180
C180
C080
C080
C080
C780
C380
F700
DF80
C180
C080
C000
C000
ENDCHAR
STARTCHAR 0490
ENCODING 1168
SWIDTH 495 0
DWIDTH 11 0
BBX 9 18 2 0
BITMAP
0180
0180
0180
FF80
FF80
C000
C000
C000
C000
C000
C000
C000
C000
C000
C000
C000
C000
C000
ENDCHAR
STARTCHAR 0491
ENCODING 1169
SWIDTH 450 0
DWIDTH 10 0
BBX 7 14 2 0
BITMAP
06
06
06
FE
C0
C0
C0
C0
C0
C0
C0
C0
C0
C0
ENDCHAR
STARTCHAR 0492
ENCODING 1170
SWIDTH 495 0
DWIDTH 11 0
BBX 10 15 1 0
BITMAP
7FC0
7FC0
6000
6000
6000
6000
6000
FE00
6000
6000
6000
6000
6000
6000
6000
ENDCHAR
STARTCHAR 0493
ENCODING 1171
SWIDTH 450 0
DWIDTH 10 0
BBX 8 11 1 0
BITMAP
7F
60
60
60
FE
FE
60
60
60
60
60
ENDCHAR
STARTCHAR 0494
ENCODING 1172
SWIDTH 585 0
DWIDTH 13 0
BBX 10 15 2 0
BITMAP
FF00
FF00
C000
C000
C000
C000
DF00
FF80
C1C0
C0C0
C0C0
C0C0
C0C0
CF80
CF00
ENDCHAR
STARTCHAR 0495
ENCODING 1173
SWIDTH 540 0
DWIDTH 12 0
BBX 9 15 2 -4
BITMAP
FE00
C000
C000
C000
C000
FF00
E380
C180
C180
C180
C180
0180
0180
1700
1E00
ENDCHAR
STARTCHAR 0496
ENCODING 1174
SWIDTH 900 0
DWIDTH 20 0
BBX 19 18 1 -3
BITMAP
C0C1C0
60C380
30C700
38C600
1CCC00
0ED800
07F000
03F000
06F000
0ED800
1CCC00
38C600
70C300
60C3E0
C0C1E0
000060
000060
000060
ENDCHAR
STARTCHAR 0497
ENCODING 1175
SWIDTH 720 0
DWIDTH 16 0
BBX 16 14 0 -3
BITMAP
618E
319C
19B8
0DB0
07E0
07E0
0DF0
19B8
3198
718F
E187
0003
0003
0003
ENDCHAR
STARTCHAR 0498
ENCODING 1176
SWIDTH 585 0
DWIDTH 13 0
BBX 11 18 1 -3
BITMAP
1F00
7F80
60C0
C0C0
00C0
00C0
0380
1F00
01C0
00C0
0060
C060
C0C0
71C0
3F80
0400
0400
0400
ENDCHAR
STARTCHAR 0499
ENCODING 1177
SWIDTH 495 0
DWIDTH 11 0
BBX 9 15 1 -3
BITMAP
1800
7F00
E300
C100
0300
1F00
1F00
0380
0180
C180
7700
3E00
0800
0800
0800
ENDCHAR
STARTCHAR 049A
ENCODING 1178
SWIDTH 630 0
DWIDTH 14 0
BBX 12 18 2 -3
BITMAP
C0C0
C180
C300
C600
CC00
D800
F000
F000
F800
DC00
CC00
C600
C300
C1F0
C0F0
0030
0030
0030
ENDCHAR
STARTCHAR 049B
ENCODING 1179
SWIDTH 495 0
DWIDTH 11 0
BBX 9 14 2 -3
BITMAP
C700
CE00
DC00
D800
F000
F000
F800
DC00
CE00
C780
C380
0080
0080
0080
ENDCHAR
STARTCHAR 049C
ENCODING 1180
SWIDTH 675 0
DWIDTH 15 0
BBX 12 15 2 0
BITMAP
C030
C060
C0E0
D8C0
D980
DB00
DF00
FE00
DB00
DB80
D980
D8C0
C0E0
C060
C030
ENDCHAR
STARTCHAR 049D
ENCODING 1181
SWIDTH 585 0
DWIDTH 13 0
BBX 10 11 2 0
BITMAP
C0C0
C180
D300
D300
FE00
FE00
D300
D300
D180
C0C0
C0C0
ENDCHAR
STARTCHAR 049E
ENCODING 1182
SWIDTH 630 0
DWIDTH 14 0
BBX 12 15 1 0
BITMAP
3030
3060
FCC0
FDC0
3380
3700
3E00
3C00
3600
3300
3380
31C0
30E0
3060
3030
ENDCHAR
STARTCHAR 049F
ENCODING 1183
SWIDTH 495 0
DWIDTH 11 0
BBX 11 16 0 0
BITMAP
3000
3000
FE00
3000
3000
31C0
3180
3300
3600
3C00
3E00
3700
3300
3180
31C0
30E0
ENDCHAR
STARTCHAR 04A0
ENCODING 1184
SWIDTH 765 0
DWIDTH 17 0
BBX 17 15 0 0
BITMAP
FF0380
FF0700
030E00
031C00
033800
037000
03E000
03C000
036000
033000
031800
031C00
030E00
030700
030380
ENDCHAR
STARTCHAR 04A1
ENCODING 1185
SWIDTH 675 0
DWIDTH 15 0
BBX 13 11 1 0
BITMAP
FC38
0C70
0CE0
0DC0
0F80
0F00
0D80
0CC0
0C60
0C30
0C18
ENDCHAR
STARTCHAR 04A2
ENCODING 1186
SWIDTH 720 0
DWIDTH 16 0
BBX 13 18 2 -3
BITMAP
C060
C060
C060
C060
C060
C060
FFE0
FFE0
C060
C060
C060
C060
C060
C078
C078
0018
0018
0018
ENDCHAR
STARTCHAR 04A3
ENCODING 1187
SWIDTH 585 0
DWIDTH 13 0
BBX 11 14 2 -3
BITMAP
C180
C180
C180
C180
FF80
FF80
C180
C180
C180
C1E0
C1E0
0060
0060
0060
ENDCHAR
STARTCHAR 04A4
ENCODING 1188
SWIDTH 945 0
DWIDTH 21 0
BBX 18 15 2 0
BITMAP
C07FC0
C07FC0
C06000
C06000
C06000
C06000
FFE000
FFE000
C06000
C06000
C06000
C06000
C06000
C06000
C06000
ENDCHAR
STARTCHAR 04A5
ENCODING 1189
SWIDTH 720 0
DWIDTH 16 0
BBX 14 11 2 0
BITMAP
C1FC
C180
C180
C180
FF80
FF80
C180
C180
C180
C180
C180
ENDCHAR
STARTCHAR 04A6
ENCODING 1190
SWIDTH 990 0
DWIDTH 22 0
BBX 19 15 2 0
BITMAP
FFE000
FFE000
C06000
C06000
C06000
C06000
C06F00
C07FC0
C060E0
C06060
C06060
C06060
C060E0
C067C0
C06780
ENDCHAR
STARTCHAR 04A7
ENCODING 1191
SWIDTH 855 0
DWIDTH 19 0
BBX 16 15 2 -4
BITMAP
FF80
C180
C180
C180
C180
C1FE
C1C7
C183
C183
C181
C183
0003
0003
002E
003C
ENDCHAR
STARTCHAR 04A8
ENCODING 1192
SWIDTH 810 0
DWIDTH 18 0
BBX 17 15 1 0
BITMAP
0C0000
3C0000
70F800
61FC00
618600
C30600
C30600
C30200
C30600
C30600
610600
618E00
70DC00
3C7900
1FFF80
ENDCHAR
STARTCHAR 04A9
ENCODING 1193
SWIDTH 765 0
DWIDTH 17 0
BBX 15 12 1 0
BITMAP
0400
3C00
71F0
6398
C30C
C60C
C60C
C60C
6318
6338
39F4
1FFE
ENDCHAR
STARTCHAR 04AA
ENCODING 1194
SWIDTH 630 0
DWIDTH 14 0
BBX 12 20 1 -5
BITMAP
1F80
3FC0
7060
6060
4030
C000
C000
C000
C000
C000
C000
6020
6060
39C0
1F80
0400
0400
0700
0100
0F00
ENDCHAR
STARTCHAR 04AB
ENCODING 1195
SWIDTH 495 0
DWIDTH 11 0
BBX 9 17 1 -5
BITMAP
0C00
3F00
6380
6180
C000
C000
C000
C000
C000
6180
7B80
3F00
0800
0C00
0200
0200
1E00
ENDCHAR
STARTCHAR 04AC
ENCODING 1196
SWIDTH 540 0
DWIDTH 12 0
BBX 11 18 0 -3
BITMAP
FFE0
FFE0
0600
0600
0600
0600
0600
0600
0600
0600
0600
0600
0600
0780
0780
0180
0180
0180
ENDCHAR
STARTCHAR 04AD
ENCODING 1197
SWIDTH 450 0
DWIDTH 10 0
BBX 9 14 1 -3
BITMAP
FF80
1800
1800
1800
1800
1800
1800
1800
1800
1E00
1E00
0600
0600
0600
ENDCHAR
STARTCHAR 04AE
ENCODING 1198
SWIDTH 540 0
DWIDTH 12 0
BBX 12 15 0 0
BITMAP
C030
6060
70E0
30C0
1980
1980
0F00
0F00
0600
0600
0600
0600
0600
0600
0600
ENDCHAR
STARTCHAR 04AF
ENCODING 1199
SWIDTH 450 0
DWIDTH 10 0
BBX 10 15 0 -4
BITMAP
C0C0
60C0
6180
2180
3100
3300
1300
1A00
1E00
0E00
0C00
0C00
0C00
0C00
0C00
ENDCHAR
STARTCHAR 04B0
ENCODING 1200
SWIDTH 540 0
DWIDTH 12 0
BBX 12 15 0 0
BITMAP
C030
6060
70E0
30C0
1980
1980
0F00
0F00
3FC0
3FC0
0600
0600
0600
0600
0600
ENDCHAR
STARTCHAR 04B1
ENCODING 1201
SWIDTH 450 0
DWIDTH 10 0
BBX 10 15 0 -4
BITMAP
C0C0
60C0
6180
2180
3100
3300
1300
1A00
1E00
0E00
0C00
3F00
0C00
0C00
0C00
ENDCHAR
STARTCHAR 04B2
ENCODING 1202
SWIDTH 585 0
DWIDTH 13 0
BBX 13 18 0 -3
BITMAP
E030
6060
3060
38C0
1980
0D80
0F00
0600
0F00
0F80
1980
38C0
30C0
6078
E038
0008
0008
0008
ENDCHAR
STARTCHAR 04B3
ENCODING 1203
SWIDTH 495 0
DWIDTH 11 0
BBX 10 14 1 -3
BITMAP
C180
6300
7600
3600
1C00
1C00
3C00
3600
6300
E3C0
C1C0
0040
0040
0040
ENDCHAR
STARTCHAR 04B4
ENCODING 1204
SWIDTH 810 0
DWIDTH 18 0
BBX 18 18 0 -3
BITMAP
FFE300
FFE300
0C0300
0C0300
0C0300
0C0300
0C0300
0C0300
0C0300
0C0300
0C0300
0C0300
0C0300
0FFFC0
0FFFC0
0000C0
0000C0
0000C0
ENDCHAR
STARTCHAR 04B5
ENCODING 1205
SWIDTH 720 0
DWIDTH 16 0
BBX 14 14 1 -3
BITMAP
FF30
1830
1830
1830
1830
1830
1830
1830
1830
1FFC
1FFC
000C
000C
000C
ENDCHAR
STARTCHAR 04B6
ENCODING 1206
SWIDTH 675 0
DWIDTH 15 0
BBX 12 18 2 -3
BITMAP
80C0
80C0
80C0
80C0
80C0
C0C0
C0C0
F3C0
7FC0
00C0
00C0
00C0
00C0
00F0
00F0
0030
0030
0030
ENDCHAR
STARTCHAR 04B7
ENCODING 1207
SWIDTH 585 0
DWIDTH 13 0
BBX 10 14 2 -3
BITMAP
8100
8100
8100
8100
C100
FF00
7D00
0100
0100
01C0
01C0
0040
0040
0040
ENDCHAR
STARTCHAR 04B8
ENCODING 1208
SWIDTH 630 0
DWIDTH 14 0
BBX 10 15 2 0
BITMAP
80C0
80C0
80C0
80C0
8CC0
CCC0
CCC0
FFC0
3FC0
0CC0
0CC0
0CC0
00C0
00C0
00C0
ENDCHAR
STARTCHAR 04B9
ENCODING 1209
SWIDTH 540 0
DWIDTH 12 0
BBX 9 11 2 0
BITMAP
8180
8180
8180
9980
D980
FF80
3D80
1980
1980
0180
0180
ENDCHAR
STARTCHAR 04BA
ENCODING 1210
SWIDTH 630 0
DWIDTH 14 0
BBX 11 15 2 0
BITMAP
C000
C000
C000
C000
C000
C000
FF00
FF80
C0C0
C0C0
C040
C060
C060
C060
C060
ENDCHAR
STARTCHAR 04BB
ENCODING 1211
SWIDTH 585 0
DWIDTH 13 0
BBX 9 16 2 0
BITMAP
C000
C000
C000
C000
CC00
FF00
E380
C180
C180
C180
C180
C180
C180
C180
C180
C180
ENDCHAR
STARTCHAR 04BC
ENCODING 1212
SWIDTH 765 0
DWIDTH 17 0
BBX 16 15 0 0
BITMAP
01F8
03FC
0606
4606
CC03
CC03
7FFF
3FFF
0C00
0C00
0C00
0603
0606
039E
01FC
ENDCHAR
STARTCHAR 04BD
ENCODING 1213
SWIDTH 675 0
DWIDTH 15 0
BBX 12 12 1 0
BITMAP
0180
0FE0
0C60
9830
9830
FFF0
7FF0
1800
1800
1830
0E60
07C0
ENDCHAR
STARTCHAR 04BE
ENCODING 1214
SWIDTH 765 0
DWIDTH 17 0
BBX 16 18 0 -3
BITMAP
01F8
03FC
0606
4606
CC03
CC03
7FFF
3FFF
0C00
0C00
0C00
0603
0606
039E
01F8
0060
0060
0060
ENDCHAR
STARTCHAR 04BF
ENCODING 1215
SWIDTH 675 0
DWIDTH 15 0
BBX 12 15 1 -3
BITMAP
0180
0FE0
0C60
9830
9830
FFF0
7FF0
1800
1800
1830
0E60
07C0
0180
0180
0180
ENDCHAR
STARTCHAR 04C0
ENCODING 1216
SWIDTH 270 0
DWIDTH 6 0
BBX 2 15 2 0
BITMAP
C0
C0
C0
C0
C0
C0
C0
C0
C0
C0
C0
C0
C0
C0
C0
ENDCHAR
STARTCHAR 04C1
ENCODING 1217
SWIDTH 855 0
DWIDTH 19 0
BBX 18 19 1 0
BITMAP
023000
03E000
00C000
000000
C0C1C0
60C380
30C700
38C600
1CCC00
0ED800
07F000
03F000
06F000
0ED800
1CCC00
38C600
70C300
60C380
C0C1C0
ENDCHAR
STARTCHAR 04C2
ENCODING 1218
SWIDTH 720 0
DWIDTH 16 0
BBX 15 16 0 0
BITMAP
0420
0640
0380
0000
0000
618E
319C
19B8
0DB0
07E0
07E0
0DF0
19B8
3198
718C
E186
ENDCHAR
STARTCHAR 04C3
ENCODING 1219
SWIDTH 585 0
DWIDTH 13 0
BBX 10 19 2 -4
BITMAP
C0C0
C180
C380
C700
C600
CC00
D800
FE00
CF00
C180
C1C0
C0C0
C0C0
C0C0
C0C0
00C0
0180
0F00
0E00
ENDCHAR
STARTCHAR 04C4
ENCODING 1220
SWIDTH 540 0
DWIDTH 12 0
BBX 9 15 2 -4
BITMAP
C300
C600
CC00
D800
F000
FC00
C600
C300
C300
C180
C100
0300
0300
0E00
1C00
ENDCHAR
STARTCHAR 04C5
ENCODING 1221
SWIDTH 675 0
DWIDTH 15 0
BBX 14 18 0 -3
BITMAP
1FF0
1FF0
1830
1830
1830
1830
1830
1830
1830
1830
1830
1830
3030
F03C
E03C
000C
000C
0008
ENDCHAR
STARTCHAR 04C6
ENCODING 1222
SWIDTH 585 0
DWIDTH 13 0
BBX 11 14 1 -3
BITMAP
3FC0
30C0
30C0
20C0
20C0
20C0
20C0
20C0
60C0
E0E0
C0E0
0060
0060
0040
ENDCHAR
STARTCHAR 04C7
ENCODING 1223
SWIDTH 675 0
DWIDTH 15 0
BBX 11 19 2 -4
BITMAP
C060
C060
C060
C060
C060
C060
FFE0
FFE0
C060
C060
C060
C060
C060
C060
C060
0060
0060
01E0
01C0
ENDCHAR
STARTCHAR 04C8
ENCODING 1224
SWIDTH 585 0
DWIDTH 13 0
BBX 9 15 2 -4
BITMAP
C180
C180
C180
C180
FF80
FF80
C180
C180
C180
C180
C180
0180
0180
0700
0700
ENDCHAR
STARTCHAR 04C9
ENCODING 1225
SWIDTH 720 0
DWIDTH 16 0
BBX 13 18 2 -3
BITMAP
C060
C060
C060
C060
C060
C060
FFE0
FFE0
C060
C060
C060
C060
C060
C078
C078
0018
0018
0010
ENDCHAR
STARTCHAR 04CA
ENCODING 1226
SWIDTH 585 0
DWIDTH 13 0
BBX 11 14 2 -3
BITMAP
C180
C180
C180
C180
FF80
FF80
C180
C180
C180
C1E0
C1C0
0040
00C0
00C0
ENDCHAR
STARTCHAR 04CB
ENCODING 1227
SWIDTH 630 0
DWIDTH 14 0
BBX 10 18 2 -3
BITMAP
80C0
80C0
80C0
80C0
80C0
C0C0
C0C0
F3C0
7FC0
00C0
00C0
00C0
00C0
03C0
03C0
0300
0300
0300
ENDCHAR
STARTCHAR 04CC
ENCODING 1228
SWIDTH 540 0
DWIDTH 12 0
BBX 8 14 2 -3
BITMAP
81
81
81
81
C1
FF
7D
01
01
07
07
04
04
04
ENDCHAR
STARTCHAR 04CD
ENCODING 1229
SWIDTH 810 0
DWIDTH 18 0
BBX 16 18 2 -3
BITMAP
C018
C018
E018
E038
F038
F068
D068
D8C8
C8C8
CC88
CD88
C708
C708
C30F
C00F
0002
0006
0006
ENDCHAR
STARTCHAR 04CE
ENCODING 1230
SWIDTH 720 0
DWIDTH 16 0
BBX 14 14 2 -3
BITMAP
C070
E070
E0F0
F0F0
F1B0
D9B0
D930
CF30
CE30
C63C
C038
0008
0018
0018
ENDCHAR
STARTCHAR 04CF
ENCODING 1231
SWIDTH 270 0
DWIDTH 6 0
BBX 2 16 2 0
BITMAP
C0
C0
C0
C0
C0
C0
C0
C0
C0
C0
C0
C0
C0
C0
C0
C0
ENDCHAR
STARTCHAR 04D0
ENCODING 1232
SWIDTH 585 0
DWIDTH 13 0
BBX 12 19 1 0
BITMAP
3080
1180
0E00
0000
0600
0E00
0E00
1B00
1B00
1900
3180
3180
30C0
7FC0
7FC0
6060
C060
C060
C030
ENDCHAR
STARTCHAR 04D1
ENCODING 1233
SWIDTH 540 0
DWIDTH 12 0
BBX 9 16 1 0
BITMAP
2300
3200
1C00
0000
0C00
3F00
6380
4180
0180
1F80
7F80
C180
C180
C180
6780
7D80
ENDCHAR
STARTCHAR 04D2
ENCODING 1234
SWIDTH 585 0
DWIDTH 13 0
BBX 12 18 1 0
BITMAP
1B00
1900
0000
0600
0E00
0E00
1B00
1B00
1900
3180
3180
30C0
7FC0
7FC0
6060
C060
C060
C030
ENDCHAR
STARTCHAR 04D3
ENCODING 1235
SWIDTH 540 0
DWIDTH 12 0
BBX 9 15 1 0
BITMAP
3300
3300
0000
0C00
3F00
6380
4180
0180
1F80
7F80
C180
C180
C180
6780
7D80
ENDCHAR
STARTCHAR 04D4
ENCODING 1236
SWIDTH 900 0
DWIDTH 20 0
BBX 18 15 1 0
BITMAP
01FFC0
01FFC0
036000
036000
066000
0C6000
0C6000
187FC0
186000
3FE000
306000
606000
606000
C07FC0
C07FC0
ENDCHAR
STARTCHAR 04D5
ENCODING 1237
SWIDTH 855 0
DWIDTH 19 0
BBX 17 12 1 0
BITMAP
0C1800
3F7E00
63C300
418300
018100
1FFF80
7FFF80
C18000
C18000
C1C300
67E700
3E7E00
ENDCHAR
STARTCHAR 04D6
ENCODING 1238
SWIDTH 540 0
DWIDTH 12 0
BBX 9 19 2 0
BITMAP
4300
6200
1C00
0000
FF80
FF80
C000
C000
C000
C000
C000
FF00
C000
C000
C000
C000
C000
FF80
FF80
ENDCHAR
STARTCHAR 04D7
ENCODING 1239
SWIDTH 540 0
DWIDTH 12 0
BBX 10 16 1 0
BITMAP
2100
3300
0C00
0000
0C00
3F00
6180
6180
C0C0
FFC0
FFC0
C000
C000
6180
7380
3F00
ENDCHAR
STARTCHAR 04D8
ENCODING 1240
SWIDTH 630 0
DWIDTH 14 0
BBX 12 15 1 0
BITMAP
1F80
3FC0
6060
6070
C030
0030
0030
FFF0
FFF0
C030
C030
6030
6060
39E0
1F80
ENDCHAR
STARTCHAR 04D9
ENCODING 1241
SWIDTH 540 0
DWIDTH 12 0
BBX 10 12 1 0
BITMAP
0C00
3F00
6180
0180
00C0
00C0
FFC0
C0C0
C0C0
6180
7380
3F00
ENDCHAR
STARTCHAR 04DA
ENCODING 1242
SWIDTH 630 0
DWIDTH 14 0
BBX 12 18 1 0
BITMAP
1980
0900
0000
1F80
3FC0
6060
6070
C030
0030
0030
FFF0
FFF0
C030
C030
6030
6060
39E0
1F80
ENDCHAR
STARTCHAR 04DB
ENCODING 1243
SWIDTH 540 0
DWIDTH 12 0
BBX 10 15 1 0
BITMAP
3300
3300
0000
0C00
3F00
6180
0180
00C0
00C0
FFC0
C0C0
C0C0
6180
7380
3F00
ENDCHAR
STARTCHAR 04DC
ENCODING 1244
SWIDTH 855 0
DWIDTH 19 0
BBX 18 18 1 0
BITMAP
036000
032000
000000
C0C1C0
60C380
30C700
38C600
1CCC00
0ED800
07F000
03F000
06F000
0ED800
1CCC00
38C600
70C300
60C380
C0C1C0
ENDCHAR
STARTCHAR 04DD
ENCODING 1245
SWIDTH 720 0
DWIDTH 16 0
BBX 15 15 0 0
BITMAP
0660
0660
0000
0000
618E
319C
19B8
0DB0
07E0
07E0
0DF0
19B8
3198
718C
E186
ENDCHAR
STARTCHAR 04DE
ENCODING 1246
SWIDTH 585 0
DWIDTH 13 0
BBX 11 18 1 0
BITMAP
1B00
1300
0000
1F00
7F80
60C0
C0C0
00C0
00C0
0380
1F00
01C0
00C0
0060
C060
C0C0
71C0
3F80
ENDCHAR
STARTCHAR 04DF
ENCODING 1247
SWIDTH 495 0
DWIDTH 11 0
BBX 9 15 1 0
BITMAP
2600
2600
0000
1800
7F00
E300
C100
0300
1F00
1F00
0380
0180
C180
7700
3E00
ENDCHAR
STARTCHAR 04E0
ENCODING 1248
SWIDTH 585 0
DWIDTH 13 0
BBX 10 15 1 0
BITMAP
7FC0
7FC0
0180
0300
0600
0C00
1F00
1F80
00C0
00C0
0040
C0C0
C0C0
71C0
3F00
ENDCHAR
STARTCHAR 04E1
ENCODING 1249
SWIDTH 495 0
DWIDTH 11 0
BBX 9 15 1 -4
BITMAP
FF00
0300
0600
0C00
1800
3000
3E00
0700
0180
0180
0180
0180
C300
FF00
7E00
ENDCHAR
STARTCHAR 04E2
ENCODING 1250
SWIDTH 675 0
DWIDTH 15 0
BBX 11 18 2 0
BITMAP
1F00
1F00
0000
C060
C060
C0E0
C1E0
C160
C360
C660
C460
CC60
D860
D860
F060
E060
E060
C060
ENDCHAR
STARTCHAR 04E3
ENCODING 1251
SWIDTH 585 0
DWIDTH 13 0
BBX 9 15 2 0
BITMAP
7E00
7E00
0000
0000
C180
C380
C780
C780
CD80
D980
D980
F180
E180
C180
C180
ENDCHAR
STARTCHAR 04E4
ENCODING 1252
SWIDTH 675 0
DWIDTH 15 0
BBX 11 18 2 0
BITMAP
1B00
1900
0000
C060
C060
C0E0
C1E0
C160
C360
C660
C460
CC60
D860
D860
F060
E060
E060
C060
ENDCHAR
STARTCHAR 04E5
ENCODING 1253
SWIDTH 585 0
DWIDTH 13 0
BBX 9 15 2 0
BITMAP
2600
2600
0000
0000
C180
C380
C780
C780
CD80
D980
D980
F180
E180
C180
C180
ENDCHAR
STARTCHAR 04E6
ENCODING 1254
SWIDTH 630 0
DWIDTH 14 0
BBX 12 18 1 0
BITMAP
0980
0980
0000
1F80
3FC0
7060
6030
4030
C030
C030
C030
C030
C030
C030
6030
6060
39E0
1F80
ENDCHAR
STARTCHAR 04E7
ENCODING 1255
SWIDTH 540 0
DWIDTH 12 0
BBX 10 15 1 0
BITMAP
1300
1300
0000
0C00
3F00
7180
60C0
C0C0
C0C0
C0C0
C0C0
40C0
61C0
7380
1F00
ENDCHAR
STARTCHAR 04E8
ENCODING 1256
SWIDTH 630 0
DWIDTH 14 0
BBX 12 15 1 0
BITMAP
1F80
3FC0
7060
6030
4030
C030
FFF0
FFF0
C030
C030
C030
6030
6060
39E0
1F80
ENDCHAR
STARTCHAR 04E9
ENCODING 1257
SWIDTH 540 0
DWIDTH 12 0
BBX 10 12 1 0
BITMAP
0C00
3F00
7180
60C0
C0C0
FFC0
FFC0
C0C0
40C0
61C0
7380
1F00
ENDCHAR
STARTCHAR 04EA
ENCODING 1258
SWIDTH 630 0
DWIDTH 14 0
BBX 12 18 1 0
BITMAP
0980
0980
0000
1F80
3FC0
7060
6030
4030
C030
FFF0
FFF0
C030
C030
C030
6030
6060
39E0
1F80
ENDCHAR
STARTCHAR 04EB
ENCODING 1259
SWIDTH 540 0
DWIDTH 12 0
BBX 10 15 1 0
BITMAP
3300
3300
0000
0C00
3F00
7180
60C0
C0C0
FFC0
FFC0
C0C0
40C0
61C0
7380
1F00
ENDCHAR
STARTCHAR 04EC
ENCODING 1260
SWIDTH 630 0
DWIDTH 14 0
BBX 12 18 1 0
BITMAP
1B00
1900
0000
1F00
3FC0
60E0
C060
C060
0020
0030
1FF0
0030
0030
0060
C060
60E0
79C0
3F80
ENDCHAR
STARTCHAR 04ED
ENCODING 1261
SWIDTH 540 0
DWIDTH 12 0
BBX 9 15 1 0
BITMAP
3600
2600
0000
1800
7F00
E380
C180
0180
1F80
1F80
0180
0180
C180
7700
3E00
ENDCHAR
STARTCHAR 04EE
ENCODING 1262
SWIDTH 540 0
DWIDTH 12 0
BBX 12 18 0 0
BITMAP
1F80
1F80
0000
C030
6060
6060
30C0
30C0
10C0
1980
1980
0F00
0F00
0600
0600
0C00
3C00
3800
ENDCHAR
STARTCHAR 04EF
ENCODING 1263
SWIDTH 495 0
DWIDTH 11 0
BBX 10 19 0 -4
BITMAP
3F00
3F00
0000
0000
E0C0
60C0
6080
3180
3180
3100
1B00
1B00
1A00
0E00
0E00
0C00
0C00
7800
7000
ENDCHAR
STARTCHAR 04F0
ENCODING 1264
SWIDTH 540 0
DWIDTH 12 0
BBX 12 18 0 0
BITMAP
0980
0900
0000
C030
6060
6060
30C0
30C0
10C0
1980
1980
0F00
0F00
0600
0600
0C00
3C00
3800
ENDCHAR
STARTCHAR 04F1
ENCODING 1265
SWIDTH 495 0
DWIDTH 11 0
BBX 10 19 0 -4
BITMAP
1300
1300
0000
0000
E0C0
60C0
6080
3180
3180
3100
1B00
1B00
1A00
0E00
0E00
0C00
0C00
7800
7000
ENDCHAR
STARTCHAR 04F2
ENCODING 1266
SWIDTH 540 0
DWIDTH 12 0
BBX 12 19 0 0
BITMAP
06C0
0C80
0900
0000
C030
6060
6060
30C0
30C0
10C0
1980
1980
0F00
0F00
0600
0600
0C00
3C00
3800
ENDCHAR
STARTCHAR 04F3
ENCODING 1267
SWIDTH 495 0
DWIDTH 11 0
BBX 10 20 0 -4
BITMAP
06C0
0D80
0900
0000
0000
E0C0
60C0
6080
3180
3180
3100
1B00
1B00
1A00
0E00
0E00
0C00
0C00
7800
7000
ENDCHAR
STARTCHAR 04F4
ENCODING 1268
SWIDTH 630 0
DWIDTH 14 0
BBX 10 18 2 0
BITMAP
3200
1200
0000
80C0
80C0
80C0
80C0
80C0
C0C0
C0C0
F3C0
7FC0
00C0
00C0
00C0
00C0
00C0
00C0
ENDCHAR
STARTCHAR 04F5
ENCODING 1269
SWIDTH 540 0
DWIDTH 12 0
BBX 8 15 2 0
BITMAP
66
66
00
00
81
81
81
81
C1
FF
7D
01
01
01
01
ENDCHAR
STARTCHAR 04F6
ENCODING 1270
SWIDTH 495 0
DWIDTH 11 0
BBX 9 18 2 -3
BITMAP
FF80
FF80
C000
C000
C000
C000
C000
C000
C000
C000
C000
C000
C000
F000
F000
3000
3000
3000
ENDCHAR
STARTCHAR 04F7
ENCODING 1271
SWIDTH 450 0
DWIDTH 10 0
BBX 7 14 2 -3
BITMAP
FE
C0
C0
C0
C0
C0
C0
C0
C0
F0
F0
30
30
30
ENDCHAR
STARTCHAR 04F8
ENCODING 1272
SWIDTH 765 0
DWIDTH 17 0
BBX 14 18 2 0
BITMAP
0D80
0C80
0000
C00C
C00C
C00C
C00C
C00C
C00C
FF0C
C38C
C0CC
C0CC
C0CC
C0CC
C1CC
FF8C
FF0C
ENDCHAR
STARTCHAR 04F9
ENCODING 1273
SWIDTH 675 0
DWIDTH 15 0
BBX 11 15 2 0
BITMAP
1900
1900
0000
0000
C020
C020
C020
F020
FE20
C620
C320
C320
C320
FE20
FC20
ENDCHAR
STARTCHAR 04FA
ENCODING 1274
SWIDTH 495 0
DWIDTH 11 0
BBX 11 19 0 -4
BITMAP
3FE0
3FE0
3000
3000
3000
3000
3000
7F00
3000
3000
3000
3000
3000
3000
3000
3000
3000
E000
E000
ENDCHAR
STARTCHAR 04FB
ENCODING 1275
SWIDTH 450 0
DWIDTH 10 0
BBX 10 15 0 -4
BITMAP
3FC0
3000
3000
3000
7F00
7F00
3000
3000
3000
3000
3000
3000
3000
F000
E000
ENDCHAR
STARTCHAR 04FC
ENCODING 1276
SWIDTH 540 0
DWIDTH 12 0
BBX 12 19 0 -4
BITMAP
E030
6060
3060
38C0
1980
0D80
0F00
0600
0F00
0F80
1980
38C0
30E0
6060
E070
0030
0030
0070
00E0
ENDCHAR
STARTCHAR 04FD
ENCODING 1277
SWIDTH 495 0
DWIDTH 11 0
BBX 9 15 1 -4
BITMAP
C180
6300
6600
3600
1C00
1C00
3C00
3600
6700
C300
C180
0180
0180
0700
0600
ENDCHAR
STARTCHAR 04FE
ENCODING 1278
SWIDTH 540 0
DWIDTH 12 0
BBX 12 15 0 0
BITMAP
E030
6060
3060
38C0
1980
0D80
0F00
7FE0
0F00
0F80
1980
38C0
30C0
6060
E030
ENDCHAR
STARTCHAR 04FF
ENCODING 1279
SWIDTH 495 0
DWIDTH 11 0
BBX 9 11 1 0
BITMAP
C180
6300
7700
3600
1C00
FF80
3C00
3600
6300
E300
C180
ENDCHAR
STARTCHAR 0510
ENCODING 1296
SWIDTH 585 0
DWIDTH 13 0
BBX 11 15 1 0
BITMAP
1F00
3FC0
60C0
6040
6000
6000
3800
1E00
7000
C000
C000
C060
C0C0
71C0
3F80
ENDCHAR
STARTCHAR 0511
ENCODING 1297
SWIDTH 495 0
DWIDTH 11 0
BBX 9 12 1 0
BITMAP
0C00
3F00
6380
6180
6000
7C00
3C00
6000
C000
C180
7780
3E00
ENDCHAR
STARTCHAR 0512
ENCODING 1298
SWIDTH 630 0
DWIDTH 14 0
BBX 12 19 0 -4
BITMAP
1FF0
1FF0
1830
1830
1830
1830
1830
1830
1830
1830
1830
1830
3030
F030
E030
0030
0030
00F0
00E0
ENDCHAR
STARTCHAR 0513
ENCODING 1299
SWIDTH 540 0
DWIDTH 12 0
BBX 10 15 1 -4
BITMAP
3FC0
30C0
30C0
20C0
20C0
20C0
20C0
20C0
60C0
E0C0
C0C0
0080
0180
0780
0700
ENDCHAR
STARTCHAR 051C
ENCODING 1308
SWIDTH 810 0
DWIDTH 18 0
BBX 18 15 0 0
BITMAP
C0C0C0
60C0C0
60E180
61E180
61A180
31A180
313300
333300
131300
1B1300
1A1E00
1E1E00
0E0E00
0C0C00
0C0C00
ENDCHAR
STARTCHAR 051D
ENCODING 1309
SWIDTH 675 0
DWIDTH 15 0
BBX 15 11 0 0
BITMAP
C186
4386
6384
62CC
66CC
264C
3468
3478
3C38
1C38
1830
ENDCHAR
STARTCHAR 0524
ENCODING 1316
SWIDTH 675 0
DWIDTH 15 0
BBX 13 18 2 -3
BITMAP
FFE0
FFE0
C060
C060
C060
C060
C060
C060
C060
C060
C060
C060
C060
C078
C078
0018
0018
0018
ENDCHAR
STARTCHAR 0525
ENCODING 1317
SWIDTH 585 0
DWIDTH 13 0
BBX 11 14 2 -3
BITMAP
FF80
C180
C180
C180
C180
C180
C180
C180
C180
C1E0
C1E0
0060
0060
0060
ENDCHAR
STARTCHAR 0526
ENCODING 1318
SWIDTH 675 0
DWIDTH 15 0
BBX 12 18 2 -3
BITMAP
C000
C000
C000
C000
C000
C000
FF00
FF80
C0C0
C0C0
C040
C060
C060
C070
C070
0010
0010
0010
ENDCHAR
STARTCHAR 0527
ENCODING 1319
SWIDTH 630 0
DWIDTH 14 0
BBX 11 19 2 -3
BITMAP
C000
C000
C000
C000
CC00
FF00
E380
C180
C180
C180
C180
C180
C180
C180
C1E0
C1E0
0060
0060
0060
ENDCHAR
STARTCHAR 052E
ENCODING 1326
SWIDTH 675 0
DWIDTH 15 0
BBX 14 18 0 -3
BITMAP
1FF0
1FF0
1830
1830
1830
1830
1830
1830
1830
1830
1830
1830
3030
F03C
E03C
0004
0004
0004
ENDCHAR
STARTCHAR 052F
ENCODING 1327
SWIDTH 585 0
DWIDTH 13 0
BBX 11 14 1 -3
BITMAP
3FC0
30C0
30C0
20C0
20C0
20C0
20C0
20C0
60C0
E0E0
C0E0
0020
0020
0020
ENDCHAR
STARTCHAR 0E3F
ENCODING 3647
SWIDTH 540 0
DWIDTH 12 0
BBX 10 18 1 -2
BITMAP
0800
FE00
FF80
C980
C8C0
C8C0
C980
CF00
FF00
C9C0
C8C0
C840
C840
C8C0
FFC0
FF00
0800
0800
ENDCHAR
STARTCHAR 1E00
ENCODING 7680
SWIDTH 585 0
DWIDTH 13 0
BBX 13 20 0 -5
BITMAP
0700
0700
0500
0D80
0D80
0880
18C0
18C0
1040
3FE0
3FE0
2020
6030
6030
C018
0000
0200
0500
0880
0700
ENDCHAR
STARTCHAR 1E01
ENCODING 7681
SWIDTH 495 0
DWIDTH 11 0
BBX 9 17 1 -5
BITMAP
0C00
7F00
6380
C180
0180
1F80
7F80
C180
C180
C180
E780
7D80
0000
0C00
1600
1200
1C00
ENDCHAR
STARTCHAR 1E02
ENCODING 7682
SWIDTH 585 0
DWIDTH 13 0
BBX 10 19 2 0
BITMAP
1800
1800
0000
0000
FE00
FF80
C180
C180
C080
C180
C700
FF00
C1C0
C0C0
C0C0
C0C0
C0C0
FF80
FF00
ENDCHAR
STARTCHAR 1E03
ENCODING 7683
SWIDTH 585 0
DWIDTH 13 0
BBX 9 20 2 0
BITMAP
8000
C000
8000
0000
C000
C000
C000
C000
CC00
FF00
E380
C180
C180
C080
C080
C080
C180
C180
B700
9E00
ENDCHAR
STARTCHAR 1E04
ENCODING 7684
SWIDTH 585 0
DWIDTH 13 0
BBX 10 19 2 -4
BITMAP
FE00
FF80
C180
C180
C080
C180
C700
FF00
C1C0
C0C0
C0C0
C0C0
C0C0
FF80
FF00
0000
0000
1800
1800
ENDCHAR
STARTCHAR 1E05
ENCODING 7685
SWIDTH 585 0
DWIDTH 13 0
BBX 9 20 2 -4
BITMAP
C000
C000
C000
C000
CC00
FF00
E380
C180
C180
C080
C080
C080
C180
C180
B700
9E00
0000
0000
1800
0800
ENDCHAR
STARTCHAR 1E06
ENCODING 7686
SWIDTH 585 0
DWIDTH 13 0
BBX 10 19 2 -4
BITMAP
FE00
FF80
C180
C180
C080
C180
C700
FF00
C1C0
C0C0
C0C0
C0C0
C0C0
FF80
FF00
0000
0000
7E00
7E00
ENDCHAR
STARTCHAR 1E07
ENCODING 7687
SWIDTH 585 0
DWIDTH 13 0
BBX 9 20 2 -4
BITMAP
C000
C000
C000
C000
CC00
FF00
E380
C180
C180
C080
C080
C080
C180
C180
B700
9E00
0000
0000
7E00
7E00
ENDCHAR
STARTCHAR 1E08
ENCODING 7688
SWIDTH 630 0
DWIDTH 14 0
BBX 11 24 1 -5
BITMAP
0180
0200
0600
0000
1F80
3FC0
6060
6060
C020
C000
C000
C000
C000
C000
C000
6060
6060
39C0
1F80
0400
0400
0700
0100
0F00
ENDCHAR
STARTCHAR 1E09
ENCODING 7689
SWIDTH 495 0
DWIDTH 11 0
BBX 9 21 1 -5
BITMAP
0300
0600
0400
0000
0C00
3F00
6380
6180
C000
C000
C000
C000
C000
6180
7B80
3F00
0800
0C00
0200
0200
1E00
ENDCHAR
STARTCHAR 1E0A
ENCODING 7690
SWIDTH 630 0
DWIDTH 14 0
BBX 11 19 2 0
BITMAP
0800
1C00
0000
0000
FE00
FF80
C1C0
C0C0
C060
C060
C060
C060
C060
C060
C060
C0C0
C1C0
FF80
FE00
ENDCHAR
STARTCHAR 1E0B
ENCODING 7691
SWIDTH 585 0
DWIDTH 13 0
BBX 10 20 1 0
BITMAP
00C0
00C0
0080
0000
00C0
00C0
00C0
00C0
08C0
3EC0
61C0
60C0
C0C0
C0C0
C0C0
C0C0
C0C0
61C0
73C0
3EC0
ENDCHAR
STARTCHAR 1E0C
ENCODING 7692
SWIDTH 630 0
DWIDTH 14 0
BBX 11 19 2 -4
BITMAP
FE00
FF80
C1C0
C0C0
C060
C060
C060
C060
C060
C060
C060
C0C0
C1C0
FF80
FE00
0000
0000
0800
0800
ENDCHAR
STARTCHAR 1E0D
ENCODING 7693
SWIDTH 585 0
DWIDTH 13 0
BBX 10 20 1 -4
BITMAP
00C0
00C0
00C0
00C0
08C0
3EC0
61C0
60C0
C0C0
C0C0
C0C0
C0C0
C0C0
61C0
73C0
3EC0
0000
0000
0C00
0400
ENDCHAR
STARTCHAR 1E0E
ENCODING 7694
SWIDTH 630 0
DWIDTH 14 0
BBX 11 19 2 -4
BITMAP
FE00
FF80
C1C0
C0C0
C060
C060
C060
C060
C060
C060
C060
C0C0
C1C0
FF80
FE00
0000
0000
7E00
7E00
ENDCHAR
STARTCHAR 1E0F
ENCODING 7695
SWIDTH 585 0
DWIDTH 13 0
BBX 10 20 1 -4
BITMAP
00C0
00C0
00C0
00C0
08C0
3EC0
61C0
60C0
C0C0
C0C0
C0C0
C0C0
C0C0
61C0
73C0
3EC0
0000
0000
3F00
3F00
ENDCHAR
STARTCHAR 1E10
ENCODING 7696
SWIDTH 630 0
DWIDTH 14 0
BBX 11 20 2 -5
BITMAP
FE00
FF80
C1C0
C0C0
C060
C060
C060
C060
C060
C060
C060
C0C0
C1C0
FF80
FE00
0000
0000
1800
1800
1000
ENDCHAR
STARTCHAR 1E11
ENCODING 7697
SWIDTH 585 0
DWIDTH 13 0
BBX 10 21 1 -5
BITMAP
00C0
00C0
00C0
00C0
08C0
3EC0
61C0
60C0
C0C0
C0C0
C0C0
C0C0
C0C0
61C0
73C0
3EC0
0000
0000
0C00
0C00
0800
ENDCHAR
STARTCHAR 1E12
ENCODING 7698
SWIDTH 630 0
DWIDTH 14 0
BBX 11 19 2 -4
BITMAP
FE00
FF80
C1C0
C0C0
C060
C060
C060
C060
C060
C060
C060
C0C0
C1C0
FF80
FE00
0000
0800
1400
3600
ENDCHAR
STARTCHAR 1E13
ENCODING 7699
SWIDTH 585 0
DWIDTH 13 0
BBX 10 20 1 -4
BITMAP
00C0
00C0
00C0
00C0
08C0
3EC0
61C0
60C0
C0C0
C0C0
C0C0
C0C0
C0C0
61C0
73C0
3EC0
0000
0400
0E00
1B00
ENDCHAR
STARTCHAR 1E14
ENCODING 7700
SWIDTH 540 0
DWIDTH 12 0
BBX 9 21 2 0
BITMAP
6000
3000
0800
7E00
7E00
0000
FF80
FF80
C000
C000
C000
C000
C000
FF00
C000
C000
C000
C000
C000
FF80
FF80
ENDCHAR
STARTCHAR 1E15
ENCODING 7701
SWIDTH 540 0
DWIDTH 12 0
BBX 10 19 1 0
BITMAP
3000
1800
0C00
0000
3F00
3F00
0000
0C00
3F00
6380
4180
C0C0
FFC0
FFC0
C000
C000
6180
7380
3F00
ENDCHAR
STARTCHAR 1E16
ENCODING 7702
SWIDTH 540 0
DWIDTH 12 0
BBX 9 21 2 0
BITMAP
0600
0C00
0000
7E00
7E00
0000
FF80
FF80
C000
C000
C000
C000
C000
FF00
C000
C000
C000
C000
C000
FF80
FF80
ENDCHAR
STARTCHAR 1E17
ENCODING 7703
SWIDTH 540 0
DWIDTH 12 0
BBX 10 19 1 0
BITMAP
0200
0600
0C00
0000
3F00
3F00
0000
0C00
3F00
6380
4180
C0C0
FFC0
FFC0
C000
C000
6180
7380
3F00
ENDCHAR
STARTCHAR 1E18
ENCODING 7704
SWIDTH 540 0
DWIDTH 12 0
BBX 9 19 2 -4
BITMAP
FF80
FF80
C000
C000
C000
C000
C000
FF00
C000
C000
C000
C000
C000
FF80
FF80
0000
1800
1C00
2400
ENDCHAR
STARTCHAR 1E19
ENCODING 7705
SWIDTH 540 0
DWIDTH 12 0
BBX 10 16 1 -4
BITMAP
0C00
3F00
6380
4180
C0C0
FFC0
FFC0
C000
C000
6180
7380
3F00
0000
0C00
1C00
1200
ENDCHAR
STARTCHAR 1E1A
ENCODING 7706
SWIDTH 540 0
DWIDTH 12 0
BBX 9 19 2 -4
BITMAP
FF80
FF80
C000
C000
C000
C000
C000
FF00
C000
C000
C000
C000
C000
FF80
FF80
0000
0000
7A00
4E00
ENDCHAR
STARTCHAR 1E1B
ENCODING 7707
SWIDTH 540 0
DWIDTH 12 0
BBX 10 16 1 -4
BITMAP
0C00
3F00
6380
4180
C0C0
FFC0
FFC0
C000
C000
6180
7380
3F00
0000
0000
3900
2600
ENDCHAR
STARTCHAR 1E1C
ENCODING 7708
SWIDTH 540 0
DWIDTH 12 0
BBX 9 24 2 -5
BITMAP
4200
2600
1C00
0000
FF80
FF80
C000
C000
C000
C000
C000
FF00
C000
C000
C000
C000
C000
FF80
FF80
1800
1C00
0600
0600
1C00
ENDCHAR
STARTCHAR 1E1D
ENCODING 7709
SWIDTH 540 0
DWIDTH 12 0
BBX 10 21 1 -5
BITMAP
2100
2300
1E00
0000
0C00
3F00
6380
4180
C0C0
FFC0
FFC0
C000
C000
6180
7380
3F00
0C00
0800
0E00
0200
1E00
ENDCHAR
STARTCHAR 1E1E
ENCODING 7710
SWIDTH 495 0
DWIDTH 11 0
BBX 9 19 2 0
BITMAP
1800
1800
0000
0000
FF80
FF80
C000
C000
C000
C000
C000
FF00
FF00
C000
C000
C000
C000
C000
C000
ENDCHAR
STARTCHAR 1E1F
ENCODING 7711
SWIDTH 315 0
DWIDTH 7 0
BBX 6 20 1 0
BITMAP
30
30
00
00
1C
3C
60
60
60
F8
60
60
60
60
60
60
60
60
60
60
ENDCHAR
STARTCHAR 1E20
ENCODING 7712
SWIDTH 630 0
DWIDTH 14 0
BBX 12 18 1 0
BITMAP
1F80
1F80
0000
1F80
3FC0
6060
6060
C030
C000
C000
C3F0
C3F0
C030
C030
6020
6060
39C0
1F80
ENDCHAR
STARTCHAR 1E21
ENCODING 7713
SWIDTH 585 0
DWIDTH 13 0
BBX 10 19 1 -4
BITMAP
3F00
3F00
0000
0800
3FC0
61C0
60C0
C0C0
C0C0
C0C0
C0C0
C0C0
61C0
7FC0
1EC0
00C0
60C0
7380
3F00
ENDCHAR
STARTCHAR 1E22
ENCODING 7714
SWIDTH 675 0
DWIDTH 15 0
BBX 11 19 2 0
BITMAP
0C00
0E00
0000
0000
C060
C060
C060
C060
C060
C060
FFE0
FFE0
C060
C060
C060
C060
C060
C060
C060
ENDCHAR
STARTCHAR 1E23
ENCODING 7715
SWIDTH 585 0
DWIDTH 13 0
BBX 10 20 1 0
BITMAP
4000
E000
4000
0000
6000
6000
6000
6000
6600
7F80
71C0
60C0
60C0
60C0
60C0
60C0
60C0
60C0
60C0
60C0
ENDCHAR
STARTCHAR 1E24
ENCODING 7716
SWIDTH 675 0
DWIDTH 15 0
BBX 11 19 2 -4
BITMAP
C060
C060
C060
C060
C060
C060
FFE0
FFE0
C060
C060
C060
C060
C060
C060
C060
0000
0000
0C00
0400
ENDCHAR
STARTCHAR 1E25
ENCODING 7717
SWIDTH 585 0
DWIDTH 13 0
BBX 9 20 2 -4
BITMAP
C000
C000
C000
C000
CC00
FF00
E380
C180
C180
C180
C180
C180
C180
C180
C180
C180
0000
0000
1800
1800
ENDCHAR
STARTCHAR 1E26
ENCODING 7718
SWIDTH 675 0
DWIDTH 15 0
BBX 11 18 2 0
BITMAP
1B00
1300
0000
C060
C060
C060
C060
C060
C060
FFE0
FFE0
C060
C060
C060
C060
C060
C060
C060
ENDCHAR
STARTCHAR 1E27
ENCODING 7719
SWIDTH 585 0
DWIDTH 13 0
BBX 11 19 0 0
BITMAP
D800
D800
0000
3000
3000
3000
3000
3300
3FC0
38E0
3060
3060
3060
3060
3060
3060
3060
3060
3060
ENDCHAR
STARTCHAR 1E28
ENCODING 7720
SWIDTH 675 0
DWIDTH 15 0
BBX 12 20 1 -5
BITMAP
6030
6030
6030
6030
6030
6030
7FF0
7FF0
6030
6030
6030
6030
6030
6030
6030
4000
6000
1000
1000
F000
ENDCHAR
STARTCHAR 1E29
ENCODING 7721
SWIDTH 585 0
DWIDTH 13 0
BBX 10 21 1 -5
BITMAP
6000
6000
6000
6000
6600
7F80
71C0
60C0
60C0
60C0
60C0
60C0
60C0
60C0
60C0
60C0
4000
4000
7000
1000
F000
ENDCHAR
STARTCHAR 1E2A
ENCODING 7722
SWIDTH 675 0
DWIDTH 15 0
BBX 11 19 2 -5
BITMAP
C060
C060
C060
C060
C060
C060
FFE0
FFE0
C060
C060
C060
C060
C060
C060
C060
0000
0000
3100
1F00
ENDCHAR
STARTCHAR 1E2B
ENCODING 7723
SWIDTH 585 0
DWIDTH 13 0
BBX 9 20 2 -5
BITMAP
C000
C000
C000
C000
CC00
FF00
E380
C180
C180
C180
C180
C180
C180
C180
C180
C180
0000
0000
6200
3E00
ENDCHAR
STARTCHAR 1E2C
ENCODING 7724
SWIDTH 225 0
DWIDTH 5 0
BBX 6 19 0 -4
BITMAP
30
30
30
30
30
30
30
30
30
30
30
30
30
30
30
00
00
EC
98
ENDCHAR
STARTCHAR 1E2D
ENCODING 7725
SWIDTH 225 0
DWIDTH 5 0
BBX 6 19 0 -4
BITMAP
30
30
00
00
30
30
30
30
30
30
30
30
30
30
30
00
00
EC
98
ENDCHAR
STARTCHAR 1E2E
ENCODING 7726
SWIDTH 225 0
DWIDTH 5 0
BBX 6 21 0 0
BITMAP
0C
10
20
D8
C8
00
30
30
30
30
30
30
30
30
30
30
30
30
30
30
30
ENDCHAR
STARTCHAR 1E2F
ENCODING 7727
SWIDTH 225 0
DWIDTH 5 0
BBX 6 19 0 0
BITMAP
18
10
30
00
CC
CC
00
00
30
30
30
30
30
30
30
30
30
30
30
ENDCHAR
STARTCHAR 1E30
ENCODING 7728
SWIDTH 585 0
DWIDTH 13 0
BBX 10 19 2 0
BITMAP
0600
0C00
1800
0000
C0C0
C180
C300
C700
CE00
DC00
D800
FC00
EC00
C600
C700
C300
C180
C1C0
C0C0
ENDCHAR
STARTCHAR 1E31
ENCODING 7729
SWIDTH 495 0
DWIDTH 11 0
BBX 8 20 2 0
BITMAP
60
40
80
00
C0
C0
C0
C0
C0
C7
CE
CC
D8
F0
F8
D8
CC
C6
C7
C3
ENDCHAR
STARTCHAR 1E32
ENCODING 7730
SWIDTH 585 0
DWIDTH 13 0
BBX 10 19 2 -4
BITMAP
C0C0
C180
C300
C700
CE00
DC00
D800
FC00
EC00
C600
C700
C300
C180
C1C0
C0C0
0000
0000
0800
0800
ENDCHAR
STARTCHAR 1E33
ENCODING 7731
SWIDTH 495 0
DWIDTH 11 0
BBX 8 20 2 -4
BITMAP
C0
C0
C0
C0
C0
C7
CE
CC
D8
F0
F8
D8
CC
C6
C7
C3
00
00
18
18
ENDCHAR
STARTCHAR 1E34
ENCODING 7732
SWIDTH 585 0
DWIDTH 13 0
BBX 10 19 2 -4
BITMAP
C0C0
C180
C300
C700
CE00
DC00
D800
FC00
EC00
C600
C700
C300
C180
C1C0
C0C0
0000
0000
7E00
7E00
ENDCHAR
STARTCHAR 1E35
ENCODING 7733
SWIDTH 495 0
DWIDTH 11 0
BBX 8 20 2 -4
BITMAP
C0
C0
C0
C0
C0
C7
CE
CC
D8
F0
F8
D8
CC
C6
C7
C3
00
00
7E
7E
ENDCHAR
STARTCHAR 1E36
ENCODING 7734
SWIDTH 495 0
DWIDTH 11 0
BBX 8 19 2 -4
BITMAP
C0
C0
C0
C0
C0
C0
C0
C0
C0
C0
C0
C0
C0
FF
FF
00
00
10
10
ENDCHAR
STARTCHAR 1E37
ENCODING 7735
SWIDTH 225 0
DWIDTH 5 0
BBX 2 20 2 -4
BITMAP
C0
C0
C0
C0
C0
C0
C0
C0
C0
C0
C0
C0
C0
C0
C0
C0
00
00
C0
C0
ENDCHAR
STARTCHAR 1E38
ENCODING 7736
SWIDTH 495 0
DWIDTH 11 0
BBX 10 22 0 -4
BITMAP
FC00
FC00
0000
3000
3000
3000
3000
3000
3000
3000
3000
3000
3000
3000
3000
3000
3FC0
3FC0
0000
0000
0400
0400
ENDCHAR
STARTCHAR 1E39
ENCODING 7737
SWIDTH 225 0
DWIDTH 5 0
BBX 6 22 0 -4
BITMAP
FC
00
30
30
30
30
30
30
30
30
30
30
30
30
30
30
30
30
00
00
30
30
ENDCHAR
STARTCHAR 1E3A
ENCODING 7738
SWIDTH 495 0
DWIDTH 11 0
BBX 8 19 2 -4
BITMAP
C0
C0
C0
C0
C0
C0
C0
C0
C0
C0
C0
C0
C0
FF
FF
00
00
FC
FC
ENDCHAR
STARTCHAR 1E3B
ENCODING 7739
SWIDTH 225 0
DWIDTH 5 0
BBX 6 20 0 -4
BITMAP
30
30
30
30
30
30
30
30
30
30
30
30
30
30
30
30
00
00
FC
FC
ENDCHAR
STARTCHAR 1E3C
ENCODING 7740
SWIDTH 495 0
DWIDTH 11 0
BBX 8 19 2 -4
BITMAP
C0
C0
C0
C0
C0
C0
C0
C0
C0
C0
C0
C0
C0
FF
FF
00
10
28
6C
ENDCHAR
STARTCHAR 1E3D
ENCODING 7741
SWIDTH 225 0
DWIDTH 5 0
BBX 5 20 0 -4
BITMAP
30
30
30
30
30
30
30
30
30
30
30
30
30
30
30
30
00
20
70
D8
ENDCHAR
STARTCHAR 1E3E
ENCODING 7742
SWIDTH 765 0
DWIDTH 17 0
BBX 13 19 2 0
BITMAP
0180
0300
0200
0000
C018
C018
E018
E038
F028
F068
D068
D8C8
D8C8
CC88
CD88
C708
C708
C308
C008
ENDCHAR
STARTCHAR 1E3F
ENCODING 7743
SWIDTH 855 0
DWIDTH 19 0
BBX 15 16 2 0
BITMAP
00C0
0080
0100
0000
0830
FEFC
E78E
C386
C306
C306
C306
C306
C306
C306
C306
C306
ENDCHAR
STARTCHAR 1E40
ENCODING 7744
SWIDTH 765 0
DWIDTH 17 0
BBX 13 19 2 0
BITMAP
0200
0700
0000
0000
C018
C018
E018
E038
F028
F068
D068
D8C8
D8C8
CC88
CD88
C708
C708
C308
C008
ENDCHAR
STARTCHAR 1E41
ENCODING 7745
SWIDTH 855 0
DWIDTH 19 0
BBX 15 15 2 0
BITMAP
0300
0300
0000
0830
FEFC
E78E
C386
C306
C306
C306
C306
C306
C306
C306
C306
ENDCHAR
STARTCHAR 1E42
ENCODING 7746
SWIDTH 765 0
DWIDTH 17 0
BBX 13 19 2 -4
BITMAP
C018
C018
E018
E038
F028
F068
D068
D8C8
D8C8
CC88
CD88
C708
C708
C308
C008
0000
0000
0200
0200
ENDCHAR
STARTCHAR 1E43
ENCODING 7747
SWIDTH 855 0
DWIDTH 19 0
BBX 15 16 2 -4
BITMAP
0830
FEFC
E78E
C386
C306
C306
C306
C306
C306
C306
C306
C306
0000
0000
0300
0100
ENDCHAR
STARTCHAR 1E44
ENCODING 7748
SWIDTH 675 0
DWIDTH 15 0
BBX 11 19 2 0
BITMAP
0C00
0C00
0000
0000
C060
C060
E060
F060
F060
D860
CC60
CC60
C660
C360
C360
C1E0
C0E0
C0E0
C060
ENDCHAR
STARTCHAR 1E45
ENCODING 7749
SWIDTH 540 0
DWIDTH 12 0
BBX 9 15 2 0
BITMAP
1800
1800
0000
0C00
FF00
E380
C180
C180
C180
C180
C180
C180
C180
C180
C180
ENDCHAR
STARTCHAR 1E46
ENCODING 7750
SWIDTH 675 0
DWIDTH 15 0
BBX 11 19 2 -4
BITMAP
C060
C060
E060
F060
F060
D860
CC60
CC60
C660
C360
C360
C1E0
C0E0
C0E0
C060
0000
0000
0C00
0400
ENDCHAR
STARTCHAR 1E47
ENCODING 7751
SWIDTH 540 0
DWIDTH 12 0
BBX 9 16 2 -4
BITMAP
0C00
FF00
E380
C180
C180
C180
C180
C180
C180
C180
C180
C180
0000
0000
1800
1800
ENDCHAR
STARTCHAR 1E48
ENCODING 7752
SWIDTH 675 0
DWIDTH 15 0
BBX 11 19 2 -4
BITMAP
C060
C060
E060
F060
F060
D860
CC60
CC60
C660
C360
C360
C1E0
C0E0
C0E0
C060
0000
0000
3F00
3F00
ENDCHAR
STARTCHAR 1E49
ENCODING 7753
SWIDTH 540 0
DWIDTH 12 0
BBX 9 16 2 -4
BITMAP
0C00
FF00
E380
C180
C180
C180
C180
C180
C180
C180
C180
C180
0000
0000
7E00
7E00
ENDCHAR
STARTCHAR 1E4A
ENCODING 7754
SWIDTH 675 0
DWIDTH 15 0
BBX 11 19 2 -4
BITMAP
C060
C060
E060
F060
F060
D860
CC60
CC60
C660
C360
C360
C1E0
C0E0
C0E0
C060
0000
0400
0E00
1B00
ENDCHAR
STARTCHAR 1E4B
ENCODING 7755
SWIDTH 540 0
DWIDTH 12 0
BBX 9 16 2 -4
BITMAP
0C00
FF00
E380
C180
C180
C180
C180
C180
C180
C180
C180
C180
0000
1800
1C00
3600
ENDCHAR
STARTCHAR 1E4C
ENCODING 7756
SWIDTH 630 0
DWIDTH 14 0
BBX 12 21 1 0
BITMAP
0180
0300
0000
1E80
1300
0000
1F80
3FC0
7060
6070
C030
C030
C030
C030
C030
C030
C030
6030
6060
39E0
1F80
ENDCHAR
STARTCHAR 1E4D
ENCODING 7757
SWIDTH 540 0
DWIDTH 12 0
BBX 10 19 1 0
BITMAP
0300
0600
0C00
0000
3900
2700
0000
0C00
3F00
6180
60C0
C0C0
C0C0
C0C0
C0C0
C0C0
6180
7380
3F00
ENDCHAR
STARTCHAR 1E4E
ENCODING 7758
SWIDTH 630 0
DWIDTH 14 0
BBX 12 21 1 0
BITMAP
0900
0980
0000
1E80
1300
0000
1F80
3FC0
7060
6070
C030
C030
C030
C030
C030
C030
C030
6030
6060
39E0
1F80
ENDCHAR
STARTCHAR 1E4F
ENCODING 7759
SWIDTH 540 0
DWIDTH 12 0
BBX 10 18 1 0
BITMAP
3300
1300
0000
3900
2700
0000
0C00
3F00
6180
60C0
C0C0
C0C0
C0C0
C0C0
C0C0
6180
7380
3F00
ENDCHAR
STARTCHAR 1E50
ENCODING 7760
SWIDTH 630 0
DWIDTH 14 0
BBX 12 21 1 0
BITMAP
1800
0C00
0000
1F80
1F80
0000
1F80
3FC0
7060
6070
C030
C030
C030
C030
C030
C030
C030
6030
6060
39E0
1F80
ENDCHAR
STARTCHAR 1E51
ENCODING 7761
SWIDTH 540 0
DWIDTH 12 0
BBX 10 19 1 0
BITMAP
1000
1800
0C00
0000
3F00
3F00
0000
0C00
3F00
6180
60C0
C0C0
C0C0
C0C0
C0C0
C0C0
6180
7380
3F00
ENDCHAR
STARTCHAR 1E52
ENCODING 7762
SWIDTH 630 0
DWIDTH 14 0
BBX 12 21 1 0
BITMAP
0180
0300
0000
1F80
1F80
0000
1F80
3FC0
7060
6070
C030
C030
C030
C030
C030
C030
C030
6030
6060
39E0
1F80
ENDCHAR
STARTCHAR 1E53
ENCODING 7763
SWIDTH 540 0
DWIDTH 12 0
BBX 10 19 1 0
BITMAP
0300
0600
0C00
0000
3F00
3F00
0000
0C00
3F00
6180
60C0
C0C0
C0C0
C0C0
C0C0
C0C0
6180
7380
3F00
ENDCHAR
STARTCHAR 1E54
ENCODING 7764
SWIDTH 540 0
DWIDTH 12 0
BBX 10 19 2 0
BITMAP
0400
0800
1800
0000
FE00
FF80
C180
C0C0
C0C0
C0C0
C0C0
C380
FF00
C000
C000
C000
C000
C000
C000
ENDCHAR
STARTCHAR 1E55
ENCODING 7765
SWIDTH 585 0
DWIDTH 13 0
BBX 9 20 2 -4
BITMAP
0600
0400
0800
0000
0C00
BF00
E380
C180
C180
C180
C180
C180
C180
C180
F700
DE00
C000
C000
C000
C000
ENDCHAR
STARTCHAR 1E56
ENCODING 7766
SWIDTH 540 0
DWIDTH 12 0
BBX 10 19 2 0
BITMAP
1800
1800
0000
0000
FE00
FF80
C180
C0C0
C0C0
C0C0
C0C0
C380
FF00
C000
C000
C000
C000
C000
C000
ENDCHAR
STARTCHAR 1E57
ENCODING 7767
SWIDTH 585 0
DWIDTH 13 0
BBX 9 19 2 -4
BITMAP
1800
1800
0000
0C00
BF00
E380
C180
C180
C180
C180
C180
C180
C180
F700
DE00
C000
C000
C000
C000
ENDCHAR
STARTCHAR 1E58
ENCODING 7768
SWIDTH 585 0
DWIDTH 13 0
BBX 10 19 2 0
BITMAP
1800
1800
0000
0000
FE00
FF80
C180
C0C0
C0C0
C0C0
C1C0
FF80
FF00
C600
C300
C300
C180
C180
C0C0
ENDCHAR
STARTCHAR 1E59
ENCODING 7769
SWIDTH 360 0
DWIDTH 8 0
BBX 5 15 2 0
BITMAP
60
60
00
08
F8
E0
C0
C0
C0
C0
C0
C0
C0
C0
C0
ENDCHAR
STARTCHAR 1E5A
ENCODING 7770
SWIDTH 585 0
DWIDTH 13 0
BBX 10 19 2 -4
BITMAP
FE00
FF80
C180
C0C0
C0C0
C0C0
C1C0
FF80
FF00
C600
C300
C300
C180
C180
C0C0
0000
0000
1800
1800
ENDCHAR
STARTCHAR 1E5B
ENCODING 7771
SWIDTH 360 0
DWIDTH 8 0
BBX 5 16 2 -4
BITMAP
08
F8
E0
C0
C0
C0
C0
C0
C0
C0
C0
C0
00
00
C0
80
ENDCHAR
STARTCHAR 1E5C
ENCODING 7772
SWIDTH 585 0
DWIDTH 13 0
BBX 10 22 2 -4
BITMAP
7E00
7E00
0000
FE00
FF80
C180
C0C0
C0C0
C0C0
C1C0
FF80
FF00
C600
C300
C300
C180
C180
C0C0
0000
0000
1800
1800
ENDCHAR
STARTCHAR 1E5D
ENCODING 7773
SWIDTH 360 0
DWIDTH 8 0
BBX 6 19 1 -4
BITMAP
FC
FC
00
04
7C
70
60
60
60
60
60
60
60
60
60
00
00
60
40
ENDCHAR
STARTCHAR 1E5E
ENCODING 7774
SWIDTH 585 0
DWIDTH 13 0
BBX 10 19 2 -4
BITMAP
FE00
FF80
C180
C0C0
C0C0
C0C0
C1C0
FF80
FF00
C600
C300
C300
C180
C180
C0C0
0000
0000
7E00
7E00
ENDCHAR
STARTCHAR 1E5F
ENCODING 7775
SWIDTH 360 0
DWIDTH 8 0
BBX 7 16 0 -4
BITMAP
02
3E
38
30
30
30
30
30
30
30
30
30
00
00
FC
FC
ENDCHAR
STARTCHAR 1E60
ENCODING 7776
SWIDTH 585 0
DWIDTH 13 0
BBX 11 19 1 0
BITMAP
0C00
0C00
0000
0000
3F00
7F80
E0C0
C0C0
C000
E000
7800
3F00
07C0
00C0
0060
C040
C0C0
73C0
3F00
ENDCHAR
STARTCHAR 1E61
ENCODING 7777
SWIDTH 495 0
DWIDTH 11 0
BBX 9 15 1 0
BITMAP
1800
1800
0000
1800
7F00
E300
C100
C000
7800
3F00
0380
0180
C180
E300
7E00
ENDCHAR
STARTCHAR 1E62
ENCODING 7778
SWIDTH 585 0
DWIDTH 13 0
BBX 11 19 1 -4
BITMAP
3F00
7F80
E0C0
C0C0
C000
E000
7800
3F00
07C0
00C0
0060
C040
C0C0
73C0
3F00
0000
0000
0C00
0C00
ENDCHAR
STARTCHAR 1E63
ENCODING 7779
SWIDTH 495 0
DWIDTH 11 0
BBX 9 16 1 -4
BITMAP
1800
7F00
E300
C100
C000
7800
3F00
0380
0180
C180
E300
7E00
0000
0000
0800
0800
ENDCHAR
STARTCHAR 1E64
ENCODING 7780
SWIDTH 585 0
DWIDTH 13 0
BBX 11 19 1 1
BITMAP
3180
3300
0600
0000
3F00
7F80
E0C0
C0C0
C000
E000
7800
3F00
07C0
00C0
0060
C040
C0C0
73C0
3F00
ENDCHAR
STARTCHAR 1E65
ENCODING 7781
SWIDTH 495 0
DWIDTH 11 0
BBX 9 16 1 0
BITMAP
2300
7200
0400
0000
1800
7F00
E300
C100
C000
7800
3F00
0380
0180
C180
E300
7E00
ENDCHAR
STARTCHAR 1E66
ENCODING 7782
SWIDTH 585 0
DWIDTH 13 0
BBX 11 21 1 0
BITMAP
0C00
0C00
3180
1E00
0400
0000
3F00
7F80
E0C0
C0C0
C000
E000
7800
3F00
07C0
00C0
0060
C040
C0C0
73C0
3F00
ENDCHAR
STARTCHAR 1E67
ENCODING 7783
SWIDTH 495 0
DWIDTH 11 0
BBX 9 19 1 0
BITMAP
1800
1800
0000
3600
1400
1800
0000
1800
7F00
E300
C100
C000
7800
3F00
0380
0180
C180
E300
7E00
ENDCHAR
STARTCHAR 1E68
ENCODING 7784
SWIDTH 585 0
DWIDTH 13 0
BBX 11 23 1 -4
BITMAP
0C00
0C00
0000
0000
3F00
7F80
E0C0
C0C0
C000
E000
7800
3F00
07C0
00C0
0060
C040
C0C0
73C0
3F00
0000
0000
0C00
0C00
ENDCHAR
STARTCHAR 1E69
ENCODING 7785
SWIDTH 495 0
DWIDTH 11 0
BBX 9 19 1 -4
BITMAP
1800
1800
0000
1800
7F00
E300
C100
C000
7800
3F00
0380
0180
C180
E300
7E00
0000
0000
0800
0800
ENDCHAR
STARTCHAR 1E6A
ENCODING 7786
SWIDTH 495 0
DWIDTH 11 0
BBX 11 19 0 0
BITMAP
0600
0600
0000
0000
FFE0
FFE0
0600
0600
0600
0600
0600
0600
0600
0600
0600
0600
0600
0600
0600
ENDCHAR
STARTCHAR 1E6B
ENCODING 7787
SWIDTH 315 0
DWIDTH 7 0
BBX 6 18 1 0
BITMAP
60
60
00
00
60
60
60
F8
60
60
60
60
60
60
60
60
30
3C
ENDCHAR
STARTCHAR 1E6C
ENCODING 7788
SWIDTH 495 0
DWIDTH 11 0
BBX 11 19 0 -4
BITMAP
FFE0
FFE0
0600
0600
0600
0600
0600
0600
0600
0600
0600
0600
0600
0600
0600
0000
0000
0600
0600
ENDCHAR
STARTCHAR 1E6D
ENCODING 7789
SWIDTH 315 0
DWIDTH 7 0
BBX 6 18 1 -4
BITMAP
60
60
60
F8
60
60
60
60
60
60
60
60
30
3C
00
00
18
10
ENDCHAR
STARTCHAR 1E6E
ENCODING 7790
SWIDTH 495 0
DWIDTH 11 0
BBX 11 19 0 -4
BITMAP
FFE0
FFE0
0600
0600
0600
0600
0600
0600
0600
0600
0600
0600
0600
0600
0600
0000
0000
1F80
1F80
ENDCHAR
STARTCHAR 1E6F
ENCODING 7791
SWIDTH 315 0
DWIDTH 7 0
BBX 7 18 1 -4
BITMAP
60
60
60
F8
60
60
60
60
60
60
60
60
30
3C
00
00
7E
7E
ENDCHAR
STARTCHAR 1E70
ENCODING 7792
SWIDTH 495 0
DWIDTH 11 0
BBX 11 19 0 -4
BITMAP
FFE0
FFE0
0600
0600
0600
0600
0600
0600
0600
0600
0600
0600
0600
0600
0600
0000
0400
0E00
1B00
ENDCHAR
STARTCHAR 1E71
ENCODING 7793
SWIDTH 315 0
DWIDTH 7 0
BBX 6 18 1 -4
BITMAP
60
60
60
F8
60
60
60
60
60
60
60
60
30
3C
00
10
28
6C
ENDCHAR
STARTCHAR 1E72
ENCODING 7794
SWIDTH 630 0
DWIDTH 14 0
BBX 11 19 2 -4
BITMAP
8060
8060
8060
8060
8060
8060
8060
8060
8060
8060
C060
C060
C0C0
73C0
3F00
0000
0000
1300
3300
ENDCHAR
STARTCHAR 1E73
ENCODING 7795
SWIDTH 540 0
DWIDTH 12 0
BBX 10 15 1 -4
BITMAP
C0C0
C0C0
C0C0
C0C0
C0C0
C0C0
C0C0
C0C0
61C0
7FC0
3EC0
0000
0000
3300
3300
ENDCHAR
STARTCHAR 1E74
ENCODING 7796
SWIDTH 630 0
DWIDTH 14 0
BBX 11 19 2 -4
BITMAP
8060
8060
8060
8060
8060
8060
8060
8060
8060
8060
C060
C060
C0C0
73C0
3F00
0000
0000
3D00
2700
ENDCHAR
STARTCHAR 1E75
ENCODING 7797
SWIDTH 540 0
DWIDTH 12 0
BBX 10 15 1 -4
BITMAP
C0C0
C0C0
C0C0
C0C0
C0C0
C0C0
C0C0
C0C0
61C0
7FC0
3EC0
0000
0000
3D00
2700
ENDCHAR
STARTCHAR 1E76
ENCODING 7798
SWIDTH 630 0
DWIDTH 14 0
BBX 11 19 2 -4
BITMAP
8060
8060
8060
8060
8060
8060
8060
8060
8060
8060
C060
C060
C0C0
73C0
3F00
0000
0C00
0E00
1300
ENDCHAR
STARTCHAR 1E77
ENCODING 7799
SWIDTH 540 0
DWIDTH 12 0
BBX 10 15 1 -4
BITMAP
C0C0
C0C0
C0C0
C0C0
C0C0
C0C0
C0C0
C0C0
61C0
7FC0
3EC0
0000
0C00
0E00
1200
ENDCHAR
STARTCHAR 1E78
ENCODING 7800
SWIDTH 630 0
DWIDTH 14 0
BBX 11 21 2 0
BITMAP
0300
0600
0000
1D00
2600
0000
8060
8060
8060
8060
8060
8060
8060
8060
8060
8060
C060
C060
C0C0
73C0
3F00
ENDCHAR
STARTCHAR 1E79
ENCODING 7801
SWIDTH 540 0
DWIDTH 12 0
BBX 10 19 1 0
BITMAP
0300
0600
0C00
0000
3900
2700
0000
0000
C0C0
C0C0
C0C0
C0C0
C0C0
C0C0
C0C0
C0C0
61C0
7FC0
3EC0
ENDCHAR
STARTCHAR 1E7A
ENCODING 7802
SWIDTH 630 0
DWIDTH 14 0
BBX 11 21 2 0
BITMAP
1300
1300
0000
3F00
3F00
0000
8060
8060
8060
8060
8060
8060
8060
8060
8060
8060
C060
C060
C0C0
73C0
3F00
ENDCHAR
STARTCHAR 1E7B
ENCODING 7803
SWIDTH 540 0
DWIDTH 12 0
BBX 10 18 1 0
BITMAP
3300
1100
0000
3F00
3F00
0000
0000
C0C0
C0C0
C0C0
C0C0
C0C0
C0C0
C0C0
C0C0
61C0
7FC0
3EC0
ENDCHAR
STARTCHAR 1E7C
ENCODING 7804
SWIDTH 585 0
DWIDTH 13 0
BBX 13 18 0 0
BITMAP
0E80
0B80
0000
C018
6030
6030
6030
3060
3060
3060
18C0
18C0
0880
0D80
0D80
0500
0700
0700
ENDCHAR
STARTCHAR 1E7D
ENCODING 7805
SWIDTH 450 0
DWIDTH 10 0
BBX 10 15 0 0
BITMAP
3900
2700
0000
0000
C0C0
6080
6180
6180
3100
3300
3300
1E00
1E00
0E00
0C00
ENDCHAR
STARTCHAR 1E7E
ENCODING 7806
SWIDTH 585 0
DWIDTH 13 0
BBX 13 19 0 -4
BITMAP
C018
6030
6030
6030
3060
3060
3060
18C0
18C0
0880
0D80
0D80
0500
0700
0700
0000
0000
0200
0200
ENDCHAR
STARTCHAR 1E7F
ENCODING 7807
SWIDTH 450 0
DWIDTH 10 0
BBX 10 15 0 -4
BITMAP
C0C0
6080
6180
6180
3100
3300
3300
1E00
1E00
0E00
0C00
0000
0000
0C00
0C00
ENDCHAR
STARTCHAR 1E80
ENCODING 7808
SWIDTH 810 0
DWIDTH 18 0
BBX 18 19 0 0
BITMAP
030000
008000
00C000
000000
C0C0C0
E0C0C0
60E180
61E180
61E180
312180
333300
333300
333300
1A1200
1E1E00
1E1E00
0E0E00
0C0C00
0C0C00
ENDCHAR
STARTCHAR 1E81
ENCODING 7809
SWIDTH 720 0
DWIDTH 16 0
BBX 14 16 1 0
BITMAP
0C00
0600
0200
0000
0000
C30C
C30C
C78C
C788
4498
6CD8
6CD8
6850
2850
3870
3870
ENDCHAR
STARTCHAR 1E82
ENCODING 7810
SWIDTH 810 0
DWIDTH 18 0
BBX 18 19 0 0
BITMAP
003000
006000
00C000
000000
C0C0C0
E0C0C0
60E180
61E180
61E180
312180
333300
333300
333300
1A1200
1E1E00
1E1E00
0E0E00
0C0C00
0C0C00
ENDCHAR
STARTCHAR 1E83
ENCODING 7811
SWIDTH 720 0
DWIDTH 16 0
BBX 14 16 1 0
BITMAP
00C0
0180
0100
0000
0000
C30C
C30C
C78C
C788
4498
6CD8
6CD8
6850
2850
3870
3870
ENDCHAR
STARTCHAR 1E84
ENCODING 7812
SWIDTH 810 0
DWIDTH 18 0
BBX 18 18 0 0
BITMAP
033000
012000
000000
C0C0C0
E0C0C0
60E180
61E180
61E180
312180
333300
333300
333300
1A1200
1E1E00
1E1E00
0E0E00
0C0C00
0C0C00
ENDCHAR
STARTCHAR 1E85
ENCODING 7813
SWIDTH 720 0
DWIDTH 16 0
BBX 14 15 1 0
BITMAP
0CC0
0CC0
0000
0000
C30C
C30C
C78C
C788
4498
6CD8
6CD8
6850
2850
3870
3870
ENDCHAR
STARTCHAR 1E86
ENCODING 7814
SWIDTH 810 0
DWIDTH 18 0
BBX 18 19 0 0
BITMAP
00C000
00C000
000000
000000
C0C0C0
E0C0C0
60E180
61E180
61E180
312180
333300
333300
333300
1A1200
1E1E00
1E1E00
0E0E00
0C0C00
0C0C00
ENDCHAR
STARTCHAR 1E87
ENCODING 7815
SWIDTH 720 0
DWIDTH 16 0
BBX 14 15 1 0
BITMAP
0300
0300
0000
0000
C30C
C30C
C78C
C788
4498
6CD8
6CD8
6850
2850
3870
3870
ENDCHAR
STARTCHAR 1E88
ENCODING 7816
SWIDTH 810 0
DWIDTH 18 0
BBX 18 19 0 -4
BITMAP
C0C0C0
E0C0C0
60E180
61E180
61E180
312180
333300
333300
333300
1A1200
1E1E00
1E1E00
0E0E00
0C0C00
0C0C00
000000
000000
00C000
00C000
ENDCHAR
STARTCHAR 1E89
ENCODING 7817
SWIDTH 720 0
DWIDTH 16 0
BBX 14 15 1 -4
BITMAP
C30C
C30C
C78C
C788
4498
6CD8
6CD8
6850
2850
3870
3870
0000
0000
0300
0300
ENDCHAR
STARTCHAR 1E8A
ENCODING 7818
SWIDTH 540 0
DWIDTH 12 0
BBX 12 19 0 0
BITMAP
0600
0600
0000
0000
E030
6060
30E0
38C0
1980
0D80
0F00
0600
0F00
0F00
1980
30C0
30C0
6060
E070
ENDCHAR
STARTCHAR 1E8B
ENCODING 7819
SWIDTH 495 0
DWIDTH 11 0
BBX 9 15 1 0
BITMAP
1800
1800
0000
0000
C180
6300
6600
3600
1C00
1C00
3C00
3600
6300
C300
C180
ENDCHAR
STARTCHAR 1E8C
ENCODING 7820
SWIDTH 540 0
DWIDTH 12 0
BBX 12 18 0 0
BITMAP
0980
0900
0000
E030
6060
30E0
38C0
1980
0D80
0F00
0600
0F00
0F00
1980
30C0
30C0
6060
E070
ENDCHAR
STARTCHAR 1E8D
ENCODING 7821
SWIDTH 495 0
DWIDTH 11 0
BBX 9 15 1 0
BITMAP
3600
2600
0000
0000
C180
6300
6600
3600
1C00
1C00
3C00
3600
6300
C300
C180
ENDCHAR
STARTCHAR 1E8E
ENCODING 7822
SWIDTH 540 0
DWIDTH 12 0
BBX 12 19 0 0
BITMAP
0600
0600
0000
0000
C070
6060
60C0
30C0
1980
1980
0F00
0E00
0600
0600
0600
0600
0600
0600
0600
ENDCHAR
STARTCHAR 1E8F
ENCODING 7823
SWIDTH 450 0
DWIDTH 10 0
BBX 10 19 0 -4
BITMAP
0C00
0C00
0000
0000
C0C0
60C0
6180
6180
3180
3300
1300
1B00
1E00
0E00
0C00
0C00
0C00
7800
7000
ENDCHAR
STARTCHAR 1E90
ENCODING 7824
SWIDTH 540 0
DWIDTH 12 0
BBX 10 20 1 0
BITMAP
0400
0E00
1A00
3300
0000
FFC0
FFC0
01C0
0180
0300
0700
0600
0C00
1800
1800
3000
6000
6000
FFC0
FFC0
ENDCHAR
STARTCHAR 1E91
ENCODING 7825
SWIDTH 450 0
DWIDTH 10 0
BBX 9 16 1 0
BITMAP
1800
1400
2600
0000
0000
FF80
0300
0600
0600
0C00
1800
3000
3000
6000
FF80
FF80
ENDCHAR
STARTCHAR 1E92
ENCODING 7826
SWIDTH 540 0
DWIDTH 12 0
BBX 10 19 1 -4
BITMAP
FFC0
FFC0
01C0
0180
0300
0700
0600
0C00
1800
1800
3000
6000
6000
FFC0
FFC0
0000
0000
0C00
0C00
ENDCHAR
STARTCHAR 1E93
ENCODING 7827
SWIDTH 450 0
DWIDTH 10 0
BBX 9 15 1 -4
BITMAP
FF80
0300
0600
0600
0C00
1800
3000
3000
6000
FF80
FF80
0000
0000
1800
1800
ENDCHAR
STARTCHAR 1E94
ENCODING 7828
SWIDTH 540 0
DWIDTH 12 0
BBX 10 19 1 -4
BITMAP
FFC0
FFC0
01C0
0180
0300
0700
0600
0C00
1800
1800
3000
6000
6000
FFC0
FFC0
0000
0000
3F00
3F00
ENDCHAR
STARTCHAR 1E95
ENCODING 7829
SWIDTH 450 0
DWIDTH 10 0
BBX 9 15 1 -4
BITMAP
FF80
0300
0600
0600
0C00
1800
3000
3000
6000
FF80
FF80
0000
0000
7E00
7E00
ENDCHAR
STARTCHAR 1E96
ENCODING 7830
SWIDTH 585 0
DWIDTH 13 0
BBX 9 20 2 -4
BITMAP
C000
C000
C000
C000
CC00
FF00
E380
C180
C180
C180
C180
C180
C180
C180
C180
C180
0000
0000
7E00
7E00
ENDCHAR
STARTCHAR 1E97
ENCODING 7831
SWIDTH 315 0
DWIDTH 7 0
BBX 6 18 1 0
BITMAP
88
D8
00
00
60
60
60
F8
60
60
60
60
60
60
60
60
30
3C
ENDCHAR
STARTCHAR 1E98
ENCODING 7832
SWIDTH 720 0
DWIDTH 16 0
BBX 14 17 1 0
BITMAP
0300
0480
0480
0780
0000
0000
C30C
C30C
C78C
C788
4498
6CD8
6CD8
6850
2850
3870
3870
ENDCHAR
STARTCHAR 1E99
ENCODING 7833
SWIDTH 450 0
DWIDTH 10 0
BBX 10 21 0 -4
BITMAP
0C00
1200
1200
0E00
0000
0000
C0C0
60C0
6180
6180
3180
3300
1300
1B00
1E00
0E00
0C00
0C00
0C00
7800
7000
ENDCHAR
STARTCHAR 1E9E
ENCODING 7838
SWIDTH 675 0
DWIDTH 15 0
BBX 12 15 2 0
BITMAP
1F80
7FE0
E060
C0E0
C1C0
C380
C300
C3C0
C0E0
C030
C030
C030
C030
CFE0
CFC0
ENDCHAR
STARTCHAR 1EA0
ENCODING 7840
SWIDTH 585 0
DWIDTH 13 0
BBX 13 19 0 -4
BITMAP
0700
0700
0500
0D80
0D80
0880
18C0
18C0
1040
3FE0
3FE0
2020
6030
6030
C018
0000
0000
0200
0200
ENDCHAR
STARTCHAR 1EA1
ENCODING 7841
SWIDTH 495 0
DWIDTH 11 0
BBX 9 16 1 -4
BITMAP
0C00
7F00
6380
C180
0180
1F80
7F80
C180
C180
C180
E780
7D80
0000
0000
0C00
0C00
ENDCHAR
STARTCHAR 1EA2
ENCODING 7842
SWIDTH 585 0
DWIDTH 13 0
BBX 13 19 0 0
BITMAP
0700
0100
0300
0000
0700
0700
0500
0D80
0D80
0880
18C0
18C0
1040
3FE0
3FE0
2020
6030
6030
C018
ENDCHAR
STARTCHAR 1EA3
ENCODING 7843
SWIDTH 495 0
DWIDTH 11 0
BBX 9 17 1 0
BITMAP
1C00
0400
0600
0C00
0000
0C00
7F00
6380
C180
0180
1F80
7F80
C180
C180
C180
E780
7D80
ENDCHAR
STARTCHAR 1EA4
ENCODING 7844
SWIDTH 585 0
DWIDTH 13 0
BBX 13 21 0 0
BITMAP
0030
0060
0200
0D80
18C0
0000
0700
0700
0500
0D80
0D80
0880
18C0
18C0
1040
3FE0
3FE0
2020
6030
6030
C018
ENDCHAR
STARTCHAR 1EA5
ENCODING 7845
SWIDTH 495 0
DWIDTH 11 0
BBX 10 18 1 0
BITMAP
00C0
0080
0D80
1400
3200
0000
0C00
7F00
6380
C180
0180
1F80
7F80
C180
C180
C180
E780
7D80
ENDCHAR
STARTCHAR 1EA6
ENCODING 7846
SWIDTH 585 0
DWIDTH 13 0
BBX 13 21 0 0
BITMAP
0080
0040
0220
0D80
18C0
0000
0700
0700
0500
0D80
0D80
0880
18C0
18C0
1040
3FE0
3FE0
2020
6030
6030
C018
ENDCHAR
STARTCHAR 1EA7
ENCODING 7847
SWIDTH 495 0
DWIDTH 11 0
BBX 9 18 1 0
BITMAP
0300
0180
0C80
1400
3200
0000
0C00
7F00
6380
C180
0180
1F80
7F80
C180
C180
C180
E780
7D80
ENDCHAR
STARTCHAR 1EA8
ENCODING 7848
SWIDTH 585 0
DWIDTH 13 0
BBX 13 21 0 0
BITMAP
00C0
0040
0240
0D80
18C0
0000
0700
0700
0500
0D80
0D80
0880
18C0
18C0
1040
3FE0
3FE0
2020
6030
6030
C018
ENDCHAR
STARTCHAR 1EA9
ENCODING 7849
SWIDTH 495 0
DWIDTH 11 0
BBX 9 19 1 0
BITMAP
0380
0080
0080
0D80
1400
3200
0000
0C00
7F00
6380
C180
0180
1F80
7F80
C180
C180
C180
E780
7D80
ENDCHAR
STARTCHAR 1EAA
ENCODING 7850
SWIDTH 585 0
DWIDTH 13 0
BBX 13 21 0 0
BITMAP
0E80
0B00
0200
0D80
18C0
0000
0700
0700
0500
0D80
0D80
0880
18C0
18C0
1040
3FE0
3FE0
2020
6030
6030
C018
ENDCHAR
STARTCHAR 1EAB
ENCODING 7851
SWIDTH 495 0
DWIDTH 11 0
BBX 9 20 1 0
BITMAP
1000
3A00
2600
0000
0C00
1400
3200
0000
0C00
7F00
6380
C180
0180
1F80
7F80
C180
C180
C180
E780
7D80
ENDCHAR
STARTCHAR 1EAC
ENCODING 7852
SWIDTH 585 0
DWIDTH 13 0
BBX 13 24 0 -4
BITMAP
0200
0700
0D80
0880
0000
0700
0700
0500
0D80
0D80
0880
18C0
18C0
1040
3FE0
3FE0
2020
6030
6030
C018
0000
0000
0200
0200
ENDCHAR
STARTCHAR 1EAD
ENCODING 7853
SWIDTH 495 0
DWIDTH 11 0
BBX 9 20 1 -4
BITMAP
0C00
1400
3200
0000
0C00
7F00
6380
C180
0180
1F80
7F80
C180
C180
C180
E780
7D80
0000
0000
0C00
0C00
ENDCHAR
STARTCHAR 1EAE
ENCODING 7854
SWIDTH 585 0
DWIDTH 13 0
BBX 13 21 0 0
BITMAP
0100
0200
1040
18C0
0700
0000
0700
0700
0500
0D80
0D80
0880
18C0
18C0
1040
3FE0
3FE0
2020
6030
6030
C018
ENDCHAR
STARTCHAR 1EAF
ENCODING 7855
SWIDTH 495 0
DWIDTH 11 0
BBX 9 19 1 0
BITMAP
0200
0600
0C00
2100
2300
1E00
0000
0C00
7F00
6380
C180
0180
1F80
7F80
C180
C180
C180
E780
7D80
ENDCHAR
STARTCHAR 1EB0
ENCODING 7856
SWIDTH 585 0
DWIDTH 13 0
BBX 13 21 0 0
BITMAP
0400
0200
1040
18C0
0700
0000
0700
0700
0500
0D80
0D80
0880
18C0
18C0
1040
3FE0
3FE0
2020
6030
6030
C018
ENDCHAR
STARTCHAR 1EB1
ENCODING 7857
SWIDTH 495 0
DWIDTH 11 0
BBX 9 19 1 0
BITMAP
3000
1800
0800
2100
2300
1E00
0000
0C00
7F00
6380
C180
0180
1F80
7F80
C180
C180
C180
E780
7D80
ENDCHAR
STARTCHAR 1EB2
ENCODING 7858
SWIDTH 585 0
DWIDTH 13 0
BBX 13 21 0 0
BITMAP
0600
0100
1240
18C0
0700
0000
0700
0700
0500
0D80
0D80
0880
18C0
18C0
1040
3FE0
3FE0
2020
6030
6030
C018
ENDCHAR
STARTCHAR 1EB3
ENCODING 7859
SWIDTH 495 0
DWIDTH 11 0
BBX 9 19 1 1
BITMAP
1C00
0400
0C00
2100
2300
1E00
0000
0C00
7F00
6380
C180
0180
1F80
7F80
C180
C180
C180
E780
7D80
ENDCHAR
STARTCHAR 1EB4
ENCODING 7860
SWIDTH 585 0
DWIDTH 13 0
BBX 13 21 0 0
BITMAP
0E80
0B00
1040
18C0
0700
0000
0700
0700
0500
0D80
0D80
0880
18C0
18C0
1040
3FE0
3FE0
2020
6030
6030
C018
ENDCHAR
STARTCHAR 1EB5
ENCODING 7861
SWIDTH 495 0
DWIDTH 11 0
BBX 9 20 1 0
BITMAP
1000
3A00
2600
0000
2100
2300
1E00
0000
0C00
7F00
6380
C180
0180
1F80
7F80
C180
C180
C180
E780
7D80
ENDCHAR
STARTCHAR 1EB6
ENCODING 7862
SWIDTH 585 0
DWIDTH 13 0
BBX 13 23 0 -4
BITMAP
18C0
0D80
0700
0000
0700
0700
0500
0D80
0D80
0880
18C0
18C0
1040
3FE0
3FE0
2020
6030
6030
C018
0000
0000
0200
0200
ENDCHAR
STARTCHAR 1EB7
ENCODING 7863
SWIDTH 495 0
DWIDTH 11 0
BBX 9 20 1 -4
BITMAP
2100
2300
1E00
0000
0C00
7F00
6380
C180
0180
1F80
7F80
C180
C180
C180
E780
7D80
0000
0000
0C00
0C00
ENDCHAR
STARTCHAR 1EB8
ENCODING 7864
SWIDTH 540 0
DWIDTH 12 0
BBX 9 19 2 -4
BITMAP
FF80
FF80
C000
C000
C000
C000
C000
FF00
C000
C000
C000
C000
C000
FF80
FF80
0000
0000
1800
1800
ENDCHAR
STARTCHAR 1EB9
ENCODING 7865
SWIDTH 540 0
DWIDTH 12 0
BBX 10 16 1 -4
BITMAP
0C00
3F00
6380
4180
C0C0
FFC0
FFC0
C000
C000
6180
7380
3F00
0000
0000
0C00
0C00
ENDCHAR
STARTCHAR 1EBA
ENCODING 7866
SWIDTH 540 0
DWIDTH 12 0
BBX 9 19 2 0
BITMAP
1C00
0400
0C00
0000
FF80
FF80
C000
C000
C000
C000
C000
FF00
C000
C000
C000
C000
C000
FF80
FF80
ENDCHAR
STARTCHAR 1EBB
ENCODING 7867
SWIDTH 540 0
DWIDTH 12 0
BBX 10 17 1 0
BITMAP
1C00
0600
0600
0400
0000
0C00
3F00
6380
4180
C0C0
FFC0
FFC0
C000
C000
6180
7380
3F00
ENDCHAR
STARTCHAR 1EBC
ENCODING 7868
SWIDTH 540 0
DWIDTH 12 0
BBX 9 18 2 0
BITMAP
3A00
4C00
0000
FF80
FF80
C000
C000
C000
C000
C000
FF00
C000
C000
C000
C000
C000
FF80
FF80
ENDCHAR
STARTCHAR 1EBD
ENCODING 7869
SWIDTH 540 0
DWIDTH 12 0
BBX 10 15 1 0
BITMAP
3900
6600
0000
0C00
3F00
6380
4180
C0C0
FFC0
FFC0
C000
C000
6180
7380
3F00
ENDCHAR
STARTCHAR 1EBE
ENCODING 7870
SWIDTH 540 0
DWIDTH 12 0
BBX 10 21 2 0
BITMAP
00C0
0100
1800
3C00
6300
0000
FF80
FF80
C000
C000
C000
C000
C000
FF00
C000
C000
C000
C000
C000
FF80
FF80
ENDCHAR
STARTCHAR 1EBF
ENCODING 7871
SWIDTH 540 0
DWIDTH 12 0
BBX 10 18 1 0
BITMAP
0040
00C0
0D80
1E00
3200
0000
0C00
3F00
6380
4180
C0C0
FFC0
FFC0
C000
C000
6180
7380
3F00
ENDCHAR
STARTCHAR 1EC0
ENCODING 7872
SWIDTH 540 0
DWIDTH 12 0
BBX 9 21 2 0
BITMAP
0600
0100
1800
3C00
6300
0000
FF80
FF80
C000
C000
C000
C000
C000
FF00
C000
C000
C000
C000
C000
FF80
FF80
ENDCHAR
STARTCHAR 1EC1
ENCODING 7873
SWIDTH 540 0
DWIDTH 12 0
BBX 10 18 1 0
BITMAP
0300
0180
0CC0
1E00
3200
0000
0C00
3F00
6380
4180
C0C0
FFC0
FFC0
C000
C000
6180
7380
3F00
ENDCHAR
STARTCHAR 1EC2
ENCODING 7874
SWIDTH 540 0
DWIDTH 12 0
BBX 9 21 2 0
BITMAP
0300
0100
1900
3C00
6300
0000
FF80
FF80
C000
C000
C000
C000
C000
FF00
C000
C000
C000
C000
C000
FF80
FF80
ENDCHAR
STARTCHAR 1EC3
ENCODING 7875
SWIDTH 540 0
DWIDTH 12 0
BBX 10 19 1 0
BITMAP
0380
00C0
00C0
0C80
1E00
3200
0000
0C00
3F00
6380
4180
C0C0
FFC0
FFC0
C000
C000
6180
7380
3F00
ENDCHAR
STARTCHAR 1EC4
ENCODING 7876
SWIDTH 540 0
DWIDTH 12 0
BBX 9 21 2 0
BITMAP
3200
6C00
0800
3C00
6300
0000
FF80
FF80
C000
C000
C000
C000
C000
FF00
C000
C000
C000
C000
C000
FF80
FF80
ENDCHAR
STARTCHAR 1EC5
ENCODING 7877
SWIDTH 540 0
DWIDTH 12 0
BBX 10 19 1 1
BITMAP
3B00
2600
0000
0C00
1E00
3200
0000
0C00
3F00
6380
4180
C0C0
FFC0
FFC0
C000
C000
6180
7380
3F00
ENDCHAR
STARTCHAR 1EC6
ENCODING 7878
SWIDTH 540 0
DWIDTH 12 0
BBX 9 24 2 -4
BITMAP
0800
1C00
3400
6600
0000
FF80
FF80
C000
C000
C000
C000
C000
FF00
C000
C000
C000
C000
C000
FF80
FF80
0000
0000
1800
1800
ENDCHAR
STARTCHAR 1EC7
ENCODING 7879
SWIDTH 540 0
DWIDTH 12 0
BBX 10 20 1 -4
BITMAP
0C00
1E00
3200
0000
0C00
3F00
6380
4180
C0C0
FFC0
FFC0
C000
C000
6180
7380
3F00
0000
0000
0C00
0C00
ENDCHAR
STARTCHAR 1EC8
ENCODING 7880
SWIDTH 225 0
DWIDTH 5 0
BBX 4 19 1 0
BITMAP
E0
30
60
00
60
60
60
60
60
60
60
60
60
60
60
60
60
60
60
ENDCHAR
STARTCHAR 1EC9
ENCODING 7881
SWIDTH 225 0
DWIDTH 5 0
BBX 4 17 1 0
BITMAP
C0
20
30
60
00
00
60
60
60
60
60
60
60
60
60
60
60
ENDCHAR
STARTCHAR 1ECA
ENCODING 7882
SWIDTH 225 0
DWIDTH 5 0
BBX 2 19 2 -4
BITMAP
C0
C0
C0
C0
C0
C0
C0
C0
C0
C0
C0
C0
C0
C0
C0
00
00
C0
C0
ENDCHAR
STARTCHAR 1ECB
ENCODING 7883
SWIDTH 225 0
DWIDTH 5 0
BBX 2 19 2 -4
BITMAP
C0
C0
00
00
C0
C0
C0
C0
C0
C0
C0
C0
C0
C0
C0
00
00
C0
C0
ENDCHAR
STARTCHAR 1ECC
ENCODING 7884
SWIDTH 630 0
DWIDTH 14 0
BBX 12 19 1 -4
BITMAP
1F80
3FC0
7060
6070
C030
C030
C030
C030
C030
C030
C030
6030
6060
39E0
1F80
0000
0000
0600
0600
ENDCHAR
STARTCHAR 1ECD
ENCODING 7885
SWIDTH 540 0
DWIDTH 12 0
BBX 10 16 1 -4
BITMAP
0C00
3F00
6180
60C0
C0C0
C0C0
C0C0
C0C0
C0C0
6180
7380
3F00
0000
0000
0C00
0C00
ENDCHAR
STARTCHAR 1ECE
ENCODING 7886
SWIDTH 630 0
DWIDTH 14 0
BBX 12 19 1 0
BITMAP
0700
0100
0300
0000
1F80
3FC0
7060
6070
C030
C030
C030
C030
C030
C030
C030
6030
6060
39E0
1F80
ENDCHAR
STARTCHAR 1ECF
ENCODING 7887
SWIDTH 540 0
DWIDTH 12 0
BBX 10 17 1 0
BITMAP
0C00
0600
0200
0600
0000
0C00
3F00
6180
60C0
C0C0
C0C0
C0C0
C0C0
C0C0
6180
7380
3F00
ENDCHAR
STARTCHAR 1ED0
ENCODING 7888
SWIDTH 630 0
DWIDTH 14 0
BBX 12 21 1 0
BITMAP
0030
0040
0600
0F00
18C0
0000
1F80
3FC0
7060
6070
C030
C030
C030
C030
C030
C030
C030
6030
6060
39E0
1F80
ENDCHAR
STARTCHAR 1ED1
ENCODING 7889
SWIDTH 540 0
DWIDTH 12 0
BBX 11 18 1 0
BITMAP
0060
00C0
0D80
1E00
1300
0000
0C00
3F00
6180
60C0
C0C0
C0C0
C0C0
C0C0
C0C0
6180
7380
3F00
ENDCHAR
STARTCHAR 1ED2
ENCODING 7890
SWIDTH 630 0
DWIDTH 14 0
BBX 12 21 1 0
BITMAP
0180
00C0
0600
0F00
18C0
0000
1F80
3FC0
7060
6070
C030
C030
C030
C030
C030
C030
C030
6030
6060
39E0
1F80
ENDCHAR
STARTCHAR 1ED3
ENCODING 7891
SWIDTH 540 0
DWIDTH 12 0
BBX 10 18 1 0
BITMAP
0300
0180
0CC0
1E00
1300
0000
0C00
3F00
6180
60C0
C0C0
C0C0
C0C0
C0C0
C0C0
6180
7380
3F00
ENDCHAR
STARTCHAR 1ED4
ENCODING 7892
SWIDTH 630 0
DWIDTH 14 0
BBX 12 21 1 0
BITMAP
01C0
0040
0640
0F00
18C0
0000
1F80
3FC0
7060
6070
C030
C030
C030
C030
C030
C030
C030
6030
6060
39E0
1F80
ENDCHAR
STARTCHAR 1ED5
ENCODING 7893
SWIDTH 540 0
DWIDTH 12 0
BBX 10 19 1 0
BITMAP
0180
00C0
0040
0C80
1E00
1300
0000
0C00
3F00
6180
60C0
C0C0
C0C0
C0C0
C0C0
C0C0
6180
7380
3F00
ENDCHAR
STARTCHAR 1ED6
ENCODING 7894
SWIDTH 630 0
DWIDTH 14 0
BBX 12 21 1 0
BITMAP
0D80
1300
0600
0F00
1880
0000
1F80
3FC0
7060
6070
C030
C030
C030
C030
C030
C030
C030
6030
6060
39E0
1F80
ENDCHAR
STARTCHAR 1ED7
ENCODING 7895
SWIDTH 540 0
DWIDTH 12 0
BBX 10 19 1 1
BITMAP
3D00
2600
0000
0C00
1E00
1300
0000
0C00
3F00
6180
60C0
C0C0
C0C0
C0C0
C0C0
C0C0
6180
7380
3F00
ENDCHAR
STARTCHAR 1ED8
ENCODING 7896
SWIDTH 630 0
DWIDTH 14 0
BBX 12 24 1 -4
BITMAP
0600
0600
0D00
1980
0000
1F80
3FC0
7060
6070
C030
C030
C030
C030
C030
C030
C030
6030
6060
39E0
1F80
0000
0000
0600
0600
ENDCHAR
STARTCHAR 1ED9
ENCODING 7897
SWIDTH 540 0
DWIDTH 12 0
BBX 10 20 1 -4
BITMAP
0C00
1E00
1300
0000
0C00
3F00
6180
60C0
C0C0
C0C0
C0C0
C0C0
C0C0
6180
7380
3F00
0000
0000
0C00
0C00
ENDCHAR
STARTCHAR 1EDA
ENCODING 7898
SWIDTH 630 0
DWIDTH 14 0
BBX 14 19 1 0
BITMAP
0180
0300
060C
000C
1F88
3FF8
7060
6060
C030
C030
C030
C030
C030
C030
C030
6030
6060
39E0
1F80
ENDCHAR
STARTCHAR 1EDB
ENCODING 7899
SWIDTH 585 0
DWIDTH 13 0
BBX 11 16 1 0
BITMAP
0300
0600
0420
0020
0C60
3FE0
6180
60C0
C0C0
C0C0
C0C0
C0C0
C0C0
6180
7380
3F00
ENDCHAR
STARTCHAR 1EDC
ENCODING 7900
SWIDTH 630 0
DWIDTH 14 0
BBX 14 19 1 0
BITMAP
0C00
0400
060C
000C
1F88
3FF8
7060
6060
C030
C030
C030
C030
C030
C030
C030
6030
6060
39E0
1F80
ENDCHAR
STARTCHAR 1EDD
ENCODING 7901
SWIDTH 585 0
DWIDTH 13 0
BBX 11 16 1 0
BITMAP
3000
1800
0C20
0020
0C60
3FE0
6180
60C0
C0C0
C0C0
C0C0
C0C0
C0C0
6180
7380
3F00
ENDCHAR
STARTCHAR 1EDE
ENCODING 7902
SWIDTH 630 0
DWIDTH 14 0
BBX 14 19 1 0
BITMAP
0700
0100
030C
000C
1F88
3FF8
7060
6060
C030
C030
C030
C030
C030
C030
C030
6030
6060
39E0
1F80
ENDCHAR
STARTCHAR 1EDF
ENCODING 7903
SWIDTH 585 0
DWIDTH 13 0
BBX 11 17 1 0
BITMAP
0C00
0600
0200
0620
0020
0C60
3FE0
6180
60C0
C0C0
C0C0
C0C0
C0C0
C0C0
6180
7380
3F00
ENDCHAR
STARTCHAR 1EE0
ENCODING 7904
SWIDTH 630 0
DWIDTH 14 0
BBX 14 18 1 0
BITMAP
1E80
130C
000C
1F88
3FF8
7060
6060
C030
C030
C030
C030
C030
C030
C030
6030
6060
39E0
1F80
ENDCHAR
STARTCHAR 1EE1
ENCODING 7905
SWIDTH 585 0
DWIDTH 13 0
BBX 11 15 1 0
BITMAP
3900
2720
0020
0C60
3FE0
6180
60C0
C0C0
C0C0
C0C0
C0C0
C0C0
6180
7380
3F00
ENDCHAR
STARTCHAR 1EE2
ENCODING 7906
SWIDTH 630 0
DWIDTH 14 0
BBX 14 21 1 -4
BITMAP
000C
000C
1F88
3FF8
7060
6060
C030
C030
C030
C030
C030
C030
C030
6030
6060
39E0
1F80
0000
0000
0600
0600
ENDCHAR
STARTCHAR 1EE3
ENCODING 7907
SWIDTH 585 0
DWIDTH 13 0
BBX 11 18 1 -4
BITMAP
0020
0020
0C60
3FE0
6180
60C0
C0C0
C0C0
C0C0
C0C0
C0C0
6180
7380
3F00
0000
0000
0C00
0C00
ENDCHAR
STARTCHAR 1EE4
ENCODING 7908
SWIDTH 630 0
DWIDTH 14 0
BBX 11 19 2 -4
BITMAP
8060
8060
8060
8060
8060
8060
8060
8060
8060
8060
C060
C060
C0C0
73C0
3F00
0000
0000
0C00
0C00
ENDCHAR
STARTCHAR 1EE5
ENCODING 7909
SWIDTH 540 0
DWIDTH 12 0
BBX 10 15 1 -4
BITMAP
C0C0
C0C0
C0C0
C0C0
C0C0
C0C0
C0C0
C0C0
61C0
7FC0
3EC0
0000
0000
0C00
0C00
ENDCHAR
STARTCHAR 1EE6
ENCODING 7910
SWIDTH 630 0
DWIDTH 14 0
BBX 11 19 2 0
BITMAP
0E00
0200
0600
0000
8060
8060
8060
8060
8060
8060
8060
8060
8060
8060
C060
C060
C0C0
73C0
3F00
ENDCHAR
STARTCHAR 1EE7
ENCODING 7911
SWIDTH 540 0
DWIDTH 12 0
BBX 10 17 1 0
BITMAP
0C00
0600
0200
0600
0000
0000
C0C0
C0C0
C0C0
C0C0
C0C0
C0C0
C0C0
C0C0
61C0
7FC0
3EC0
ENDCHAR
STARTCHAR 1EE8
ENCODING 7912
SWIDTH 675 0
DWIDTH 15 0
BBX 14 19 2 0
BITMAP
0300
060C
0C0C
000C
C078
C070
C060
C060
C060
C060
C060
C060
C060
C060
C060
C060
C0C0
73C0
3F00
ENDCHAR
STARTCHAR 1EE9
ENCODING 7913
SWIDTH 585 0
DWIDTH 13 0
BBX 13 16 1 0
BITMAP
0300
0600
0418
0018
0030
C0F0
C0C0
C0C0
C0C0
C0C0
C0C0
C0C0
C0C0
61C0
7FC0
3EC0
ENDCHAR
STARTCHAR 1EEA
ENCODING 7914
SWIDTH 675 0
DWIDTH 15 0
BBX 14 19 2 0
BITMAP
1800
080C
040C
000C
C078
C070
C060
C060
C060
C060
C060
C060
C060
C060
C060
C060
C0C0
73C0
3F00
ENDCHAR
STARTCHAR 1EEB
ENCODING 7915
SWIDTH 585 0
DWIDTH 13 0
BBX 13 16 1 0
BITMAP
3000
1800
0C18
0018
0030
C0F0
C0C0
C0C0
C0C0
C0C0
C0C0
C0C0
C0C0
61C0
7FC0
3EC0
ENDCHAR
STARTCHAR 1EEC
ENCODING 7916
SWIDTH 675 0
DWIDTH 15 0
BBX 14 19 2 0
BITMAP
0E00
020C
060C
000C
C078
C070
C060
C060
C060
C060
C060
C060
C060
C060
C060
C060
C0C0
73C0
3F00
ENDCHAR
STARTCHAR 1EED
ENCODING 7917
SWIDTH 585 0
DWIDTH 13 0
BBX 13 17 1 0
BITMAP
0C00
0600
0200
0618
0018
0030
C0F0
C0C0
C0C0
C0C0
C0C0
C0C0
C0C0
C0C0
61C0
7FC0
3EC0
ENDCHAR
STARTCHAR 1EEE
ENCODING 7918
SWIDTH 675 0
DWIDTH 15 0
BBX 14 18 2 0
BITMAP
1D0C
260C
000C
C078
C070
C060
C060
C060
C060
C060
C060
C060
C060
C060
C060
C0C0
73C0
3F00
ENDCHAR
STARTCHAR 1EEF
ENCODING 7919
SWIDTH 585 0
DWIDTH 13 0
BBX 13 15 1 0
BITMAP
3D00
2718
0018
0030
C0F0
C0C0
C0C0
C0C0
C0C0
C0C0
C0C0
C0C0
61C0
7FC0
3EC0
ENDCHAR
STARTCHAR 1EF0
ENCODING 7920
SWIDTH 675 0
DWIDTH 15 0
BBX 14 22 2 -4
BITMAP
000C
000C
000C
C078
C070
C060
C060
C060
C060
C060
C060
C060
C060
C060
C060
C0C0
73C0
3F00
0000
0000
0C00
0C00
ENDCHAR
STARTCHAR 1EF1
ENCODING 7921
SWIDTH 585 0
DWIDTH 13 0
BBX 13 18 1 -4
BITMAP
0018
0018
0030
C0F0
C0C0
C0C0
C0C0
C0C0
C0C0
C0C0
C0C0
61C0
7FC0
3EC0
0000
0000
0C00
0C00
ENDCHAR
STARTCHAR 1EF2
ENCODING 7922
SWIDTH 540 0
DWIDTH 12 0
BBX 12 19 0 0
BITMAP
1800
0C00
0600
0000
C070
6060
60C0
30C0
1980
1980
0F00
0E00
0600
0600
0600
0600
0600
0600
0600
ENDCHAR
STARTCHAR 1EF3
ENCODING 7923
SWIDTH 450 0
DWIDTH 10 0
BBX 10 20 0 -4
BITMAP
3000
1800
0C00
0000
0000
C0C0
60C0
6180
6180
3180
3300
1300
1B00
1E00
0E00
0C00
0C00
0C00
7800
7000
ENDCHAR
STARTCHAR 1EF4
ENCODING 7924
SWIDTH 540 0
DWIDTH 12 0
BBX 12 19 0 -4
BITMAP
C070
6060
60C0
30C0
1980
1980
0F00
0E00
0600
0600
0600
0600
0600
0600
0600
0000
0000
0600
0600
ENDCHAR
STARTCHAR 1EF5
ENCODING 7925
SWIDTH 450 0
DWIDTH 10 0
BBX 10 15 0 -4
BITMAP
C0C0
60C0
6180
6180
3180
3300
1300
1B00
1E00
0E00
0C00
0C00
0C00
78C0
70C0
ENDCHAR
STARTCHAR 1EF6
ENCODING 7926
SWIDTH 540 0
DWIDTH 12 0
BBX 12 19 0 0
BITMAP
0600
0300
0200
0000
C070
6060
60C0
30C0
1980
1980
0F00
0E00
0600
0600
0600
0600
0600
0600
0600
ENDCHAR
STARTCHAR 1EF7
ENCODING 7927
SWIDTH 450 0
DWIDTH 10 0
BBX 10 21 0 -4
BITMAP
0C00
0600
0200
0600
0000
0000
C0C0
60C0
6180
6180
3180
3300
1300
1B00
1E00
0E00
0C00
0C00
0C00
7800
7000
ENDCHAR
STARTCHAR 1EF8
ENCODING 7928
SWIDTH 540 0
DWIDTH 12 0
BBX 12 18 0 0
BITMAP
1C80
1300
0000
C070
6060
60C0
30C0
1980
1980
0F00
0E00
0600
0600
0600
0600
0600
0600
0600
ENDCHAR
STARTCHAR 1EF9
ENCODING 7929
SWIDTH 450 0
DWIDTH 10 0
BBX 10 19 0 -4
BITMAP
3D00
2700
0000
0000
C0C0
60C0
6180
6180
3180
3300
1300
1B00
1E00
0E00
0C00
0C00
0C00
7800
7000
ENDCHAR
STARTCHAR 2000
ENCODING 8192
SWIDTH 495 0
DWIDTH 11 0
BBX 0 0 0 0
BITMAP
ENDCHAR
STARTCHAR 2001
ENCODING 8193
SWIDTH 990 0
DWIDTH 22 0
BBX 0 0 0 0
BITMAP
ENDCHAR
STARTCHAR 2002
ENCODING 8194
SWIDTH 585 0
DWIDTH 13 0
BBX 0 0 0 0
BITMAP
ENDCHAR
STARTCHAR 2003
ENCODING 8195
SWIDTH 990 0
DWIDTH 22 0
BBX 0 0 0 0
BITMAP
ENDCHAR
STARTCHAR 2004
ENCODING 8196
SWIDTH 315 0
DWIDTH 7 0
BBX 0 0 0 0
BITMAP
ENDCHAR
STARTCHAR 2005
ENCODING 8197
SWIDTH 270 0
DWIDTH 6 0
BBX 0 0 0 0
BITMAP
ENDCHAR
STARTCHAR 2006
ENCODING 8198
SWIDTH 180 0
DWIDTH 4 0
BBX 0 0 0 0
BITMAP
ENDCHAR
STARTCHAR 2007
ENCODING 8199
SWIDTH 540 0
DWIDTH 12 0
BBX 0 0 0 0
BITMAP
ENDCHAR
STARTCHAR 2008
ENCODING 8200
SWIDTH 225 0
DWIDTH 5 0
BBX 0 0 0 0
BITMAP
ENDCHAR
STARTCHAR 2009
ENCODING 8201
SWIDTH 180 0
DWIDTH 4 0
BBX 0 0 0 0
BITMAP
ENDCHAR
STARTCHAR 200A
ENCODING 8202
SWIDTH 45 0
DWIDTH 1 0
BBX 0 0 0 0
BITMAP
ENDCHAR
STARTCHAR 200B
ENCODING 8203
SWIDTH 0 0
DWIDTH 0 0
BBX 0 0 0 0
BITMAP
ENDCHAR
STARTCHAR 200D
ENCODING 8205
SWIDTH 0 0
DWIDTH 0 0
BBX 0 0 0 0
BITMAP
ENDCHAR
STARTCHAR 2010
ENCODING 8208
SWIDTH 405 0
DWIDTH 9 0
BBX 7 2 1 5
BITMAP
FE
FE
ENDCHAR
STARTCHAR 2011
ENCODING 8209
SWIDTH 405 0
DWIDTH 9 0
BBX 7 2 1 5
BITMAP
FE
FE
ENDCHAR
STARTCHAR 2012
ENCODING 8210
SWIDTH 540 0
DWIDTH 12 0
BBX 12 2 0 5
BITMAP
FFF0
FFF0
ENDCHAR
STARTCHAR 2013
ENCODING 8211
SWIDTH 585 0
DWIDTH 13 0
BBX 13 2 0 5
BITMAP
FFF8
FFF8
ENDCHAR
STARTCHAR 2014
ENCODING 8212
SWIDTH 990 0
DWIDTH 22 0
BBX 22 2 0 5
BITMAP
FFFFFC
FFFFFC
ENDCHAR
STARTCHAR 2018
ENCODING 8216
SWIDTH 225 0
DWIDTH 5 0
BBX 3 5 1 10
BITMAP
60
60
60
40
C0
ENDCHAR
STARTCHAR 2019
ENCODING 8217
SWIDTH 225 0
DWIDTH 5 0
BBX 3 5 1 10
BITMAP
60
60
40
C0
C0
ENDCHAR
STARTCHAR 201A
ENCODING 8218
SWIDTH 225 0
DWIDTH 5 0
BBX 3 5 1 -4
BITMAP
60
60
40
C0
C0
ENDCHAR
STARTCHAR 201C
ENCODING 8220
SWIDTH 405 0
DWIDTH 9 0
BBX 7 5 1 10
BITMAP
66
64
64
4C
CC
ENDCHAR
STARTCHAR 201D
ENCODING 8221
SWIDTH 405 0
DWIDTH 9 0
BBX 7 5 1 10
BITMAP
66
6C
4C
CC
CC
ENDCHAR
STARTCHAR 201E
ENCODING 8222
SWIDTH 405 0
DWIDTH 9 0
BBX 7 5 1 -4
BITMAP
66
6C
4C
CC
C8
ENDCHAR
STARTCHAR 2020
ENCODING 8224
SWIDTH 450 0
DWIDTH 10 0
BBX 7 10 2 5
BITMAP
30
30
30
FE
30
30
30
30
30
30
ENDCHAR
STARTCHAR 2021
ENCODING 8225
SWIDTH 450 0
DWIDTH 10 0
BBX 7 10 2 5
BITMAP
30
30
FE
FE
30
30
30
FE
30
30
ENDCHAR
STARTCHAR 2022
ENCODING 8226
SWIDTH 450 0
DWIDTH 10 0
BBX 6 7 2 2
BITMAP
78
FC
FC
FC
FC
78
30
ENDCHAR
STARTCHAR 2023
ENCODING 8227
SWIDTH 450 0
DWIDTH 10 0
BBX 6 6 2 3
BITMAP
80
E0
F8
FC
F0
C0
ENDCHAR
STARTCHAR 2026
ENCODING 8230
SWIDTH 630 0
DWIDTH 14 0
BBX 12 2 1 0
BITMAP
E670
6670
ENDCHAR
STARTCHAR 202F
ENCODING 8239
SWIDTH 180 0
DWIDTH 4 0
BBX 0 0 0 0
BITMAP
ENDCHAR
STARTCHAR 2030
ENCODING 8240
SWIDTH 990 0
DWIDTH 22 0
BBX 22 15 0 0
BITMAP
780C00
4C1800
CC1000
CC3000
CC6000
6CC000
388000
018000
033C78
0666D8
0C66C8
0C66CC
1866C8
3064D8
603C78
ENDCHAR
STARTCHAR 2032
ENCODING 8242
SWIDTH 225 0
DWIDTH 5 0
BBX 3 5 1 10
BITMAP
60
60
40
C0
C0
ENDCHAR
STARTCHAR 2033
ENCODING 8243
SWIDTH 405 0
DWIDTH 9 0
BBX 7 5 1 10
BITMAP
66
64
4C
CC
CC
ENDCHAR
STARTCHAR 2034
ENCODING 8244
SWIDTH 585 0
DWIDTH 13 0
BBX 10 5 1 10
BITMAP
66C0
64C0
4CC0
CCC0
CC80
ENDCHAR
STARTCHAR 2039
ENCODING 8249
SWIDTH 405 0
DWIDTH 9 0
BBX 4 8 2 2
BITMAP
30
60
40
C0
C0
60
20
30
ENDCHAR
STARTCHAR 203A
ENCODING 8250
SWIDTH 405 0
DWIDTH 9 0
BBX 5 8 2 2
BITMAP
C0
60
30
18
18
30
60
C0
ENDCHAR
STARTCHAR 2043
ENCODING 8259
SWIDTH 450 0
DWIDTH 10 0
BBX 6 2 2 5
BITMAP
FC
FC
ENDCHAR
STARTCHAR 2044
ENCODING 8260
SWIDTH 540 0
DWIDTH 12 0
BBX 13 15 -1 0
BITMAP
0018
0030
0020
0060
00C0
0180
0100
0300
0600
0C00
1800
1800
3000
6000
C000
ENDCHAR
STARTCHAR 205F
ENCODING 8287
SWIDTH 270 0
DWIDTH 6 0
BBX 0 0 0 0
BITMAP
ENDCHAR
STARTCHAR 2060
ENCODING 8288
SWIDTH 0 0
DWIDTH 0 0
BBX 0 0 0 0
BITMAP
ENDCHAR
STARTCHAR 2070
ENCODING 8304
SWIDTH 270 0
DWIDTH 6 0
BBX 6 8 0 11
BITMAP
30
78
CC
CC
CC
CC
78
30
ENDCHAR
STARTCHAR 2071
ENCODING 8305
SWIDTH 180 0
DWIDTH 4 0
BBX 2 9 1 8
BITMAP
C0
00
C0
C0
C0
C0
C0
C0
C0
ENDCHAR
STARTCHAR 2074
ENCODING 8308
SWIDTH 270 0
DWIDTH 6 0
BBX 6 8 0 11
BITMAP
18
38
28
68
48
FC
08
08
ENDCHAR
STARTCHAR 2075
ENCODING 8309
SWIDTH 270 0
DWIDTH 6 0
BBX 5 8 1 11
BITMAP
F8
F8
80
F0
98
18
F8
60
ENDCHAR
STARTCHAR 2076
ENCODING 8310
SWIDTH 270 0
DWIDTH 6 0
BBX 6 8 0 11
BITMAP
30
7C
40
F8
CC
4C
7C
30
ENDCHAR
STARTCHAR 2077
ENCODING 8311
SWIDTH 270 0
DWIDTH 6 0
BBX 5 8 0 11
BITMAP
F8
F8
18
18
30
30
60
60
ENDCHAR
STARTCHAR 2078
ENCODING 8312
SWIDTH 315 0
DWIDTH 7 0
BBX 6 8 0 11
BITMAP
30
7C
4C
78
6C
CC
7C
30
ENDCHAR
STARTCHAR 2079
ENCODING 8313
SWIDTH 270 0
DWIDTH 6 0
BBX 6 8 0 11
BITMAP
30
78
CC
CC
7C
0C
78
30
ENDCHAR
STARTCHAR 207A
ENCODING 8314
SWIDTH 270 0
DWIDTH 6 0
BBX 6 5 0 12
BITMAP
30
30
FC
30
30
ENDCHAR
STARTCHAR 207B
ENCODING 8315
SWIDTH 270 0
DWIDTH 6 0
BBX 5 1 1 14
BITMAP
F8
ENDCHAR
STARTCHAR 207C
ENCODING 8316
SWIDTH 270 0
DWIDTH 6 0
BBX 5 4 1 12
BITMAP
F8
00
F8
F8
ENDCHAR
STARTCHAR 207D
ENCODING 8317
SWIDTH 180 0
DWIDTH 4 0
BBX 2 9 1 10
BITMAP
40
C0
C0
80
80
80
C0
C0
40
ENDCHAR
STARTCHAR 207E
ENCODING 8318
SWIDTH 180 0
DWIDTH 4 0
BBX 3 9 0 10
BITMAP
C0
60
60
60
60
60
60
60
C0
ENDCHAR
STARTCHAR 207F
ENCODING 8319
SWIDTH 360 0
DWIDTH 8 0
BBX 6 7 1 8
BITMAP
F8
FC
CC
CC
CC
CC
CC
ENDCHAR
STARTCHAR 2080
ENCODING 8320
SWIDTH 270 0
DWIDTH 6 0
BBX 6 7 0 -4
BITMAP
78
4C
CC
CC
CC
7C
38
ENDCHAR
STARTCHAR 2081
ENCODING 8321
SWIDTH 225 0
DWIDTH 5 0
BBX 4 7 0 -4
BITMAP
70
F0
30
30
30
30
30
ENDCHAR
STARTCHAR 2082
ENCODING 8322
SWIDTH 270 0
DWIDTH 6 0
BBX 6 7 0 -4
BITMAP
78
CC
08
18
30
7C
7C
ENDCHAR
STARTCHAR 2083
ENCODING 8323
SWIDTH 270 0
DWIDTH 6 0
BBX 6 7 0 -4
BITMAP
78
CC
38
38
0C
FC
78
ENDCHAR
STARTCHAR 2084
ENCODING 8324
SWIDTH 270 0
DWIDTH 6 0
BBX 6 7 0 -4
BITMAP
38
28
68
48
FC
FC
08
ENDCHAR
STARTCHAR 2085
ENCODING 8325
SWIDTH 270 0
DWIDTH 6 0
BBX 5 7 1 -4
BITMAP
F8
80
F0
98
18
D8
70
ENDCHAR
STARTCHAR 2086
ENCODING 8326
SWIDTH 270 0
DWIDTH 6 0
BBX 6 7 0 -4
BITMAP
7C
4C
D8
EC
CC
6C
38
ENDCHAR
STARTCHAR 2087
ENCODING 8327
SWIDTH 270 0
DWIDTH 6 0
BBX 5 7 0 -4
BITMAP
F8
08
18
30
30
60
60
ENDCHAR
STARTCHAR 2088
ENCODING 8328
SWIDTH 315 0
DWIDTH 7 0
BBX 6 7 0 -4
BITMAP
7C
4C
78
7C
CC
EC
78
ENDCHAR
STARTCHAR 2089
ENCODING 8329
SWIDTH 270 0
DWIDTH 6 0
BBX 6 7 0 -4
BITMAP
78
CC
CC
7C
0C
6C
38
ENDCHAR
STARTCHAR 208A
ENCODING 8330
SWIDTH 270 0
DWIDTH 6 0
BBX 6 6 0 -4
BITMAP
30
30
FC
FC
30
30
ENDCHAR
STARTCHAR 208B
ENCODING 8331
SWIDTH 270 0
DWIDTH 6 0
BBX 5 2 1 -2
BITMAP
F8
F8
ENDCHAR
STARTCHAR 208C
ENCODING 8332
SWIDTH 270 0
DWIDTH 6 0
BBX 5 4 1 -3
BITMAP
F8
00
F8
F8
ENDCHAR
STARTCHAR 208D
ENCODING 8333
SWIDTH 180 0
DWIDTH 4 0
BBX 2 8 1 -5
BITMAP
C0
C0
80
80
80
80
C0
C0
ENDCHAR
STARTCHAR 208E
ENCODING 8334
SWIDTH 180 0
DWIDTH 4 0
BBX 2 8 1 -5
BITMAP
80
C0
C0
C0
C0
C0
C0
80
ENDCHAR
STARTCHAR 20A1
ENCODING 8353
SWIDTH 540 0
DWIDTH 12 0
BBX 11 18 1 -2
BITMAP
0240
1E40
3FC0
64C0
C4C0
CCE0
C980
C900
C900
D900
D300
D300
D260
72C0
7F80
3F00
2400
6400
ENDCHAR
STARTCHAR 20A2
ENCODING 8354
SWIDTH 540 0
DWIDTH 12 0
BBX 11 15 1 0
BITMAP
1E00
3F80
60C0
C040
C060
C000
C000
C780
C600
C400
C400
C460
64C0
7F80
1F00
ENDCHAR
STARTCHAR 20A3
ENCODING 8355
SWIDTH 540 0
DWIDTH 12 0
BBX 10 15 1 0
BITMAP
3FC0
3FC0
3000
3000
3000
3000
3FC0
3FC0
3000
3000
3000
FE00
3000
3000
3000
ENDCHAR
STARTCHAR 20A4
ENCODING 8356
SWIDTH 540 0
DWIDTH 12 0
BBX 10 15 1 0
BITMAP
0FC0
1FC0
3000
3000
3000
FF80
FF80
1000
FF80
1800
1800
1800
3000
FFC0
FFC0
ENDCHAR
STARTCHAR 20A5
ENCODING 8357
SWIDTH 540 0
DWIDTH 12 0
BBX 11 18 1 -2
BITMAP
0100
0300
0200
BBC0
FFC0
8C60
8C60
8C60
8C60
9C60
9C60
9C60
BC60
AC60
2000
4000
4000
C000
ENDCHAR
STARTCHAR 20A6
ENCODING 8358
SWIDTH 540 0
DWIDTH 12 0
BBX 13 15 0 0
BITMAP
7060
7860
7860
6860
6C60
6460
6660
FFF8
6260
6360
6360
6160
61E0
60E0
60E0
ENDCHAR
STARTCHAR 20A7
ENCODING 8359
SWIDTH 540 0
DWIDTH 12 0
BBX 12 15 0 0
BITMAP
3F00
3F80
30C0
3060
FFF0
3060
3060
30C0
3F80
3F00
3000
3000
3000
3000
3000
ENDCHAR
STARTCHAR 20A8
ENCODING 8360
SWIDTH 540 0
DWIDTH 12 0
BBX 12 15 0 0
BITMAP
F000
F800
CC00
CC00
C4E0
CDF0
CD30
F980
F180
D8E0
D870
C830
CD10
CDB0
C5E0
ENDCHAR
STARTCHAR 20A9
ENCODING 8361
SWIDTH 540 0
DWIDTH 12 0
BBX 12 15 0 0
BITMAP
C630
4630
4630
4730
4520
6D20
6D20
FFF0
2960
2960
29E0
28C0
28C0
30C0
30C0
ENDCHAR
STARTCHAR 20AA
ENCODING 8362
SWIDTH 540 0
DWIDTH 12 0
BBX 11 15 1 0
BITMAP
FC60
FE60
8660
8260
9260
9260
9260
9260
9260
9260
9260
9260
9040
9FC0
9F80
ENDCHAR
STARTCHAR 20AB
ENCODING 8363
SWIDTH 540 0
DWIDTH 12 0
BBX 11 18 1 -2
BITMAP
00C0
00C0
07E0
00C0
08C0
3EC0
61C0
C1C0
C0C0
C0C0
C0C0
C0C0
E1C0
77C0
3EC0
0000
0000
7F80
ENDCHAR
STARTCHAR 20AC
ENCODING 8364
SWIDTH 540 0
DWIDTH 12 0
BBX 10 15 1 0
BITMAP
07C0
1FC0
3800
3000
3000
FF00
FF00
6000
FF00
6000
2000
3000
3800
1E00
0FC0
ENDCHAR
STARTCHAR 20AD
ENCODING 8365
SWIDTH 540 0
DWIDTH 12 0
BBX 10 15 1 0
BITMAP
60C0
60C0
6180
6300
6700
6600
6C00
FFC0
6C00
6600
6700
6300
6180
61C0
60C0
ENDCHAR
STARTCHAR 20AE
ENCODING 8366
SWIDTH 540 0
DWIDTH 12 0
BBX 11 15 1 0
BITMAP
FFE0
FFE0
0C00
0C00
0C80
0F80
1C00
7C80
0F80
1E00
7C00
4C00
0C00
0C00
0C00
ENDCHAR
STARTCHAR 20B1
ENCODING 8369
SWIDTH 540 0
DWIDTH 12 0
BBX 12 15 0 0
BITMAP
3F00
3F80
30C0
FFF0
3060
3060
FFF0
30C0
3F80
3F00
3000
3000
3000
3000
3000
ENDCHAR
STARTCHAR 20B2
ENCODING 8370
SWIDTH 540 0
DWIDTH 12 0
BBX 11 18 1 -2
BITMAP
0400
1E00
3F80
64C0
C4C0
C400
C400
8400
87E0
87E0
C460
C460
C440
64C0
7F80
1F00
0400
0400
ENDCHAR
STARTCHAR 20B3
ENCODING 8371
SWIDTH 540 0
DWIDTH 12 0
BBX 11 15 1 0
BITMAP
0C00
0E00
1E00
1E00
1A00
1300
3300
FFE0
2180
6180
FFE0
40C0
C0C0
C0C0
C060
ENDCHAR
STARTCHAR 20B4
ENCODING 8372
SWIDTH 540 0
DWIDTH 12 0
BBX 11 15 1 0
BITMAP
3F00
7F80
6180
0080
0180
FF00
FFE0
0000
FFE0
3000
6000
60C0
60C0
7F80
3F00
ENDCHAR
STARTCHAR 20B5
ENCODING 8373
SWIDTH 540 0
DWIDTH 12 0
BBX 11 18 1 -2
BITMAP
0400
1E00
3F80
64C0
C440
C460
C400
C400
C400
C400
C400
C400
C460
64C0
7F80
1F00
0400
0400
ENDCHAR
STARTCHAR 20B8
ENCODING 8376
SWIDTH 540 0
DWIDTH 12 0
BBX 10 15 1 0
BITMAP
FFC0
0000
0000
FFC0
FFC0
0C00
0C00
0C00
0C00
0C00
0C00
0C00
0C00
0C00
0C00
ENDCHAR
STARTCHAR 20B9
ENCODING 8377
SWIDTH 540 0
DWIDTH 12 0
BBX 10 15 1 0
BITMAP
FFC0
FFC0
0300
0300
FFC0
0300
0300
FE00
F800
7000
3000
1800
0C00
0E00
0700
ENDCHAR
STARTCHAR 20BA
ENCODING 8378
SWIDTH 540 0
DWIDTH 12 0
BBX 11 15 1 0
BITMAP
3000
3000
3300
3E00
7000
F300
3E00
7000
F060
3040
30C0
31C0
3380
3F00
3C00
ENDCHAR
STARTCHAR 20BC
ENCODING 8380
SWIDTH 540 0
DWIDTH 12 0
BBX 11 15 1 0
BITMAP
0C00
0C00
0C00
3F00
7D80
ECC0
CCC0
CC60
CC60
CC60
CC60
CC60
CC60
CC60
CC60
ENDCHAR
STARTCHAR 20BD
ENCODING 8381
SWIDTH 540 0
DWIDTH 12 0
BBX 11 15 1 0
BITMAP
3F00
3FC0
20C0
2060
2060
2060
20C0
23C0
FF80
2000
2000
FE00
2000
2000
2000
ENDCHAR
STARTCHAR 20BE
ENCODING 8382
SWIDTH 540 0
DWIDTH 12 0
BBX 12 16 0 0
BITMAP
0900
0F00
3FC0
7960
6960
4920
C930
C930
C000
C000
4000
6000
2000
3000
7FE0
7FE0
ENDCHAR
STARTCHAR 20BF
ENCODING 8383
SWIDTH 540 0
DWIDTH 12 0
BBX 10 17 2 -1
BITMAP
2C00
2C00
FE00
C700
C180
C180
C100
C700
FE00
C380
C180
C0C0
C180
C380
FF00
2C00
2C00
ENDCHAR
STARTCHAR 20DD
ENCODING 8413
SWIDTH 900 0
DWIDTH 20 0
BBX 17 17 1 -1
BITMAP
01E000
0FF800
1C1C00
300600
200300
600100
400180
C00180
C00180
C00180
400180
600180
600300
300600
1C0E00
0FF800
03E000
ENDCHAR
STARTCHAR 20DE
ENCODING 8414
SWIDTH 855 0
DWIDTH 19 0
BBX 15 15 2 0
BITMAP
7FFC
FFFE
C006
C006
C006
C006
C006
C006
C006
C006
C006
C006
C006
C006
7FFC
ENDCHAR
STARTCHAR 20E4
ENCODING 8420
SWIDTH 900 0
DWIDTH 20 0
BBX 17 15 2 0
BITMAP
01C000
03C000
066000
043000
0C3000
081800
181800
300C00
300400
600600
400300
C00300
800180
800180
FFFF00
ENDCHAR
STARTCHAR 2116
ENCODING 8470
SWIDTH 945 0
DWIDTH 21 0
BBX 19 15 2 0
BITMAP
C06380
C066C0
E06460
F06C60
F06440
D867C0
CC6000
CC67C0
C667C0
C36000
C36000
C1E000
C0E000
C0E000
C06000
ENDCHAR
STARTCHAR 2117
ENCODING 8471
SWIDTH 495 0
DWIDTH 11 0
BBX 9 9 1 6
BITMAP
3E00
4100
9C80
9480
9C80
9080
D100
6300
1C00
ENDCHAR
STARTCHAR 2120
ENCODING 8480
SWIDTH 765 0
DWIDTH 17 0
BBX 16 8 0 7
BITMAP
38C3
44C3
40E7
78E5
1CD5
06D9
C6D9
7CC1
ENDCHAR
STARTCHAR 2122
ENCODING 8482
SWIDTH 765 0
DWIDTH 17 0
BBX 16 8 0 7
BITMAP
FEC3
10C7
10C7
10A7
10AB
109B
1093
1083
ENDCHAR
STARTCHAR 2126
ENCODING 8486
SWIDTH 675 0
DWIDTH 15 0
BBX 12 15 1 0
BITMAP
1F80
3FE0
7060
6030
6030
C030
C030
C030
C030
4030
6030
6060
3060
F9F0
F9F0
ENDCHAR
STARTCHAR 2190
ENCODING 8592
SWIDTH 855 0
DWIDTH 19 0
BBX 15 13 2 1
BITMAP
0200
0600
0C00
1800
3000
6000
FFFE
6000
3000
1800
0C00
0600
0200
ENDCHAR
STARTCHAR 2191
ENCODING 8593
SWIDTH 765 0
DWIDTH 17 0
BBX 12 15 2 0
BITMAP
0600
0F00
1F80
3EC0
7660
E630
C610
0600
0600
0600
0600
0600
0600
0600
0600
ENDCHAR
STARTCHAR 2192
ENCODING 8594
SWIDTH 855 0
DWIDTH 19 0
BBX 15 13 2 1
BITMAP
0080
00C0
0060
0030
0018
000C
FFFE
000E
001C
0038
0070
00E0
00C0
ENDCHAR
STARTCHAR 2193
ENCODING 8595
SWIDTH 765 0
DWIDTH 17 0
BBX 12 15 2 0
BITMAP
0600
0600
0600
0600
0600
0600
0600
0600
C610
E630
7660
36C0
1F80
0F00
0600
ENDCHAR
STARTCHAR 2194
ENCODING 8596
SWIDTH 900 0
DWIDTH 20 0
BBX 16 10 2 2
BITMAP
0C30
1818
300C
6006
FFFF
6007
300E
181C
0C38
0420
ENDCHAR
STARTCHAR 2196
ENCODING 8598
SWIDTH 720 0
DWIDTH 16 0
BBX 12 12 2 1
BITMAP
FFC0
E000
F000
D800
CC00
C600
C300
C180
C0C0
0060
0030
0010
ENDCHAR
STARTCHAR 2197
ENCODING 8599
SWIDTH 720 0
DWIDTH 16 0
BBX 12 12 2 1
BITMAP
3FF0
0070
00F0
01B0
0330
0630
0C30
1830
3030
6000
C000
8000
ENDCHAR
STARTCHAR 2198
ENCODING 8600
SWIDTH 720 0
DWIDTH 16 0
BBX 12 12 2 1
BITMAP
C000
6000
3030
1830
0C30
0630
0330
01B0
00F0
0070
3FF0
1FF0
ENDCHAR
STARTCHAR 2199
ENCODING 8601
SWIDTH 720 0
DWIDTH 16 0
BBX 12 12 2 1
BITMAP
0030
0060
C0C0
C180
C300
C600
CC00
D800
F000
E000
FFC0
FFC0
ENDCHAR
STARTCHAR 21BA
ENCODING 8634
SWIDTH 765 0
DWIDTH 17 0
BBX 15 17 1 0
BITMAP
0180
0300
0600
0FC0
0FF0
0618
030C
0184
0006
4006
C006
4006
4004
600C
3018
1C30
0FE0
ENDCHAR
STARTCHAR 21BB
ENCODING 8635
SWIDTH 765 0
DWIDTH 17 0
BBX 15 17 1 0
BITMAP
0100
0180
00C0
07E0
1FE0
30C0
6180
6100
4000
C000
C006
4006
4004
600C
3018
1C30
0FE0
ENDCHAR
STARTCHAR 21C5
ENCODING 8645
SWIDTH 1035 0
DWIDTH 23 0
BBX 19 15 2 0
BITMAP
0C0200
1E0200
3F0200
6D8200
EDC200
CCC200
0C0200
0C0200
0C0200
0C2220
0C3260
0C3AC0
0C1FC0
0C0F80
0C0700
ENDCHAR
STARTCHAR 21E7
ENCODING 8679
SWIDTH 945 0
DWIDTH 21 0
BBX 17 15 2 0
BITMAP
018000
03C000
076000
0E3000
1C1800
380C00
700600
E00300
FC1F80
FC1F80
0C1800
0C1800
0C1800
0C1800
0FF000
ENDCHAR
STARTCHAR 21EA
ENCODING 8682
SWIDTH 900 0
DWIDTH 20 0
BBX 17 17 2 -1
BITMAP
018000
03C000
066000
0C3000
181C00
300E00
E00300
F81F80
F81F00
081000
0C1000
0FF000
000000
0FF000
081800
081800
0FF000
ENDCHAR
STARTCHAR 2202
ENCODING 8706
SWIDTH 540 0
DWIDTH 12 0
BBX 10 16 1 0
BITMAP
1800
1E00
0700
0380
0180
00C0
1EC0
3FC0
61C0
C0C0
C0C0
C0C0
C180
6180
7700
3E00
ENDCHAR
STARTCHAR 2206
ENCODING 8710
SWIDTH 585 0
DWIDTH 13 0
BBX 13 15 0 0
BITMAP
0700
0700
0700
0D80
0D80
0880
18C0
18C0
3060
3060
3060
6030
6030
7FF0
FFF8
ENDCHAR
STARTCHAR 220F
ENCODING 8719
SWIDTH 675 0
DWIDTH 15 0
BBX 13 18 1 -3
BITMAP
FFF8
FFF8
3020
3020
3020
3020
3020
3020
3020
3020
3020
3020
3020
3020
3020
3020
3020
3020
ENDCHAR
STARTCHAR 2211
ENCODING 8721
SWIDTH 585 0
DWIDTH 13 0
BBX 9 18 2 -3
BITMAP
FF80
FF80
E000
6000
3000
1800
1C00
0C00
0600
0600
0C00
1800
1800
3000
6000
E000
FF80
FF80
ENDCHAR
STARTCHAR 2212
ENCODING 8722
SWIDTH 540 0
DWIDTH 12 0
BBX 10 2 1 5
BITMAP
FFC0
FFC0
ENDCHAR
STARTCHAR 2219
ENCODING 8729
SWIDTH 315 0
DWIDTH 7 0
BBX 2 2 2 6
BITMAP
C0
C0
ENDCHAR
STARTCHAR 221A
ENCODING 8730
SWIDTH 630 0
DWIDTH 14 0
BBX 14 22 1 -3
BITMAP
007C
0060
0040
00C0
00C0
00C0
0080
0180
0180
0100
0300
0300
C300
C200
4600
6600
6400
2400
3C00
3C00
1800
1800
ENDCHAR
STARTCHAR 221E
ENCODING 8734
SWIDTH 855 0
DWIDTH 19 0
BBX 15 8 2 2
BITMAP
783C
FCFE
C6C6
8382
8382
C6C6
EEEE
7C7C
ENDCHAR
STARTCHAR 222B
ENCODING 8747
SWIDTH 495 0
DWIDTH 11 0
BBX 9 19 1 -3
BITMAP
0380
0780
0600
0C00
0C00
0C00
0C00
0C00
0C00
0800
1800
1800
1800
1800
1800
1800
1000
3000
F000
ENDCHAR
STARTCHAR 2248
ENCODING 8776
SWIDTH 540 0
DWIDTH 12 0
BBX 9 8 2 2
BITMAP
7180
F980
8F00
0000
0000
F980
9F00
0600
ENDCHAR
STARTCHAR 2260
ENCODING 8800
SWIDTH 540 0
DWIDTH 12 0
BBX 9 12 2 0
BITMAP
0600
0400
0400
FF80
FF80
1800
1800
FF80
FF80
2000
2000
6000
ENDCHAR
STARTCHAR 2264
ENCODING 8804
SWIDTH 540 0
DWIDTH 12 0
BBX 10 11 1 1
BITMAP
00C0
03C0
1E00
F000
F800
1F00
03C0
0040
0000
FFC0
FFC0
ENDCHAR
STARTCHAR 2265
ENCODING 8805
SWIDTH 540 0
DWIDTH 12 0
BBX 10 11 1 1
BITMAP
C000
F800
1F00
01C0
07C0
3E00
F000
C000
0000
FFC0
FFC0
ENDCHAR
STARTCHAR 2295
ENCODING 8853
SWIDTH 900 0
DWIDTH 20 0
BBX 17 17 1 -1
BITMAP
01E000
0FF800
1C1C00
300600
200300
60C100
40C180
C0C180
C7F180
C0C180
40C180
60C180
600300
300600
1C0E00
0FF800
03E000
ENDCHAR
STARTCHAR 2296
ENCODING 8854
SWIDTH 900 0
DWIDTH 20 0
BBX 17 17 1 -1
BITMAP
01E000
0FF800
1C1C00
300600
200300
600100
400180
C00180
C7F980
C00180
400180
600180
600300
300600
1C0E00
0FF800
03E000
ENDCHAR
STARTCHAR 2297
ENCODING 8855
SWIDTH 900 0
DWIDTH 20 0
BBX 17 17 1 -1
BITMAP
01E000
0FF800
1C1C00
300600
200300
661100
433180
C1E180
C0C180
C1E180
433180
661180
600300
300600
1C0E00
0FF800
03E000
ENDCHAR
STARTCHAR 2298
ENCODING 8856
SWIDTH 900 0
DWIDTH 20 0
BBX 17 17 1 -1
BITMAP
01E000
0FF800
1C1C00
300600
200300
601100
403180
C06180
C0C180
C18180
430180
660180
600300
300600
1C0E00
0FF800
03E000
ENDCHAR
STARTCHAR 2299
ENCODING 8857
SWIDTH 900 0
DWIDTH 20 0
BBX 17 17 1 -1
BITMAP
01E000
0FF800
1C1C00
300600
200300
600100
41C180
C1E180
C3E180
C3E180
41C180
600180
600300
300600
1C0E00
0FF800
03E000
ENDCHAR
STARTCHAR 229A
ENCODING 8858
SWIDTH 900 0
DWIDTH 20 0
BBX 17 17 1 -1
BITMAP
01E000
0FF800
1C1C00
300600
200300
60C100
43E180
C23180
C23180
C23180
43E180
61C180
600300
300600
1C0E00
0FF800
03E000
ENDCHAR
STARTCHAR 229B
ENCODING 8859
SWIDTH 900 0
DWIDTH 20 0
BBX 17 17 1 -1
BITMAP
01E000
0FF800
1C1C00
300600
208300
608100
469980
C7F180
C1C180
C3F180
46B980
608180
608300
300600
1C0E00
0FF800
03E000
ENDCHAR
STARTCHAR 229C
ENCODING 8860
SWIDTH 900 0
DWIDTH 20 0
BBX 17 17 1 -1
BITMAP
01E000
0FF800
1C1C00
300600
200300
600100
47F180
C7F180
C00180
C7F180
47F180
600180
600300
300600
1C0E00
0FF800
03E000
ENDCHAR
STARTCHAR 229D
ENCODING 8861
SWIDTH 900 0
DWIDTH 20 0
BBX 17 17 1 -1
BITMAP
01E000
0FF800
1C1C00
300600
200300
600100
400180
C00180
C7F980
C00180
400180
600180
600300
300600
1C0E00
0FF800
03E000
ENDCHAR
STARTCHAR 229E
ENCODING 8862
SWIDTH 855 0
DWIDTH 19 0
BBX 15 15 2 0
BITMAP
7FFC
FFFE
C106
C106
C106
C106
C106
FFFE
C106
C106
C106
C106
C106
C106
7FFC
ENDCHAR
STARTCHAR 229F
ENCODING 8863
SWIDTH 855 0
DWIDTH 19 0
BBX 15 15 2 0
BITMAP
7FFC
FFFE
C006
C006
C006
C006
C006
FFFE
C006
C006
C006
C006
C006
C006
7FFC
ENDCHAR
STARTCHAR 22A0
ENCODING 8864
SWIDTH 855 0
DWIDTH 19 0
BBX 15 15 2 0
BITMAP
7FFC
FFFE
F00E
F81E
DC36
CE66
C7C6
C386
C3C6
C6E6
CC76
D83E
F01E
E00E
7FFC
ENDCHAR
STARTCHAR 22A1
ENCODING 8865
SWIDTH 855 0
DWIDTH 19 0
BBX 15 15 2 0
BITMAP
7FFC
FFFE
C006
C006
C006
C386
C7C6
C7C6
C7C6
C386
C006
C006
C006
C006
7FFC
ENDCHAR
STARTCHAR 2303
ENCODING 8963
SWIDTH 855 0
DWIDTH 19 0
BBX 14 8 2 7
BITMAP
0300
0780
0EC0
1C60
3830
7018
E00C
C004
ENDCHAR
STARTCHAR 2305
ENCODING 8965
SWIDTH 810 0
DWIDTH 18 0
BBX 14 10 2 5
BITMAP
FFFC
FFFC
0300
0780
0EC0
1C60
3830
7018
E00C
C004
ENDCHAR
STARTCHAR 2318
ENCODING 8984
SWIDTH 855 0
DWIDTH 19 0
BBX 15 15 2 0
BITMAP
781C
FC36
CC62
CC62
FFFE
3FFC
0C60
0C60
0C60
3FF8
7FFE
CC62
CC62
CC36
783C
ENDCHAR
STARTCHAR 2325
ENCODING 8997
SWIDTH 945 0
DWIDTH 21 0
BBX 16 15 2 0
BITMAP
FC3F
FE3F
0600
0600
0300
0300
0180
0180
00C0
00C0
0060
0060
0060
003F
003F
ENDCHAR
STARTCHAR 2326
ENCODING 8998
SWIDTH 945 0
DWIDTH 21 0
BBX 18 15 2 0
BITMAP
7FF000
FFF800
C01C00
C00E00
C86600
CCE300
C7C180
C380C0
C78180
CEC380
CC6700
C00600
C00C00
C03800
7FF000
ENDCHAR
STARTCHAR 2327
ENCODING 8999
SWIDTH 855 0
DWIDTH 19 0
BBX 15 15 2 0
BITMAP
7FFC
FFFE
C006
C006
C826
CC66
C6C6
C386
C3C6
C6E6
CC66
C006
C006
C006
7FFC
ENDCHAR
STARTCHAR 232B
ENCODING 9003
SWIDTH 945 0
DWIDTH 21 0
BBX 17 15 2 0
BITMAP
03FF00
07FF80
0C0080
180080
310880
619880
C0F080
806080
C0F080
619880
310880
180080
0C0080
060180
03FF80
ENDCHAR
STARTCHAR 2387
ENCODING 9095
SWIDTH 945 0
DWIDTH 21 0
BBX 16 15 2 0
BITMAP
001F
003F
0030
0060
0060
00C0
00C0
0180
0180
0300
0300
0300
0600
FE3F
FC3F
ENDCHAR
STARTCHAR 238B
ENCODING 9099
SWIDTH 900 0
DWIDTH 20 0
BBX 17 17 1 -1
BITMAP
00E000
7CF800
601C00
780600
5C0300
4E0100
070180
038180
C18180
C00180
400180
600180
600300
300600
1C0E00
0FF800
03E000
ENDCHAR
STARTCHAR 2393
ENCODING 9107
SWIDTH 945 0
DWIDTH 21 0
BBX 17 5 2 5
BITMAP
FFFF80
000000
000000
000000
FBCF00
ENDCHAR
STARTCHAR 23CE
ENCODING 9166
SWIDTH 945 0
DWIDTH 21 0
BBX 17 15 2 0
BITMAP
007F80
000180
000080
000080
040080
0C0080
180080
300080
FFFF80
FFFF80
600000
300000
180000
0C0000
040000
ENDCHAR
STARTCHAR 23CF
ENCODING 9167
SWIDTH 900 0
DWIDTH 20 0
BBX 16 15 2 0
BITMAP
0180
03C0
06E0
0C70
1838
301C
600C
C006
FFFE
0000
0000
FFFE
C003
C003
FFFE
ENDCHAR
STARTCHAR 23FB
ENCODING 9211
SWIDTH 900 0
DWIDTH 20 0
BBX 17 17 1 -1
BITMAP
00C000
00C000
10C400
30C600
20C300
60C100
40C180
C0C180
C08180
C00180
400180
600180
600300
300600
1C0E00
0FF800
03E000
ENDCHAR
STARTCHAR 23FC
ENCODING 9212
SWIDTH 900 0
DWIDTH 20 0
BBX 17 17 1 -1
BITMAP
01E000
0FF800
1C1C00
300600
20C300
60C100
40C180
C0C180
C0C180
C0C180
40C180
60C180
60C300
308600
1C0E00
0FF800
03E000
ENDCHAR
STARTCHAR 23FD
ENCODING 9213
SWIDTH 270 0
DWIDTH 6 0
BBX 2 15 2 0
BITMAP
C0
C0
C0
C0
C0
C0
C0
C0
C0
C0
C0
C0
C0
C0
C0
ENDCHAR
STARTCHAR 23FE
ENCODING 9214
SWIDTH 810 0
DWIDTH 18 0
BBX 15 16 1 -1
BITMAP
0C00
1800
3800
3800
7800
7800
F800
F800
FC00
7C00
7E00
7F00
3FE0
1FFE
0FF8
03E0
ENDCHAR
STARTCHAR 2423
ENCODING 9251
SWIDTH 1080 0
DWIDTH 24 0
BBX 20 5 2 2
BITMAP
C00010
C00010
C00010
C00010
FFFFF0
ENDCHAR
STARTCHAR 2460
ENCODING 9312
SWIDTH 900 0
DWIDTH 20 0
BBX 17 17 1 -1
BITMAP
01E000
0FF800
1C1C00
300600
200300
60C100
43C180
C0C180
C0C180
C0C180
40C180
60C180
600300
300600
1C0E00
0FF800
03E000
ENDCHAR
STARTCHAR 2461
ENCODING 9313
SWIDTH 900 0
DWIDTH 20 0
BBX 17 17 1 -1
BITMAP
01E000
0FF800
1C1C00
300600
200300
61E100
432180
C02180
C06180
C0C180
418180
63F180
600300
300600
1C0E00
0FF800
03E000
ENDCHAR
STARTCHAR 2462
ENCODING 9314
SWIDTH 900 0
DWIDTH 20 0
BBX 17 17 1 -1
BITMAP
01E000
0FF800
1C1C00
300600
200300
61E100
432180
C02180
C0C180
C02180
423180
63E180
600300
300600
1C0E00
0FF800
03E000
ENDCHAR
STARTCHAR 2463
ENCODING 9315
SWIDTH 900 0
DWIDTH 20 0
BBX 17 17 1 -1
BITMAP
01E000
0FF800
1C1C00
300600
200300
60E100
41E180
C16180
C26180
C66180
43F180
606180
600300
300600
1C0E00
0FF800
03E000
ENDCHAR
STARTCHAR 2464
ENCODING 9316
SWIDTH 900 0
DWIDTH 20 0
BBX 17 17 1 -1
BITMAP
01E000
0FF800
1C1C00
300600
200300
63E100
420180
C2C180
C3E180
C03180
422180
63E180
600300
300600
1C0E00
0FF800
03E000
ENDCHAR
STARTCHAR 2465
ENCODING 9317
SWIDTH 900 0
DWIDTH 20 0
BBX 17 17 1 -1
BITMAP
01E000
0FF800
1C1C00
300600
200300
61E100
432180
C24180
C3E180
C23180
423180
61E180
600300
300600
1C0E00
0FF800
03E000
ENDCHAR
STARTCHAR 2466
ENCODING 9318
SWIDTH 900 0
DWIDTH 20 0
BBX 17 17 1 -1
BITMAP
01E000
0FF800
1C1C00
300600
200300
63E100
402180
C06180
C04180
C0C180
418180
618180
600300
300600
1C0E00
0FF800
03E000
ENDCHAR
STARTCHAR 2467
ENCODING 9319
SWIDTH 900 0
DWIDTH 20 0
BBX 17 17 1 -1
BITMAP
01E000
0FF800
1C1C00
300600
200300
61E100
432180
C32180
C1C180
C23180
423180
63E180
600300
300600
1C0E00
0FF800
03E000
ENDCHAR
STARTCHAR 2468
ENCODING 9320
SWIDTH 900 0
DWIDTH 20 0
BBX 17 17 1 -1
BITMAP
01E000
0FF800
1C1C00
300600
200300
61E100
432180
C23180
C37180
C1B180
422180
63E180
600300
300600
1C0E00
0FF800
03E000
ENDCHAR
STARTCHAR 2469
ENCODING 9321
SWIDTH 900 0
DWIDTH 20 0
BBX 17 17 1 -1
BITMAP
01E000
0FF800
1C1C00
300600
200300
623100
465180
C25980
C25980
C25980
425980
627180
600300
300600
1C0E00
0FF800
03E000
ENDCHAR
STARTCHAR 246A
ENCODING 9322
SWIDTH 900 0
DWIDTH 20 0
BBX 17 17 1 -1
BITMAP
01E000
0FF800
1C1C00
300600
200300
632100
477180
C33180
C33180
C33180
433180
633180
600300
300600
1C0E00
0FF800
03E000
ENDCHAR
STARTCHAR 246B
ENCODING 9323
SWIDTH 900 0
DWIDTH 20 0
BBX 17 17 1 -1
BITMAP
01E000
0FF800
1C1C00
300600
200300
626100
465180
C21180
C23180
C22180
424180
627180
600300
300600
1C0E00
0FF800
03E000
ENDCHAR
STARTCHAR 246C
ENCODING 9324
SWIDTH 900 0
DWIDTH 20 0
BBX 17 17 1 -1
BITMAP
01E000
0FF800
1C1C00
300600
200300
627100
465180
C21180
C22180
C21980
42D980
627180
600300
300600
1C0E00
0FF800
03E000
ENDCHAR
STARTCHAR 246D
ENCODING 9325
SWIDTH 900 0
DWIDTH 20 0
BBX 17 17 1 -1
BITMAP
01E000
0FF800
1C1C00
300600
200300
623100
4E3180
C25180
C25180
C29180
42F180
621180
600300
300600
1C0E00
0FF800
03E000
ENDCHAR
STARTCHAR 246E
ENCODING 9326
SWIDTH 900 0
DWIDTH 20 0
BBX 17 17 1 -1
BITMAP
01E000
0FF800
1C1C00
300600
200300
627100
4E4180
C24180
C27180
C21180
425180
627180
600300
300600
1C0E00
0FF800
03E000
ENDCHAR
STARTCHAR 246F
ENCODING 9327
SWIDTH 900 0
DWIDTH 20 0
BBX 17 17 1 -1
BITMAP
01E000
0FF800
1C1C00
300600
200300
623100
4E5180
C2C180
C2F180
C2D980
425180
627180
600300
300600
1C0E00
0FF800
03E000
ENDCHAR
STARTCHAR 2470
ENCODING 9328
SWIDTH 900 0
DWIDTH 20 0
BBX 17 17 1 -1
BITMAP
01E000
0FF800
1C1C00
300600
200300
627100
471180
C31180
C33180
C32180
432180
636180
600300
300600
1C0E00
0FF800
03E000
ENDCHAR
STARTCHAR 2471
ENCODING 9329
SWIDTH 900 0
DWIDTH 20 0
BBX 17 17 1 -1
BITMAP
01E000
0FF800
1C1C00
300600
200300
627100
4E5180
C25180
C27180
C25980
42D980
627180
600300
300600
1C0E00
0FF800
03E000
ENDCHAR
STARTCHAR 2472
ENCODING 9330
SWIDTH 900 0
DWIDTH 20 0
BBX 17 17 1 -1
BITMAP
01E000
0FF800
1C1C00
300600
200300
626100
4E5180
C2D180
C25980
C27980
425180
627180
600300
300600
1C0E00
0FF800
03E000
ENDCHAR
STARTCHAR 2473
ENCODING 9331
SWIDTH 900 0
DWIDTH 20 0
BBX 17 17 1 -1
BITMAP
01E000
0FF800
1C1C00
300600
200300
663100
4D6980
C14980
C34980
C24980
446980
6F3180
600300
300600
1C0E00
0FF800
03E000
ENDCHAR
STARTCHAR 24B6
ENCODING 9398
SWIDTH 900 0
DWIDTH 20 0
BBX 17 17 1 -1
BITMAP
01E000
0FF800
1C1C00
300600
200300
60C100
41C180
C16180
C12180
C3E180
423180
661180
600300
300600
1C0E00
0FF800
03E000
ENDCHAR
STARTCHAR 24B7
ENCODING 9399
SWIDTH 900 0
DWIDTH 20 0
BBX 17 17 1 -1
BITMAP
01E000
0FF800
1C1C00
300600
200300
63E100
423180
C22180
C3E180
C23180
423180
63E180
600300
300600
1C0E00
0FF800
03E000
ENDCHAR
STARTCHAR 24B8
ENCODING 9400
SWIDTH 900 0
DWIDTH 20 0
BBX 17 17 1 -1
BITMAP
01E000
0FF800
1C1C00
300600
200300
63E100
423180
C60180
C60180
C60180
423180
63E180
600300
300600
1C0E00
0FF800
03E000
ENDCHAR
STARTCHAR 24B9
ENCODING 9401
SWIDTH 900 0
DWIDTH 20 0
BBX 17 17 1 -1
BITMAP
01E000
0FF800
1C1C00
300600
200300
63E100
423180
C21180
C21180
C21180
423180
63E180
600300
300600
1C0E00
0FF800
03E000
ENDCHAR
STARTCHAR 24BA
ENCODING 9402
SWIDTH 900 0
DWIDTH 20 0
BBX 17 17 1 -1
BITMAP
01E000
0FF800
1C1C00
300600
200300
63E100
430180
C30180
C3E180
C30180
430180
63E180
600300
300600
1C0E00
0FF800
03E000
ENDCHAR
STARTCHAR 24BB
ENCODING 9403
SWIDTH 900 0
DWIDTH 20 0
BBX 17 17 1 -1
BITMAP
01E000
0FF800
1C1C00
300600
200300
63E100
430180
C30180
C3E180
C30180
430180
630180
600300
300600
1C0E00
0FF800
03E000
ENDCHAR
STARTCHAR 24BC
ENCODING 9404
SWIDTH 900 0
DWIDTH 20 0
BBX 17 17 1 -1
BITMAP
01E000
0FF800
1C1C00
300600
200300
63E100
423180
C60180
C67180
C63180
423180
63E180
600300
300600
1C0E00
0FF800
03E000
ENDCHAR
STARTCHAR 24BD
ENCODING 9405
SWIDTH 900 0
DWIDTH 20 0
BBX 17 17 1 -1
BITMAP
01E000
0FF800
1C1C00
300600
200300
663100
463180
C63180
C7F180
C63180
463180
663180
600300
300600
1C0E00
0FF800
03E000
ENDCHAR
STARTCHAR 24BE
ENCODING 9406
SWIDTH 900 0
DWIDTH 20 0
BBX 17 17 1 -1
BITMAP
01E000
0FF800
1C1C00
300600
200300
60C100
40C180
C0C180
C0C180
C0C180
40C180
60C180
600300
300600
1C0E00
0FF800
03E000
ENDCHAR
STARTCHAR 24BF
ENCODING 9407
SWIDTH 900 0
DWIDTH 20 0
BBX 17 17 1 -1
BITMAP
01E000
0FF800
1C1C00
300600
200300
606100
406180
C06180
C06180
C06180
426180
63C180
600300
300600
1C0E00
0FF800
03E000
ENDCHAR
STARTCHAR 24C0
ENCODING 9408
SWIDTH 900 0
DWIDTH 20 0
BBX 17 17 1 -1
BITMAP
01E000
0FF800
1C1C00
300600
200300
623100
426180
C2C180
C3C180
C36180
426180
623180
600300
300600
1C0E00
0FF800
03E000
ENDCHAR
STARTCHAR 24C1
ENCODING 9409
SWIDTH 900 0
DWIDTH 20 0
BBX 17 17 1 -1
BITMAP
01E000
0FF800
1C1C00
300600
200300
610100
410180
C10180
C10180
C10180
410180
61F180
600300
300600
1C0E00
0FF800
03E000
ENDCHAR
STARTCHAR 24C2
ENCODING 9410
SWIDTH 900 0
DWIDTH 20 0
BBX 17 17 1 -1
BITMAP
01E000
0FF800
1C1C00
300600
200300
661900
463980
C73980
C57980
C55980
44D980
649980
600300
300600
1C0E00
0FF800
03E000
ENDCHAR
STARTCHAR 24C3
ENCODING 9411
SWIDTH 900 0
DWIDTH 20 0
BBX 17 17 1 -1
BITMAP
01E000
0FF800
1C1C00
300600
200300
623100
433180
C3B180
C2B180
C27180
427180
623180
600300
300600
1C0E00
0FF800
03E000
ENDCHAR
STARTCHAR 24C4
ENCODING 9412
SWIDTH 900 0
DWIDTH 20 0
BBX 17 17 1 -1
BITMAP
01E000
0FF800
1C1C00
300600
200300
63E100
423180
C61180
C61180
C61180
423180
63E180
600300
300600
1C0E00
0FF800
03E000
ENDCHAR
STARTCHAR 24C5
ENCODING 9413
SWIDTH 900 0
DWIDTH 20 0
BBX 17 17 1 -1
BITMAP
01E000
0FF800
1C1C00
300600
200300
63E100
433180
C33180
C33180
C3E180
430180
630180
600300
300600
1C0E00
0FF800
03E000
ENDCHAR
STARTCHAR 24C6
ENCODING 9414
SWIDTH 900 0
DWIDTH 20 0
BBX 17 17 1 -1
BITMAP
01E000
0FF800
1C1C00
300600
200300
63E100
423180
C61180
C61180
C61180
427180
63E180
603300
300600
1C0E00
0FF800
03E000
ENDCHAR
STARTCHAR 24C7
ENCODING 9415
SWIDTH 900 0
DWIDTH 20 0
BBX 17 17 1 -1
BITMAP
01E000
0FF800
1C1C00
300600
200300
63E100
423180
C23180
C26180
C3C180
426180
623180
600300
300600
1C0E00
0FF800
03E000
ENDCHAR
STARTCHAR 24C8
ENCODING 9416
SWIDTH 900 0
DWIDTH 20 0
BBX 17 17 1 -1
BITMAP
01E000
0FF800
1C1C00
300600
200300
63E100
423180
C30180
C1E180
C03180
423180
63E180
600300
300600
1C0E00
0FF800
03E000
ENDCHAR
STARTCHAR 24C9
ENCODING 9417
SWIDTH 900 0
DWIDTH 20 0
BBX 17 17 1 -1
BITMAP
01E000
0FF800
1C1C00
300600
200300
67F100
40C180
C0C180
C0C180
C0C180
40C180
608180
600300
300600
1C0E00
0FF800
03E000
ENDCHAR
STARTCHAR 24CA
ENCODING 9418
SWIDTH 900 0
DWIDTH 20 0
BBX 17 17 1 -1
BITMAP
01E000
0FF800
1C1C00
300600
200300
663100
463180
C63180
C63180
C63180
423180
63E180
600300
300600
1C0E00
0FF800
03E000
ENDCHAR
STARTCHAR 24CB
ENCODING 9419
SWIDTH 900 0
DWIDTH 20 0
BBX 17 17 1 -1
BITMAP
01E000
0FF800
1C1C00
300600
200300
663100
423180
C32180
C36180
C16180
41C180
60C180
600300
300600
1C0E00
0FF800
03E000
ENDCHAR
STARTCHAR 24CC
ENCODING 9420
SWIDTH 900 0
DWIDTH 20 0
BBX 17 17 1 -1
BITMAP
01E000
0FF800
1C1C00
300600
200300
6CC900
4CC980
C5D980
C55980
C57180
473180
633180
600300
300600
1C0E00
0FF800
03E000
ENDCHAR
STARTCHAR 24CD
ENCODING 9421
SWIDTH 900 0
DWIDTH 20 0
BBX 17 17 1 -1
BITMAP
01E000
0FF800
1C1C00
300600
200300
623100
436180
C1C180
C0C180
C1C180
436180
623180
600300
300600
1C0E00
0FF800
03E000
ENDCHAR
STARTCHAR 24CE
ENCODING 9422
SWIDTH 900 0
DWIDTH 20 0
BBX 17 17 1 -1
BITMAP
01E000
0FF800
1C1C00
300600
200300
623100
432180
C16180
C1C180
C0C180
40C180
60C180
600300
300600
1C0E00
0FF800
03E000
ENDCHAR
STARTCHAR 24CF
ENCODING 9423
SWIDTH 900 0
DWIDTH 20 0
BBX 17 17 1 -1
BITMAP
01E000
0FF800
1C1C00
300600
200300
63E100
406180
C04180
C0C180
C18180
430180
63F180
600300
300600
1C0E00
0FF800
03E000
ENDCHAR
STARTCHAR 24EA
ENCODING 9450
SWIDTH 900 0
DWIDTH 20 0
BBX 17 17 1 -1
BITMAP
01E000
0FF800
1C1C00
300600
200300
61E100
432180
C23180
C23180
C23180
432180
61E180
600300
300600
1C0E00
0FF800
03E000
ENDCHAR
STARTCHAR 24EB
ENCODING 9451
SWIDTH 900 0
DWIDTH 20 0
BBX 17 17 1 -1
BITMAP
01E000
0FF800
1FFC00
3FFE00
3FFF00
7CCF00
788F80
FCCF80
FCCF80
FCCF80
7CCF80
7CCF80
7FFF00
3FFE00
1FFE00
0FF800
03E000
ENDCHAR
STARTCHAR 24EC
ENCODING 9452
SWIDTH 900 0
DWIDTH 20 0
BBX 17 17 1 -1
BITMAP
01E000
0FF800
1FFC00
3FFE00
3FFF00
7D8F00
71AF80
FDEF80
FDEF80
FDDF80
7DBF80
7D8780
7FFF00
3FFE00
1FFE00
0FF800
03E000
ENDCHAR
STARTCHAR 24ED
ENCODING 9453
SWIDTH 900 0
DWIDTH 20 0
BBX 17 17 1 -1
BITMAP
01E000
0FF800
1FFC00
3FFE00
3FFF00
798F00
71A780
FDEF80
FDDF80
FDE780
7D2780
7D8F80
7FFF00
3FFE00
1FFE00
0FF800
03E000
ENDCHAR
STARTCHAR 24EE
ENCODING 9454
SWIDTH 900 0
DWIDTH 20 0
BBX 17 17 1 -1
BITMAP
01E000
0FF800
1FFC00
3FFE00
3FFF00
79CF00
71CF80
FDAF80
FDAF80
FD6F80
7D0780
7DEF80
7FFF00
3FFE00
1FFE00
0FF800
03E000
ENDCHAR
STARTCHAR 24EF
ENCODING 9455
SWIDTH 900 0
DWIDTH 20 0
BBX 17 17 1 -1
BITMAP
01E000
0FF800
1FFC00
3FFE00
3FFF00
798F00
71BF80
FDBF80
FD8F80
FDE780
7DA780
7D8F80
7FFF00
3FFE00
1FFE00
0FF800
03E000
ENDCHAR
STARTCHAR 24F0
ENCODING 9456
SWIDTH 900 0
DWIDTH 20 0
BBX 17 17 1 -1
BITMAP
01E000
0FF800
1FFC00
3FFE00
3FFF00
798F00
71AF80
FD3F80
FD0F80
FD2780
7DA780
7D8F80
7FFF00
3FFE00
1FFE00
0FF800
03E000
ENDCHAR
STARTCHAR 24F1
ENCODING 9457
SWIDTH 900 0
DWIDTH 20 0
BBX 17 17 1 -1
BITMAP
01E000
0FF800
1FFC00
3FFE00
3FFF00
7D8700
78E780
FCEF80
FCCF80
FCDF80
7CDF80
7C9F80
7FFF00
3FFE00
1FFE00
0FF800
03E000
ENDCHAR
STARTCHAR 24F2
ENCODING 9458
SWIDTH 900 0
DWIDTH 20 0
BBX 17 17 1 -1
BITMAP
01E000
0FF800
1FFC00
3FFE00
3FFF00
798F00
71A780
FDA780
FD8F80
FDA780
7D2780
7D8F80
7FFF00
3FFE00
1FFE00
0FF800
03E000
ENDCHAR
STARTCHAR 24F3
ENCODING 9459
SWIDTH 900 0
DWIDTH 20 0
BBX 17 17 1 -1
BITMAP
01E000
0FF800
1FFC00
3FFE00
3FFF00
798F00
71AF80
FD2780
FDA780
FDA780
7DEF80
7D8F80
7FFF00
3FFE00
1FFE00
0FF800
03E000
ENDCHAR
STARTCHAR 24F4
ENCODING 9460
SWIDTH 900 0
DWIDTH 20 0
BBX 17 17 1 -1
BITMAP
01E000
0FF800
1FFC00
3FFE00
3FFF00
79CF00
729780
FEB780
FCB780
F9B780
7B9780
70C780
7FFF00
3FFE00
1FFE00
0FF800
03E000
ENDCHAR
STARTCHAR 24FF
ENCODING 9471
SWIDTH 900 0
DWIDTH 20 0
BBX 17 17 1 -1
BITMAP
01E000
0FF800
1FFC00
3FFE00
3FFF00
7E1F00
7CDF80
FDCF80
FDCF80
FDCF80
7CDF80
7E1F80
7F7F00
3FFE00
1FFE00
0FF800
03E000
ENDCHAR
STARTCHAR 25A0
ENCODING 9632
SWIDTH 855 0
DWIDTH 19 0
BBX 15 15 2 0
BITMAP
7FFC
FFFE
FFFE
FFFE
FFFE
FFFE
FFFE
FFFE
FFFE
FFFE
FFFE
FFFE
FFFE
FFFE
7FFC
ENDCHAR
STARTCHAR 25A1
ENCODING 9633
SWIDTH 855 0
DWIDTH 19 0
BBX 15 15 2 0
BITMAP
7FFC
FFFE
C006
C006
C006
C006
C006
C006
C006
C006
C006
C006
C006
E006
7FFC
ENDCHAR
STARTCHAR 25B2
ENCODING 9650
SWIDTH 720 0
DWIDTH 16 0
BBX 12 13 2 1
BITMAP
0600
0700
0F00
0F00
1F80
1F80
3FC0
3FC0
7FE0
7FE0
FFF0
FFF0
FFF0
ENDCHAR
STARTCHAR 25B3
ENCODING 9651
SWIDTH 720 0
DWIDTH 16 0
BBX 12 13 2 1
BITMAP
0600
0700
0F00
0980
1980
1080
30C0
2040
6060
6020
C030
C010
FFF0
ENDCHAR
STARTCHAR 25B4
ENCODING 9652
SWIDTH 450 0
DWIDTH 10 0
BBX 6 6 2 4
BITMAP
30
30
78
78
FC
FC
ENDCHAR
STARTCHAR 25B6
ENCODING 9654
SWIDTH 765 0
DWIDTH 17 0
BBX 13 13 2 1
BITMAP
C000
F000
FC00
FF00
FFC0
FFF0
FFF8
FFF8
FFE0
FF80
FE00
F800
E000
ENDCHAR
STARTCHAR 25B7
ENCODING 9655
SWIDTH 765 0
DWIDTH 17 0
BBX 13 13 2 1
BITMAP
C000
F000
DC00
C700
C1C0
C070
C018
C078
C1E0
C780
DE00
F800
E000
ENDCHAR
STARTCHAR 25B8
ENCODING 9656
SWIDTH 450 0
DWIDTH 10 0
BBX 6 6 2 3
BITMAP
80
E0
F8
FC
F0
C0
ENDCHAR
STARTCHAR 25BC
ENCODING 9660
SWIDTH 720 0
DWIDTH 16 0
BBX 12 13 2 1
BITMAP
FFF0
FFF0
FFF0
7FF0
7FE0
3FE0
3FC0
1FC0
1F80
0F80
0F00
0700
0600
ENDCHAR
STARTCHAR 25BD
ENCODING 9661
SWIDTH 720 0
DWIDTH 16 0
BBX 12 13 2 1
BITMAP
FFF0
FFF0
C030
4030
6060
2060
30C0
10C0
1980
0980
0F00
0700
0600
ENDCHAR
STARTCHAR 25BE
ENCODING 9662
SWIDTH 450 0
DWIDTH 10 0
BBX 6 6 2 3
BITMAP
FC
7C
78
78
30
30
ENDCHAR
STARTCHAR 25C0
ENCODING 9664
SWIDTH 765 0
DWIDTH 17 0
BBX 13 13 2 1
BITMAP
0010
0078
01F8
07F8
3FF8
FFF8
FFF8
FFF8
3FF8
0FF8
03F8
00F8
0038
ENDCHAR
STARTCHAR 25C1
ENCODING 9665
SWIDTH 765 0
DWIDTH 17 0
BBX 13 13 2 1
BITMAP
0018
0078
01D8
0718
3C18
F018
C018
F018
3C18
0F18
03D8
00F8
0038
ENDCHAR
STARTCHAR 25C2
ENCODING 9666
SWIDTH 450 0
DWIDTH 10 0
BBX 6 6 2 3
BITMAP
04
1C
7C
FC
3C
0C
ENDCHAR
STARTCHAR 25C9
ENCODING 9673
SWIDTH 900 0
DWIDTH 20 0
BBX 17 17 1 -1
BITMAP
01E000
0FF800
1C1C00
31C600
27F300
6FF900
4FFD80
CFFD80
DFFD80
DFFD80
4FFD80
6FF980
67F300
31E600
1C0E00
0FF800
03E000
ENDCHAR
STARTCHAR 25CA
ENCODING 9674
SWIDTH 540 0
DWIDTH 12 0
BBX 9 15 1 -1
BITMAP
0C00
1C00
1E00
3200
2300
6180
4180
C080
4180
6100
3300
3600
1E00
1C00
0C00
ENDCHAR
STARTCHAR 25CB
ENCODING 9675
SWIDTH 900 0
DWIDTH 20 0
BBX 17 17 1 -1
BITMAP
01E000
0FF800
1C1C00
300600
200300
600100
400180
C00180
C00180
C00180
400180
600180
600300
300600
1C0E00
0FF800
03E000
ENDCHAR
STARTCHAR 25CF
ENCODING 9679
SWIDTH 900 0
DWIDTH 20 0
BBX 17 17 1 -1
BITMAP
01E000
0FF800
1FFC00
3FFE00
3FFF00
7FFF00
7FFF80
FFFF80
FFFF80
FFFF80
7FFF80
7FFF80
7FFF00
3FFE00
1FFE00
0FF800
03E000
ENDCHAR
STARTCHAR 25D0
ENCODING 9680
SWIDTH 900 0
DWIDTH 20 0
BBX 17 17 1 -1
BITMAP
01E000
0FF800
1F9C00
3F8600
3F8300
7F8100
7F8180
FF8180
FF8180
FF8180
7F8180
7F8180
7F8300
3F8600
1F8E00
0FF800
03E000
ENDCHAR
STARTCHAR 25D1
ENCODING 9681
SWIDTH 900 0
DWIDTH 20 0
BBX 17 17 1 -1
BITMAP
01E000
0FF800
1C7C00
307E00
207F00
607F00
407F80
C07F80
C07F80
C07F80
407F80
607F80
607F00
307E00
1C7E00
0FF800
03E000
ENDCHAR
STARTCHAR 25D2
ENCODING 9682
SWIDTH 900 0
DWIDTH 20 0
BBX 17 17 1 -1
BITMAP
01E000
0FF800
1C1C00
300600
200300
600100
400180
C00180
C00180
FFFF80
7FFF80
7FFF80
7FFF00
3FFE00
1FFE00
0FF800
03E000
ENDCHAR
STARTCHAR 25D3
ENCODING 9683
SWIDTH 900 0
DWIDTH 20 0
BBX 17 17 1 -1
BITMAP
01E000
0FF800
1FFC00
3FFE00
3FFF00
7FFF00
7FFF80
FFFF80
FFFF80
C00180
400180
600180
600300
300600
1C0E00
0FF800
03E000
ENDCHAR
STARTCHAR 25E6
ENCODING 9702
SWIDTH 450 0
DWIDTH 10 0
BBX 8 8 1 2
BITMAP
08
7E
42
C3
C1
43
66
3C
ENDCHAR
STARTCHAR 25E7
ENCODING 9703
SWIDTH 855 0
DWIDTH 19 0
BBX 15 15 2 0
BITMAP
7FFC
FFFE
FF06
FF06
FF06
FF06
FF06
FF06
FF06
FF06
FF06
FF06
FF06
FF06
7FFC
ENDCHAR
STARTCHAR 25E8
ENCODING 9704
SWIDTH 855 0
DWIDTH 19 0
BBX 15 15 2 0
BITMAP
7FFC
FFFE
C0FE
C0FE
C0FE
C0FE
C0FE
C0FE
C0FE
C0FE
C0FE
C0FE
C0FE
C0FE
7FFC
ENDCHAR
STARTCHAR 25ED
ENCODING 9709
SWIDTH 900 0
DWIDTH 20 0
BBX 17 15 2 0
BITMAP
01C000
03C000
076000
073000
0F3000
0F1800
1F1800
3F0C00
3F0400
7F0600
7F0300
FF0300
FF0180
FF0180
FFFF00
ENDCHAR
STARTCHAR 25EE
ENCODING 9710
SWIDTH 900 0
DWIDTH 20 0
BBX 17 15 2 0
BITMAP
01C000
03C000
06E000
06F000
0CF000
08F800
18F800
30FC00
30FC00
60FE00
40FF00
C0FF00
80FF80
80FF80
FFFF00
ENDCHAR
STARTCHAR 2602
ENCODING 9730
SWIDTH 900 0
DWIDTH 20 0
BBX 16 19 2 -2
BITMAP
0180
0180
07F0
1FF8
3FFC
7FFE
7FFF
FFFF
FFFF
C7B3
0180
0180
0180
0180
0180
0980
0980
0F80
0700
ENDCHAR
STARTCHAR 2605
ENCODING 9733
SWIDTH 945 0
DWIDTH 21 0
BBX 18 18 2 -1
BITMAP
008000
00C000
01C000
01C000
01E000
03E000
FFFF80
FFFFC0
7FFF80
3FFE00
0FFC00
0FF800
0FF800
0FFC00
1F7C00
1E3C00
1C0E00
100400
ENDCHAR
STARTCHAR 2606
ENCODING 9734
SWIDTH 945 0
DWIDTH 21 0
BBX 18 18 2 -1
BITMAP
008000
00C000
01C000
014000
016000
032000
FF3F80
FE3FC0
600380
380600
0C1C00
0C1800
0C0800
09CC00
1B6400
1E3C00
1C0E00
100400
ENDCHAR
STARTCHAR 2611
ENCODING 9745
SWIDTH 855 0
DWIDTH 19 0
BBX 15 15 2 0
BITMAP
7FFC
FFFE
C006
C006
C026
C066
C046
C8C6
CD86
C706
C706
C006
C006
C006
7FFC
ENDCHAR
STARTCHAR 2612
ENCODING 9746
SWIDTH 855 0
DWIDTH 19 0
BBX 15 15 2 0
BITMAP
7FFC
FFFE
C006
C006
C826
CC66
C6C6
C386
C3C6
C6E6
CC66
C006
C006
C006
7FFC
ENDCHAR
STARTCHAR 262E
ENCODING 9774
SWIDTH 900 0
DWIDTH 20 0
BBX 17 17 1 -1
BITMAP
01E000
0FF800
1CDC00
30C600
20C300
60C100
40C180
C0C180
C0C180
C3E180
47F180
6ED980
7CCF00
30C600
1CCE00
0FF800
03E000
ENDCHAR
STARTCHAR 263E
ENCODING 9790
SWIDTH 855 0
DWIDTH 19 0
BBX 16 16 1 -1
BITMAP
0C00
1C00
3C00
7C00
7C00
7C00
FC00
FE00
FF00
7F80
7FFF
7FFF
3FFE
1FFE
0FF8
01E0
ENDCHAR
STARTCHAR 2660
ENCODING 9824
SWIDTH 810 0
DWIDTH 18 0
BBX 16 16 1 0
BITMAP
0080
0180
03C0
07E0
0FF0
1FF8
3FFC
7FFE
7FFE
FFFF
FFFF
7FFF
7DFE
1BD8
07E0
07F0
ENDCHAR
STARTCHAR 2661
ENCODING 9825
SWIDTH 900 0
DWIDTH 20 0
BBX 16 15 2 0
BITMAP
1C38
3F7E
61C7
C083
C001
C001
C001
C003
6003
6006
300C
1818
0C30
0760
01C0
ENDCHAR
STARTCHAR 2662
ENCODING 9826
SWIDTH 720 0
DWIDTH 16 0
BBX 12 17 2 -1
BITMAP
0600
0700
0F00
1980
30C0
30E0
6060
C030
8010
C030
6060
6060
30C0
1980
0F00
0F00
0600
ENDCHAR
STARTCHAR 2663
ENCODING 9827
SWIDTH 810 0
DWIDTH 18 0
BBX 16 15 1 0
BITMAP
03C0
07E0
07F0
07F0
07F0
07E0
3FFE
7FFE
FFFF
FFFF
7FFF
7FFE
1BD8
07E0
07F0
ENDCHAR
STARTCHAR 2664
ENCODING 9828
SWIDTH 810 0
DWIDTH 18 0
BBX 16 15 1 0
BITMAP
0180
03C0
0260
0630
1C18
380C
6006
6002
C003
C003
4243
7F7E
1A58
0620
07F0
ENDCHAR
STARTCHAR 2665
ENCODING 9829
SWIDTH 900 0
DWIDTH 20 0
BBX 16 15 2 0
BITMAP
1C18
3E7E
7FFF
FFFF
FFFF
FFFF
FFFF
FFFF
7FFF
7FFE
3FFC
1FF8
0FF0
07E0
01C0
ENDCHAR
STARTCHAR 2666
ENCODING 9830
SWIDTH 720 0
DWIDTH 16 0
BBX 12 17 2 -1
BITMAP
0600
0700
0F00
1F80
3FC0
3FE0
7FE0
FFF0
FFF0
FFF0
7FE0
7FE0
3FC0
1F80
0F00
0F00
0600
ENDCHAR
STARTCHAR 2667
ENCODING 9831
SWIDTH 855 0
DWIDTH 19 0
BBX 16 15 1 0
BITMAP
03C0
0660
0430
0430
0430
0620
3F7E
6243
C001
C001
4343
7F7E
1A6C
0620
07F0
ENDCHAR
ENDFONT
